<svg xmlns="http://www.w3.org/2000/svg" xmlns:xlink="http://www.w3.org/1999/xlink" width="1148" height="1600" version="1.1" viewBox="0 0 861 1200"><g id="surface1"><path style="stroke:none;fill-rule:nonzero;fill:#ef91b1;fill-opacity:1" d="M 0 0 L 861.378906 0 L 861.378906 1199.613281 L 0 1199.613281 L 0 0 M 14.796875 14.804688 C 14.816406 118.273438 14.683594 221.761719 14.871094 325.234375 C 20.148438 317.695312 24.804688 309.730469 29.816406 302.015625 C 90.207031 206.242188 150.921875 110.679688 211.140625 14.804688 C 145.699219 14.710938 80.257812 14.671875 14.796875 14.804688 M 243.882812 456.589844 C 237.925781 456.707031 231.96875 456.6875 226.011719 456.839844 C 225.109375 427.5 225.878906 398.082031 225.636719 368.722656 C 194.761719 368.816406 163.867188 368.429688 132.996094 368.933594 C 132.390625 363.121094 132.484375 357.285156 132.582031 351.453125 C 163.585938 351.375 194.609375 351.53125 225.617188 351.394531 C 225.578125 242.597656 225.765625 133.816406 225.523438 25.019531 C 157.949219 132.304688 90.113281 239.417969 22.429688 346.628906 C 19.300781 352.191406 13.910156 357.230469 14.738281 364.207031 C 14.929688 508.566406 14.589844 652.945312 14.910156 797.324219 C 83.820312 690.871094 151.917969 583.835938 220.621094 477.230469 C 228.972656 477.265625 237.339844 477.054688 245.691406 477.460938 C 245.484375 593.527344 245.652344 709.59375 245.597656 825.679688 C 260.597656 826.164062 275.601562 825.542969 290.605469 825.988281 C 290.738281 831.589844 290.925781 837.191406 290.304688 842.769531 C 275.414062 842.789062 260.503906 842.421875 245.613281 842.964844 C 245.558594 872.363281 245.632812 901.761719 245.578125 931.183594 C 239.546875 931.242188 233.515625 931.277344 227.464844 931.242188 C 227.40625 901.820312 227.484375 872.421875 227.425781 843.003906 C 204.375 842.304688 181.304688 842.90625 158.253906 842.714844 C 110.488281 842.925781 62.726562 842.265625 15.003906 843.042969 C 14.664062 891.183594 14.609375 939.359375 15.023438 987.5 C 54.832031 987.5 94.636719 987.539062 134.445312 987.480469 C 134.484375 993.0625 134.445312 998.644531 134.351562 1004.246094 C 117.011719 1004.28125 99.671875 1004.167969 82.347656 1004.28125 C 82.121094 1059.339844 82.726562 1114.417969 82.046875 1169.476562 C 76.582031 1169.320312 71.097656 1169.261719 65.628906 1169.261719 C 65.761719 1114.246094 65.742188 1059.246094 65.628906 1004.226562 C 48.703125 1004.246094 31.777344 1004.167969 14.851562 1004.28125 C 14.644531 1061.027344 14.910156 1117.75 14.71875 1174.496094 C 14.832031 1177.558594 14.417969 1180.792969 15.476562 1183.757812 C 19.546875 1185.097656 23.976562 1184.261719 28.199219 1184.457031 C 200.980469 1184.398438 373.746094 1184.457031 546.53125 1184.4375 C 646.296875 1184.226562 746.097656 1184.84375 845.847656 1184.128906 C 845.636719 914.4375 845.996094 644.75 845.675781 375.058594 C 843.167969 381.453125 841.019531 388.042969 837.910156 394.167969 C 825.546875 418.933594 803.359375 437.925781 778.085938 447.460938 C 759.3125 453.351562 739.652344 456.394531 720.011719 456.550781 C 680.09375 456.859375 640.171875 456.648438 600.269531 456.648438 C 600.230469 309.359375 600.304688 162.074219 600.210938 14.765625 C 581.609375 14.632812 563.023438 14.863281 544.421875 14.671875 C 528.570312 31.550781 513.472656 49.148438 497.769531 66.164062 C 448.953125 120.851562 399.496094 174.960938 350.902344 229.863281 C 425.675781 305.347656 500.351562 380.949219 575.050781 456.53125 C 566.945312 456.820312 558.839844 456.667969 550.734375 456.707031 C 476.074219 382.074219 402.019531 306.78125 327.246094 232.304688 C 327.097656 307.09375 327.265625 381.898438 327.152344 456.6875 C 321.253906 456.726562 315.335938 456.726562 309.417969 456.667969 C 309.285156 309.417969 309.453125 162.152344 309.378906 14.882812 C 287.554688 14.515625 265.746094 14.863281 243.917969 14.710938 C 243.730469 161.996094 243.804688 309.300781 243.882812 456.589844 M 327.210938 14.765625 C 327.230469 86.296875 327.097656 157.828125 327.265625 229.339844 C 338.011719 218.644531 347.566406 206.800781 358.007812 195.792969 C 412.519531 135.386719 467.253906 75.195312 521.707031 14.75 C 456.867188 14.730469 392.03125 14.710938 327.210938 14.765625 M 764.796875 14.882812 C 773.109375 20.175781 782.007812 24.652344 789.355469 31.414062 C 809.335938 48.722656 820.324219 74.921875 822.925781 101.296875 C 825.808594 127.789062 821.964844 156.257812 807.035156 178.644531 C 795.972656 194.824219 780.046875 206.820312 762.894531 215.425781 C 765.496094 217.75 768.90625 218.546875 772.074219 219.730469 C 794.050781 227.65625 814.125 241.839844 827.789062 261.394531 C 835.875 272.519531 841.019531 285.464844 845.636719 298.410156 C 845.828125 203.816406 846.054688 109.207031 845.523438 14.613281 C 818.609375 15 791.695312 14.457031 764.796875 14.882812 M 618.816406 19.75 C 618.851562 83.3125 618.816406 146.878906 618.835938 210.445312 C 648.785156 210.386719 678.753906 210.542969 708.703125 210.367188 C 726.421875 209.378906 744.835938 207.539062 760.746094 198.777344 C 774.484375 190.949219 786.753906 179.765625 794.390625 165.503906 C 802.304688 151.183594 804.925781 134.476562 805.511719 118.238281 C 806.226562 90.542969 796.539062 61.589844 775.824219 43.160156 C 757.050781 26.976562 732.152344 20.738281 708.101562 20.117188 C 678.359375 19.359375 648.578125 19.921875 618.816406 19.75 M 618.835938 227.558594 C 618.816406 298.199219 618.835938 368.835938 618.835938 439.476562 C 652.535156 439.457031 686.238281 439.554688 719.957031 439.417969 C 736.5625 439.398438 753.128906 436.761719 769.039062 431.9375 C 795.632812 422.925781 818.15625 401.085938 826.941406 373.527344 C 836.101562 344.339844 834.800781 311.105469 820.816406 283.722656 C 808.714844 259.765625 786.679688 241.859375 761.6875 234.011719 C 746.515625 228.527344 730.265625 227.964844 714.359375 227.578125 C 682.523438 227.539062 650.6875 227.597656 618.835938 227.558594 M 18.074219 825.792969 C 87.851562 825.792969 157.667969 826.007812 227.445312 825.699219 C 227.351562 717.285156 227.632812 608.875 227.3125 500.484375 C 157.253906 608.703125 87.757812 717.324219 18.074219 825.792969 Z M 18.074219 825.792969"/><path style="stroke:none;fill-rule:nonzero;fill:#ef91b1;fill-opacity:1" d="M 401.246094 474.632812 C 419.398438 468.292969 439.246094 467.828125 457.960938 471.550781 C 491.042969 478.664062 520.3125 502.945312 533.222656 535.15625 C 542.515625 557.847656 543.894531 583.992188 536.203125 607.382812 C 527.097656 636.589844 505.195312 660.8125 478.335938 673.757812 C 493.453125 680.328125 508.644531 687.539062 521.160156 698.757812 C 550.773438 723.875 569.074219 762.847656 568.867188 802.402344 C 569.394531 855.871094 535.9375 907.636719 487.929688 928.140625 C 452.875 943.664062 411.5 942.867188 377.027344 926.046875 C 330.679688 904.089844 299.578125 852.789062 300.445312 800.386719 C 301.199219 770.929688 311.507812 741.761719 329.414062 718.757812 C 345.359375 697.984375 367.488281 682.382812 391.917969 674.167969 C 368.5625 663.023438 348.886719 643.664062 337.972656 619.574219 C 325.042969 591.800781 325.136719 557.867188 338.746094 530.367188 C 351.316406 504.226562 374.367188 483.816406 401.246094 474.632812 M 415.457031 487.519531 C 380.15625 494.882812 351.28125 526.898438 347.472656 563.816406 C 343.949219 588.253906 350.921875 614.070312 366.265625 633.0625 C 382.871094 654.03125 409.105469 666.414062 435.363281 665.851562 C 461.054688 666.027344 486.613281 653.855469 502.898438 633.371094 C 520.371094 611.761719 527.136719 581.414062 520.351562 554.167969 C 515.601562 533.3125 503.21875 514.457031 486.199219 502.113281 C 466.03125 487.265625 439.621094 481.996094 415.457031 487.519531 M 413.628906 685.367188 C 370.808594 692.734375 333.882812 727.25 322.855469 770.464844 C 315.054688 800.503906 318.050781 833.933594 333.054688 861.183594 C 347.265625 887.945312 372.050781 908.390625 400.457031 917.054688 C 429.273438 925.910156 461.46875 923.3125 488.269531 909.070312 C 511.285156 897.054688 530 876.6875 540.632812 852.519531 C 550.453125 829.652344 553.636719 803.625 548.585938 779.089844 C 542.628906 746.609375 522.613281 717.210938 494.925781 700.386719 C 470.742188 685.640625 441.300781 679.921875 413.628906 685.367188 Z M 413.628906 685.367188"/><path style="stroke:none;fill-rule:nonzero;fill:#ef91b1;fill-opacity:1" d="M 598.308594 992.886719 C 611.425781 983.546875 628.238281 982.113281 643.695312 983.777344 C 654.289062 985.019531 664.804688 987.636719 674.269531 992.828125 C 672.648438 997.886719 670.96875 1002.945312 669.179688 1007.964844 C 651.386719 1000.175781 629.785156 994.824219 611.765625 1004.785156 C 596.933594 1012.558594 593.917969 1034.671875 603.679688 1047.75 C 610.523438 1056.878906 621.191406 1061.628906 631.160156 1066.183594 C 644.828125 1072.808594 659.867188 1078.238281 670.308594 1090 C 682.410156 1103.488281 683.957031 1123.835938 679.847656 1140.949219 C 675.757812 1157.441406 660.621094 1168.082031 645.070312 1171.296875 C 622.378906 1175.871094 597.800781 1173.082031 577.367188 1161.609375 C 579.0625 1156.570312 580.683594 1151.511719 582.191406 1146.414062 C 598.496094 1154.921875 617.023438 1158.972656 635.234375 1156.203125 C 644.375 1155.15625 654.003906 1151.335938 659.285156 1143.160156 C 666.050781 1131.9375 665.429688 1116.78125 658.304688 1105.890625 C 641.980469 1083.292969 609.898438 1084.535156 591.75 1064.128906 C 583.984375 1055.929688 580.214844 1044.300781 580.910156 1032.945312 C 579.949219 1017.808594 585.792969 1001.570312 598.308594 992.886719 Z M 598.308594 992.886719"/><path style="stroke:none;fill-rule:nonzero;fill:#ef91b1;fill-opacity:1" d="M 707.515625 1169.378906 C 707.421875 1108.722656 707.289062 1048.082031 707.59375 987.441406 C 713.097656 987.441406 718.597656 987.5 724.101562 987.5 C 724.140625 1013.742188 723.972656 1039.980469 724.199219 1066.222656 C 753.167969 1066.203125 782.136719 1066.222656 811.109375 1066.222656 C 811.296875 1039.960938 810.9375 1013.703125 811.277344 987.441406 C 816.78125 987.441406 822.304688 987.5 827.808594 987.558594 C 827.789062 1048.121094 827.828125 1108.683594 827.789062 1169.246094 C 822.265625 1169.300781 816.761719 1169.359375 811.238281 1169.359375 C 811.03125 1140.40625 811.203125 1111.453125 811.164062 1082.5 C 782.136719 1082.363281 753.128906 1082.421875 724.121094 1082.460938 C 724.046875 1111.394531 724.121094 1140.328125 724.101562 1169.28125 C 718.5625 1169.300781 713.039062 1169.359375 707.515625 1169.378906 Z M 707.515625 1169.378906"/><path style="stroke:none;fill-rule:nonzero;fill:#ef91b1;fill-opacity:1" d="M 150.203125 1032.402344 C 166 1029.128906 184.488281 1031.976562 195.421875 1045.195312 C 208.992188 1061.648438 210.125 1084.710938 209.878906 1105.308594 C 181.550781 1105.425781 153.21875 1105.25 124.910156 1105.386719 C 125.324219 1118.585938 127.886719 1132.402344 136.066406 1143.003906 C 141.742188 1150.15625 150.261719 1154.574219 159.082031 1155.871094 C 172.445312 1157.304688 186.316406 1156.726562 198.890625 1151.375 C 199.886719 1156.394531 200.566406 1161.492188 200.699219 1166.648438 C 180.304688 1173.683594 156.554688 1176.144531 136.953125 1165.328125 C 120.800781 1156.589844 112.128906 1138.273438 109.527344 1120.367188 C 106.910156 1099.710938 107.777344 1077.558594 117.726562 1058.914062 C 124.269531 1045.890625 136.199219 1035.660156 150.203125 1032.402344 M 143.003906 1052.015625 C 130.902344 1060.988281 125.984375 1076.898438 125.265625 1091.628906 C 147.921875 1091.648438 170.558594 1091.667969 193.214844 1091.609375 C 193.761719 1078.253906 191.011719 1063.488281 181.171875 1053.992188 C 171.199219 1043.757812 154.050781 1043.390625 143.003906 1052.015625 Z M 143.003906 1052.015625"/><path style="stroke:none;fill-rule:nonzero;fill:#ef91b1;fill-opacity:1" d="M 239.566406 1035.582031 C 253.023438 1031.511719 267.195312 1030.542969 281.125 1031.707031 C 291.738281 1032.734375 302.460938 1038.0625 308.25 1047.539062 C 314.523438 1057.480469 315.808594 1069.75 315.863281 1081.316406 C 315.863281 1109.980469 315.882812 1138.664062 315.863281 1167.324219 C 297.523438 1170.773438 278.808594 1173.371094 260.148438 1171.628906 C 250.515625 1170.136719 240.375 1166.570312 234.042969 1158.566406 C 225.898438 1147.867188 224.691406 1133.179688 226.953125 1120.234375 C 228.820312 1109.515625 236.152344 1100.25 245.804688 1095.871094 C 262.957031 1087.675781 282.933594 1089.050781 300.691406 1094.320312 C 300.765625 1083.253906 301.292969 1071.570312 296.394531 1061.394531 C 292.980469 1054.089844 286.101562 1048.855469 278.449219 1047.210938 C 265.800781 1044.300781 252.945312 1047.65625 240.527344 1050.15625 C 240.109375 1045.289062 239.789062 1040.445312 239.566406 1035.582031 M 254.53125 1108.507812 C 236.773438 1116.898438 237.90625 1148.003906 256.492188 1154.59375 C 270.738281 1159.320312 286.289062 1157.886719 300.746094 1154.882812 C 300.519531 1139.261719 300.972656 1123.664062 300.519531 1108.0625 C 286.046875 1102.34375 268.722656 1101.609375 254.53125 1108.507812 Z M 254.53125 1108.507812"/><path style="stroke:none;fill-rule:nonzero;fill:#ef91b1;fill-opacity:1" d="M 345.664062 1037.90625 C 363.511719 1032.828125 382.246094 1030.425781 400.738281 1032.265625 C 410.3125 1033.179688 418.417969 1039.1875 424.242188 1046.746094 C 436.699219 1037.324219 451.796875 1030.542969 467.539062 1031.6875 C 479.054688 1031.726562 491.417969 1036.027344 498.015625 1046.277344 C 506.328125 1058.835938 506.496094 1074.535156 507.457031 1089.128906 C 507.421875 1115.832031 507.457031 1142.539062 507.457031 1169.246094 C 502.144531 1169.339844 496.828125 1169.339844 491.53125 1169.28125 C 491.324219 1141.335938 491.984375 1113.371094 491.097656 1085.425781 C 490.570312 1073.585938 488.78125 1059.824219 478.902344 1052.152344 C 469.894531 1045.738281 457.980469 1046.648438 447.839844 1049.109375 C 441.621094 1051.316406 434.195312 1053.683594 430.59375 1059.691406 C 432.742188 1070.019531 434.402344 1080.484375 434.34375 1091.085938 C 434.382812 1117.152344 434.363281 1143.21875 434.34375 1169.28125 C 428.972656 1169.339844 423.582031 1169.320312 418.210938 1169.261719 C 418.511719 1143.855469 418.457031 1118.46875 418.285156 1093.0625 C 417.851562 1080.308594 417.609375 1066.125 409.464844 1055.699219 C 403.941406 1048.875 394.78125 1046.976562 386.546875 1047.324219 C 377.929688 1047.808594 369.1875 1048.46875 360.949219 1051.335938 C 361.308594 1090.679688 361.101562 1130.019531 361.0625 1169.339844 C 355.933594 1169.320312 350.808594 1169.320312 345.699219 1169.339844 C 345.605469 1125.523438 345.683594 1081.707031 345.664062 1037.90625 Z M 345.664062 1037.90625"/><path style="stroke:none;fill-rule:nonzero;fill:#fff;fill-opacity:1" d="M 14.796875 14.804688 C 80.257812 14.671875 145.699219 14.710938 211.140625 14.804688 C 150.921875 110.679688 90.207031 206.242188 29.816406 302.015625 C 24.804688 309.730469 20.148438 317.695312 14.871094 325.234375 C 14.683594 221.761719 14.816406 118.273438 14.796875 14.804688 Z M 14.796875 14.804688"/><path style="stroke:none;fill-rule:nonzero;fill:#fff;fill-opacity:1" d="M 243.882812 456.589844 C 243.804688 309.300781 243.730469 161.996094 243.917969 14.710938 C 265.746094 14.863281 287.554688 14.515625 309.378906 14.882812 C 309.453125 162.152344 309.285156 309.417969 309.417969 456.667969 C 315.335938 456.726562 321.253906 456.726562 327.152344 456.6875 C 327.265625 381.898438 327.097656 307.09375 327.246094 232.304688 C 402.019531 306.78125 476.074219 382.074219 550.734375 456.707031 C 558.839844 456.667969 566.945312 456.820312 575.050781 456.53125 C 500.351562 380.949219 425.675781 305.347656 350.902344 229.863281 C 399.496094 174.960938 448.953125 120.851562 497.769531 66.164062 C 513.472656 49.148438 528.570312 31.550781 544.421875 14.671875 C 563.023438 14.863281 581.609375 14.632812 600.210938 14.765625 C 600.304688 162.074219 600.230469 309.359375 600.269531 456.648438 C 640.171875 456.648438 680.09375 456.859375 720.011719 456.550781 C 739.652344 456.394531 759.3125 453.351562 778.085938 447.460938 C 803.359375 437.925781 825.546875 418.933594 837.910156 394.167969 C 841.019531 388.042969 843.167969 381.453125 845.675781 375.058594 C 845.996094 644.75 845.636719 914.4375 845.847656 1184.128906 C 746.097656 1184.84375 646.296875 1184.226562 546.53125 1184.4375 C 373.746094 1184.457031 200.980469 1184.398438 28.199219 1184.457031 C 23.976562 1184.261719 19.546875 1185.097656 15.476562 1183.757812 C 14.417969 1180.792969 14.832031 1177.558594 14.71875 1174.496094 C 14.910156 1117.75 14.644531 1061.027344 14.851562 1004.28125 C 31.777344 1004.167969 48.703125 1004.246094 65.628906 1004.226562 C 65.742188 1059.246094 65.761719 1114.246094 65.628906 1169.261719 C 71.097656 1169.261719 76.582031 1169.320312 82.046875 1169.476562 C 82.726562 1114.417969 82.121094 1059.339844 82.347656 1004.28125 C 99.671875 1004.167969 117.011719 1004.28125 134.351562 1004.246094 C 134.445312 998.644531 134.484375 993.0625 134.445312 987.480469 C 94.636719 987.539062 54.832031 987.5 15.023438 987.5 C 14.609375 939.359375 14.664062 891.183594 15.003906 843.042969 C 62.726562 842.265625 110.488281 842.925781 158.253906 842.714844 C 181.304688 842.90625 204.375 842.304688 227.425781 843.003906 C 227.484375 872.421875 227.40625 901.820312 227.464844 931.242188 C 233.515625 931.277344 239.546875 931.242188 245.578125 931.183594 C 245.632812 901.761719 245.558594 872.363281 245.613281 842.964844 C 260.503906 842.421875 275.414062 842.789062 290.304688 842.769531 C 290.925781 837.191406 290.738281 831.589844 290.605469 825.988281 C 275.601562 825.542969 260.597656 826.164062 245.597656 825.679688 C 245.652344 709.59375 245.484375 593.527344 245.691406 477.460938 C 237.339844 477.054688 228.972656 477.265625 220.621094 477.230469 C 151.917969 583.835938 83.820312 690.871094 14.910156 797.324219 C 14.589844 652.945312 14.929688 508.566406 14.738281 364.207031 C 13.910156 357.230469 19.300781 352.191406 22.429688 346.628906 C 90.113281 239.417969 157.949219 132.304688 225.523438 25.019531 C 225.765625 133.816406 225.578125 242.597656 225.617188 351.394531 C 194.609375 351.53125 163.585938 351.375 132.582031 351.453125 C 132.484375 357.285156 132.390625 363.121094 132.996094 368.933594 C 163.867188 368.429688 194.761719 368.816406 225.636719 368.722656 C 225.878906 398.082031 225.109375 427.5 226.011719 456.839844 C 231.96875 456.6875 237.925781 456.707031 243.882812 456.589844 M 401.246094 474.632812 C 374.367188 483.816406 351.316406 504.226562 338.746094 530.367188 C 325.136719 557.867188 325.042969 591.800781 337.972656 619.574219 C 348.886719 643.664062 368.5625 663.023438 391.917969 674.167969 C 367.488281 682.382812 345.359375 697.984375 329.414062 718.757812 C 311.507812 741.761719 301.199219 770.929688 300.445312 800.386719 C 299.578125 852.789062 330.679688 904.089844 377.027344 926.046875 C 411.5 942.867188 452.875 943.664062 487.929688 928.140625 C 535.9375 907.636719 569.394531 855.871094 568.867188 802.402344 C 569.074219 762.847656 550.773438 723.875 521.160156 698.757812 C 508.644531 687.539062 493.453125 680.328125 478.335938 673.757812 C 505.195312 660.8125 527.097656 636.589844 536.203125 607.382812 C 543.894531 583.992188 542.515625 557.847656 533.222656 535.15625 C 520.3125 502.945312 491.042969 478.664062 457.960938 471.550781 C 439.246094 467.828125 419.398438 468.292969 401.246094 474.632812 M 598.308594 992.886719 C 585.792969 1001.570312 579.949219 1017.808594 580.910156 1032.945312 C 580.214844 1044.300781 583.984375 1055.929688 591.75 1064.128906 C 609.898438 1084.535156 641.980469 1083.292969 658.304688 1105.890625 C 665.429688 1116.78125 666.050781 1131.9375 659.285156 1143.160156 C 654.003906 1151.335938 644.375 1155.15625 635.234375 1156.203125 C 617.023438 1158.972656 598.496094 1154.921875 582.191406 1146.414062 C 580.683594 1151.511719 579.0625 1156.570312 577.367188 1161.609375 C 597.800781 1173.082031 622.378906 1175.871094 645.070312 1171.296875 C 660.621094 1168.082031 675.757812 1157.441406 679.847656 1140.949219 C 683.957031 1123.835938 682.410156 1103.488281 670.308594 1090 C 659.867188 1078.238281 644.828125 1072.808594 631.160156 1066.183594 C 621.191406 1061.628906 610.523438 1056.878906 603.679688 1047.75 C 593.917969 1034.671875 596.933594 1012.558594 611.765625 1004.785156 C 629.785156 994.824219 651.386719 1000.175781 669.179688 1007.964844 C 670.96875 1002.945312 672.648438 997.886719 674.269531 992.828125 C 664.804688 987.636719 654.289062 985.019531 643.695312 983.777344 C 628.238281 982.113281 611.425781 983.546875 598.308594 992.886719 M 707.515625 1169.378906 C 713.039062 1169.359375 718.5625 1169.300781 724.101562 1169.28125 C 724.121094 1140.328125 724.046875 1111.394531 724.121094 1082.460938 C 753.128906 1082.421875 782.136719 1082.363281 811.164062 1082.5 C 811.203125 1111.453125 811.03125 1140.40625 811.238281 1169.359375 C 816.761719 1169.359375 822.265625 1169.300781 827.789062 1169.246094 C 827.828125 1108.683594 827.789062 1048.121094 827.808594 987.558594 C 822.304688 987.5 816.78125 987.441406 811.277344 987.441406 C 810.9375 1013.703125 811.296875 1039.960938 811.109375 1066.222656 C 782.136719 1066.222656 753.167969 1066.203125 724.199219 1066.222656 C 723.972656 1039.980469 724.140625 1013.742188 724.101562 987.5 C 718.597656 987.5 713.097656 987.441406 707.59375 987.441406 C 707.289062 1048.082031 707.421875 1108.722656 707.515625 1169.378906 M 150.203125 1032.402344 C 136.199219 1035.660156 124.269531 1045.890625 117.726562 1058.914062 C 107.777344 1077.558594 106.910156 1099.710938 109.527344 1120.367188 C 112.128906 1138.273438 120.800781 1156.589844 136.953125 1165.328125 C 156.554688 1176.144531 180.304688 1173.683594 200.699219 1166.648438 C 200.566406 1161.492188 199.886719 1156.394531 198.890625 1151.375 C 186.316406 1156.726562 172.445312 1157.304688 159.082031 1155.871094 C 150.261719 1154.574219 141.742188 1150.15625 136.066406 1143.003906 C 127.886719 1132.402344 125.324219 1118.585938 124.910156 1105.386719 C 153.21875 1105.25 181.550781 1105.425781 209.878906 1105.308594 C 210.125 1084.710938 208.992188 1061.648438 195.421875 1045.195312 C 184.488281 1031.976562 166 1029.128906 150.203125 1032.402344 M 239.566406 1035.582031 C 239.789062 1040.445312 240.109375 1045.289062 240.527344 1050.15625 C 252.945312 1047.65625 265.800781 1044.300781 278.449219 1047.210938 C 286.101562 1048.855469 292.980469 1054.089844 296.394531 1061.394531 C 301.292969 1071.570312 300.765625 1083.253906 300.691406 1094.320312 C 282.933594 1089.050781 262.957031 1087.675781 245.804688 1095.871094 C 236.152344 1100.25 228.820312 1109.515625 226.953125 1120.234375 C 224.691406 1133.179688 225.898438 1147.867188 234.042969 1158.566406 C 240.375 1166.570312 250.515625 1170.136719 260.148438 1171.628906 C 278.808594 1173.371094 297.523438 1170.773438 315.863281 1167.324219 C 315.882812 1138.664062 315.863281 1109.980469 315.863281 1081.316406 C 315.808594 1069.75 314.523438 1057.480469 308.25 1047.539062 C 302.460938 1038.0625 291.738281 1032.734375 281.125 1031.707031 C 267.195312 1030.542969 253.023438 1031.511719 239.566406 1035.582031 M 345.664062 1037.90625 C 345.683594 1081.707031 345.605469 1125.523438 345.699219 1169.339844 C 350.808594 1169.320312 355.933594 1169.320312 361.0625 1169.339844 C 361.101562 1130.019531 361.308594 1090.679688 360.949219 1051.335938 C 369.1875 1048.46875 377.929688 1047.808594 386.546875 1047.324219 C 394.78125 1046.976562 403.941406 1048.875 409.464844 1055.699219 C 417.609375 1066.125 417.851562 1080.308594 418.285156 1093.0625 C 418.457031 1118.46875 418.511719 1143.855469 418.210938 1169.261719 C 423.582031 1169.320312 428.972656 1169.339844 434.34375 1169.28125 C 434.363281 1143.21875 434.382812 1117.152344 434.34375 1091.085938 C 434.402344 1080.484375 432.742188 1070.019531 430.59375 1059.691406 C 434.195312 1053.683594 441.621094 1051.316406 447.839844 1049.109375 C 457.980469 1046.648438 469.894531 1045.738281 478.902344 1052.152344 C 488.78125 1059.824219 490.570312 1073.585938 491.097656 1085.425781 C 491.984375 1113.371094 491.324219 1141.335938 491.53125 1169.28125 C 496.828125 1169.339844 502.144531 1169.339844 507.457031 1169.246094 C 507.457031 1142.539062 507.421875 1115.832031 507.457031 1089.128906 C 506.496094 1074.535156 506.328125 1058.835938 498.015625 1046.277344 C 491.417969 1036.027344 479.054688 1031.726562 467.539062 1031.6875 C 451.796875 1030.542969 436.699219 1037.324219 424.242188 1046.746094 C 418.417969 1039.1875 410.3125 1033.179688 400.738281 1032.265625 C 382.246094 1030.425781 363.511719 1032.828125 345.664062 1037.90625 Z M 345.664062 1037.90625"/><path style="stroke:none;fill-rule:nonzero;fill:#fff;fill-opacity:1" d="M 327.210938 14.765625 C 392.03125 14.710938 456.867188 14.730469 521.707031 14.75 C 467.253906 75.195312 412.519531 135.386719 358.007812 195.792969 C 347.566406 206.800781 338.011719 218.644531 327.265625 229.339844 C 327.097656 157.828125 327.230469 86.296875 327.210938 14.765625 Z M 327.210938 14.765625"/><path style="stroke:none;fill-rule:nonzero;fill:#fff;fill-opacity:1" d="M 764.796875 14.882812 C 791.695312 14.457031 818.609375 15 845.523438 14.613281 C 846.054688 109.207031 845.828125 203.816406 845.636719 298.410156 C 841.019531 285.464844 835.875 272.519531 827.789062 261.394531 C 814.125 241.839844 794.050781 227.65625 772.074219 219.730469 C 768.90625 218.546875 765.496094 217.75 762.894531 215.425781 C 780.046875 206.820312 795.972656 194.824219 807.035156 178.644531 C 821.964844 156.257812 825.808594 127.789062 822.925781 101.296875 C 820.324219 74.921875 809.335938 48.722656 789.355469 31.414062 C 782.007812 24.652344 773.109375 20.175781 764.796875 14.882812 Z M 764.796875 14.882812"/><path style="stroke:none;fill-rule:nonzero;fill:#fff;fill-opacity:1" d="M 618.816406 19.75 C 648.578125 19.921875 678.359375 19.359375 708.101562 20.117188 C 732.152344 20.738281 757.050781 26.976562 775.824219 43.160156 C 796.539062 61.589844 806.226562 90.542969 805.511719 118.238281 C 804.925781 134.476562 802.304688 151.183594 794.390625 165.503906 C 786.753906 179.765625 774.484375 190.949219 760.746094 198.777344 C 744.835938 207.539062 726.421875 209.378906 708.703125 210.367188 C 678.753906 210.542969 648.785156 210.386719 618.835938 210.445312 C 618.816406 146.878906 618.851562 83.3125 618.816406 19.75 Z M 618.816406 19.75"/><path style="stroke:none;fill-rule:nonzero;fill:#fff;fill-opacity:1" d="M 618.835938 227.558594 C 650.6875 227.597656 682.523438 227.539062 714.359375 227.578125 C 730.265625 227.964844 746.515625 228.527344 761.6875 234.011719 C 786.679688 241.859375 808.714844 259.765625 820.816406 283.722656 C 834.800781 311.105469 836.101562 344.339844 826.941406 373.527344 C 818.15625 401.085938 795.632812 422.925781 769.039062 431.9375 C 753.128906 436.761719 736.5625 439.398438 719.957031 439.417969 C 686.238281 439.554688 652.535156 439.457031 618.835938 439.476562 C 618.835938 368.835938 618.816406 298.199219 618.835938 227.558594 Z M 618.835938 227.558594"/><path style="stroke:none;fill-rule:nonzero;fill:#fff;fill-opacity:1" d="M 415.457031 487.519531 C 439.621094 481.996094 466.03125 487.265625 486.199219 502.113281 C 503.21875 514.457031 515.601562 533.3125 520.351562 554.167969 C 527.136719 581.414062 520.371094 611.761719 502.898438 633.371094 C 486.613281 653.855469 461.054688 666.027344 435.363281 665.851562 C 409.105469 666.414062 382.871094 654.03125 366.265625 633.0625 C 350.921875 614.070312 343.949219 588.253906 347.472656 563.816406 C 351.28125 526.898438 380.15625 494.882812 415.457031 487.519531 Z M 415.457031 487.519531"/><path style="stroke:none;fill-rule:nonzero;fill:#fff;fill-opacity:1" d="M 18.074219 825.792969 C 87.757812 717.324219 157.253906 608.703125 227.3125 500.484375 C 227.632812 608.875 227.351562 717.285156 227.445312 825.699219 C 157.667969 826.007812 87.851562 825.792969 18.074219 825.792969 Z M 18.074219 825.792969"/><path style="stroke:none;fill-rule:nonzero;fill:#fff;fill-opacity:1" d="M 413.628906 685.367188 C 441.300781 679.921875 470.742188 685.640625 494.925781 700.386719 C 522.613281 717.210938 542.628906 746.609375 548.585938 779.089844 C 553.636719 803.625 550.453125 829.652344 540.632812 852.519531 C 530 876.6875 511.285156 897.054688 488.269531 909.070312 C 461.46875 923.3125 429.273438 925.910156 400.457031 917.054688 C 372.050781 908.390625 347.265625 887.945312 333.054688 861.183594 C 318.050781 833.933594 315.054688 800.503906 322.855469 770.464844 C 333.882812 727.25 370.808594 692.734375 413.628906 685.367188 Z M 413.628906 685.367188"/><path style="stroke:none;fill-rule:nonzero;fill:#fff;fill-opacity:1" d="M 143.003906 1052.015625 C 154.050781 1043.390625 171.199219 1043.757812 181.171875 1053.992188 C 191.011719 1063.488281 193.761719 1078.253906 193.214844 1091.609375 C 170.558594 1091.667969 147.921875 1091.648438 125.265625 1091.628906 C 125.984375 1076.898438 130.902344 1060.988281 143.003906 1052.015625 Z M 143.003906 1052.015625"/><path style="stroke:none;fill-rule:nonzero;fill:#fff;fill-opacity:1" d="M 254.53125 1108.507812 C 268.722656 1101.609375 286.046875 1102.34375 300.519531 1108.0625 C 300.972656 1123.664062 300.519531 1139.261719 300.746094 1154.882812 C 286.289062 1157.886719 270.738281 1159.320312 256.492188 1154.59375 C 237.90625 1148.003906 236.773438 1116.898438 254.53125 1108.507812 Z M 254.53125 1108.507812"/></g></svg>