<?xml version="1.0" encoding="UTF-8"?>
<svg xmlns="http://www.w3.org/2000/svg" xmlns:xlink="http://www.w3.org/1999/xlink" width="1000pt" height="1400pt" viewBox="0 0 1000 1400" version="1.1">
<defs>
<linearGradient id="linear0" gradientUnits="userSpaceOnUse" x1="676.4152" y1="-633.3068" x2="676.4152" y2="1577.4686" gradientTransform="matrix(0.6339,0,0,-0.6333,71.2008,998.9509)">
<stop offset="0" style="stop-color:rgb(100%,43.921569%,10.980392%);stop-opacity:1;"/>
<stop offset="0.3" style="stop-color:rgb(100%,81.176471%,0%);stop-opacity:1;"/>
<stop offset="0.72" style="stop-color:rgb(100%,81.176471%,0%);stop-opacity:1;"/>
<stop offset="1" style="stop-color:rgb(100%,43.921569%,10.980392%);stop-opacity:1;"/>
</linearGradient>
</defs>
<g id="surface1">
<rect x="0" y="0" width="1000" height="1400" style="fill:url(#linear0);stroke:none;"/>
<path style=" stroke:none;fill-rule:nonzero;fill:rgb(100%,100%,100%);fill-opacity:1;" d="M 258.300781 406.5 L 96.300781 406.5 L 96.300781 425.898438 L 258.300781 425.898438 L 258.300781 527.398438 L 279.398438 527.398438 L 279.398438 0 L 252.5 0 L 0 386.300781 L 0 424 L 258.300781 28.699219 Z M 258.300781 406.5 "/>
<path style=" stroke:none;fill-rule:nonzero;fill:rgb(100%,100%,100%);fill-opacity:1;" d="M 409.5 263 L 651.300781 0.699219 L 625.601562 0.699219 L 381.699219 263.699219 L 381.699219 0.699219 L 360.300781 0.699219 L 360.300781 527.398438 L 381.699219 527.398438 L 381.699219 265.101562 L 648.898438 527.300781 L 677.398438 527.300781 Z M 409.5 263 "/>
<path style=" stroke:none;fill-rule:nonzero;fill:rgb(100%,100%,100%);fill-opacity:1;" d="M 353.601562 921.800781 C 355.699219 1009.601562 425 1079 512.5 1079 C 600.101562 1079 669.398438 1009.601562 671.5 921.800781 C 670.199219 851 624.898438 792.800781 562 773 C 606.5 753.898438 638.300781 708.601562 638.300781 659.699219 C 638.300781 591 581.800781 536.5 512.601562 536.5 C 443.398438 536.5 386.898438 593.898438 386.898438 659 L 386.898438 659.699219 C 386.898438 708.601562 418.699219 753.898438 463.199219 773 C 399.5 793.601562 355 851.699219 353.601562 921.800781 Z M 408 660.5 L 408 659.800781 C 408 601 453.898438 555 512.601562 555 C 571.300781 555 617.199219 601 617.199219 659.800781 C 617.199219 717.898438 571.300781 764 512.601562 764 C 453.898438 763.898438 408 717.898438 408 660.5 Z M 512.5 783.699219 C 589.601562 783.699219 650.300781 844.601562 650.300781 921.800781 C 650.300781 999 589.601562 1059.898438 512.5 1059.898438 C 435.5 1059.898438 374.800781 998.898438 374.800781 922.398438 L 374.800781 921.699219 C 374.800781 844.601562 435.5 783.699219 512.5 783.699219 Z M 512.5 783.699219 "/>
<path style=" stroke:none;fill-rule:nonzero;fill:rgb(100%,100%,100%);fill-opacity:1;" d="M 829.601562 527.601562 C 863.199219 527.601562 891 523.300781 913.898438 515.5 C 958 496.398438 986.5 462.699219 995.199219 413.101562 C 998.199219 396 997.898438 373.898438 995.199219 361.300781 C 987.199219 324 966.800781 269 889.601562 247 C 921.101562 231.199219 964.601562 204 964.601562 131 C 964.601562 91.601562 951 43 902.398438 17.199219 C 889 9.300781 866.101562 1 849.898438 0 L 697.5 0 L 697.5 527.601562 Z M 719 17.199219 L 809.699219 17.199219 C 855.398438 17.898438 874.699219 24.300781 889.699219 32.898438 C 916.800781 45.101562 943.300781 80.199219 943.300781 128.101562 C 943.300781 165.300781 934 201.800781 889.699219 226.898438 C 871.101562 236.898438 846.101562 240.5 814.699219 240.5 L 719 240.5 Z M 719 259.800781 L 814.699219 259.800781 C 857.5 259.800781 876.101562 260.5 904.699219 272.699219 C 948.199219 292 976 333.5 976 386.5 C 975.300781 445.199219 946.101562 479.601562 906.101562 496.800781 C 884.601562 504.699219 858.199219 508.300781 830.398438 508.300781 L 719 508.300781 Z M 719 259.800781 "/>
<path style=" stroke:none;fill-rule:nonzero;fill:rgb(100%,100%,100%);fill-opacity:1;" d="M 258.699219 1068.601562 L 279.898438 1068.601562 L 279.898438 966.601562 L 332.898438 966.601562 L 332.898438 947.5 L 279.898438 947.5 L 279.898438 544.5 L 250.898438 544.5 L 0 925.699219 L 0 966.5 L 258.699219 966.5 Z M 10 947.398438 L 258.699219 569.898438 L 258.699219 947.398438 Z M 10 947.398438 "/>
<path style=" stroke:none;fill-rule:nonzero;fill:rgb(100%,100%,100%);fill-opacity:1;" d="M 831.601562 1165.300781 L 909.800781 1165.300781 C 949.800781 1165.300781 977.300781 1189.898438 977.300781 1232.699219 C 977.300781 1276.199219 950.101562 1301.800781 907.601562 1301.800781 L 850.5 1301.800781 L 850.5 1380 L 831.601562 1380 Z M 850.398438 1283.5 L 909.101562 1283.5 C 944.398438 1283.5 959.101562 1263.800781 959.101562 1233.398438 C 959.101562 1200.898438 940 1184.898438 910.601562 1184.898438 L 850.398438 1184.898438 Z M 850.398438 1283.5 "/>
<path style=" stroke:none;fill-rule:nonzero;fill:rgb(100%,100%,100%);fill-opacity:1;" d="M 803 1165.300781 L 803 1183.601562 L 740.101562 1183.601562 L 740.101562 1380 L 720.800781 1380 L 720.800781 1183.601562 L 658 1183.601562 L 658 1165.300781 Z M 803 1165.300781 "/>
<path style=" stroke:none;fill-rule:nonzero;fill:rgb(100%,100%,100%);fill-opacity:1;" d="M 397 1227.601562 C 402.398438 1226 409.5 1224.101562 418.199219 1222.101562 C 426.898438 1220.101562 438.101562 1219 451.898438 1219 C 470.199219 1219 483.5 1224.800781 491.699219 1236.398438 C 492.601562 1235.601562 494.5 1234.199219 497.199219 1232.300781 C 499.898438 1230.300781 503.300781 1228.398438 507.5 1226.300781 C 511.601562 1224.300781 516.398438 1222.5 521.898438 1221.101562 C 527.398438 1219.699219 533.5 1218.898438 540.300781 1218.898438 C 551.300781 1218.898438 560.199219 1220.699219 567.101562 1224.300781 C 573.898438 1227.898438 579.199219 1232.800781 582.898438 1239.300781 C 586.601562 1245.699219 589.199219 1253.398438 590.5 1262.300781 C 591.800781 1271.300781 592.5 1281 592.5 1291.601562 L 592.5 1379.898438 L 574.300781 1379.898438 L 574.300781 1298 C 574.300781 1287.601562 573.898438 1278.601562 573 1271 C 572.199219 1263.398438 570.5 1257.101562 568 1252.101562 C 565.5 1247.101562 561.898438 1243.300781 557.199219 1240.800781 C 552.5 1238.300781 546.5 1237 539 1237 C 533.398438 1237 528.300781 1237.601562 523.699219 1238.699219 C 519.101562 1239.800781 515.199219 1241.199219 511.800781 1242.800781 C 508.398438 1244.5 505.699219 1246.101562 503.5 1247.699219 C 501.398438 1249.398438 499.800781 1250.601562 498.898438 1251.398438 C 500.601562 1256.699219 501.898438 1262.699219 502.699219 1269.300781 C 503.5 1275.898438 503.898438 1282.898438 503.898438 1290.199219 L 503.898438 1380 L 485.699219 1380 L 485.699219 1298.101562 C 485.699219 1287.699219 485.300781 1278.699219 484.5 1271.101562 C 483.699219 1263.5 481.898438 1257.199219 479.300781 1252.199219 C 476.699219 1247.199219 473 1243.398438 468.199219 1240.898438 C 463.398438 1238.398438 457.101562 1237.101562 449.300781 1237.101562 C 440.5 1237.101562 433.101562 1237.601562 427.101562 1238.601562 C 421 1239.601562 417.101562 1240.5 415.5 1241.300781 L 415.5 1380 L 397.300781 1380 Z M 397 1227.601562 "/>
<path style=" stroke:none;fill-rule:nonzero;fill:rgb(100%,100%,100%);fill-opacity:1;" d="M 308 1216.199219 C 317.800781 1216.199219 326 1217.699219 332.800781 1220.800781 C 339.601562 1223.800781 345.101562 1228 349.300781 1233.398438 C 353.5 1238.699219 356.601562 1245.101562 358.5 1252.398438 C 360.398438 1259.800781 361.398438 1267.699219 361.398438 1276.300781 L 361.398438 1378.699219 C 359.5 1379.300781 356.699219 1380 353.101562 1380.699219 C 349.5 1381.5 345.300781 1382.199219 340.5 1383.101562 C 335.699219 1383.898438 330.398438 1384.601562 324.601562 1385.101562 C 318.800781 1385.601562 312.800781 1385.898438 306.699219 1385.898438 C 298.898438 1385.898438 291.601562 1384.898438 285.101562 1383.101562 C 278.5 1381.199219 272.800781 1378.199219 267.898438 1374.101562 C 263 1370 259.199219 1364.800781 256.5 1358.398438 C 253.699219 1352 252.300781 1344.199219 252.300781 1335 C 252.300781 1326.199219 253.800781 1318.699219 256.898438 1312.398438 C 260 1306.101562 264.300781 1300.898438 269.800781 1296.800781 C 275.300781 1292.699219 281.898438 1289.699219 289.601562 1287.800781 C 297.199219 1285.898438 305.601562 1285 314.5 1285 C 317.199219 1285 320 1285.101562 323 1285.5 C 326 1285.800781 328.800781 1286.199219 331.601562 1286.800781 C 334.398438 1287.300781 336.800781 1287.800781 338.800781 1288.398438 C 340.800781 1288.898438 342.199219 1289.398438 343 1289.800781 L 343 1279.699219 C 343 1274.101562 342.601562 1268.601562 341.800781 1263.199219 C 341 1257.800781 339.398438 1253 336.800781 1248.699219 C 334.199219 1244.398438 330.601562 1241 325.898438 1238.300781 C 321.199219 1235.699219 315 1234.398438 307.398438 1234.398438 C 296.5 1234.398438 288.398438 1235.199219 283 1236.898438 C 277.601562 1238.601562 273.699219 1239.898438 271.199219 1241 L 268.601562 1223.101562 C 271.800781 1221.398438 276.898438 1219.800781 283.699219 1218.398438 C 290.199219 1216.898438 298.398438 1216.199219 308 1216.199219 Z M 309.699219 1367.601562 C 317 1367.601562 323.300781 1367.300781 328.800781 1366.800781 C 334.199219 1366.300781 338.898438 1365.601562 342.699219 1364.800781 L 342.699219 1307.601562 C 340.601562 1306.5 337.300781 1305.398438 332.699219 1304.300781 C 328.101562 1303.199219 321.800781 1302.601562 313.800781 1302.601562 C 309.199219 1302.601562 304.398438 1303 299.5 1303.699219 C 294.5 1304.5 289.898438 1306 285.699219 1308.398438 C 281.5 1310.800781 278.101562 1314.101562 275.398438 1318.300781 C 272.699219 1322.5 271.398438 1328 271.398438 1335 C 271.398438 1341.101562 272.300781 1346.199219 274.101562 1350.398438 C 275.898438 1354.601562 278.5 1357.898438 281.800781 1360.5 C 285.101562 1363 289.199219 1364.898438 293.800781 1366 C 298.5 1367.101562 303.800781 1367.601562 309.699219 1367.601562 Z M 309.699219 1367.601562 "/>
<path style=" stroke:none;fill-rule:nonzero;fill:rgb(100%,100%,100%);fill-opacity:1;" d="M 109.300781 1301.601562 C 109.300781 1287.699219 111.101562 1275.699219 114.800781 1265.398438 C 118.5 1255.101562 123.300781 1246.5 129.300781 1239.601562 C 135.300781 1232.699219 142.101562 1227.5 149.699219 1224.199219 C 157.300781 1220.800781 165.199219 1219.199219 173.398438 1219.199219 C 191.300781 1219.199219 205.699219 1225.5 216.398438 1238.199219 C 227.101562 1250.800781 232.398438 1270.300781 232.398438 1296.601562 C 232.398438 1298.199219 232.300781 1299.800781 232.300781 1301.5 C 232.199219 1303.199219 232.101562 1304.699219 231.898438 1306.101562 L 128.898438 1306.101562 C 129.5 1325.5 133.898438 1340.300781 142.199219 1350.800781 C 150.5 1361.199219 163.699219 1366.398438 181.898438 1366.398438 C 191.898438 1366.398438 199.800781 1365.398438 205.699219 1363.398438 C 211.601562 1361.398438 215.800781 1359.601562 218.5 1358.199219 L 221.898438 1375.300781 C 219.300781 1377 214.300781 1378.898438 207 1381.101562 C 199.699219 1383.300781 191.199219 1384.5 181.300781 1384.5 C 168.398438 1384.5 157.5 1382.5 148.398438 1378.398438 C 139.300781 1374.300781 131.898438 1368.601562 126 1361.300781 C 120.101562 1353.898438 115.898438 1345.300781 113.199219 1335.199219 C 110.699219 1324.699219 109.300781 1313.699219 109.300781 1301.601562 Z M 213.398438 1289.101562 C 213 1272.601562 209.398438 1259.800781 202.601562 1250.601562 C 195.800781 1241.398438 186.101562 1236.800781 173.699219 1236.800781 C 167.101562 1236.800781 161.199219 1238.199219 156 1241.101562 C 150.800781 1244 146.300781 1247.800781 142.398438 1252.601562 C 138.5 1257.398438 135.5 1262.898438 133.300781 1269.300781 C 131.101562 1275.601562 129.898438 1282.199219 129.398438 1289.199219 Z M 213.398438 1289.101562 "/>
<path style=" stroke:none;fill-rule:nonzero;fill:rgb(100%,100%,100%);fill-opacity:1;" d="M 138.300781 1166.699219 L 138.300781 1182.699219 L 75.800781 1182.699219 L 75.800781 1380 L 58.101562 1379.898438 L 58.101562 1182.601562 L 0 1182.601562 L 0 1166.601562 L 138.300781 1166.601562 Z M 138.300781 1166.699219 "/>
</g>
</svg>
