<svg xmlns="http://www.w3.org/2000/svg" xmlns:xlink="http://www.w3.org/1999/xlink" width="1000pt" height="1400pt" version="1.1" viewBox="0 0 1000 1400"><g id="surface1"><path style="stroke:none;fill-rule:nonzero;fill:#c995c1;fill-opacity:1" d="M 0 0 L 22.101562 0 C 22.199219 178.699219 22.101562 357.398438 22.101562 536.101562 C 63.199219 536.199219 104.300781 536.101562 145.398438 536.101562 C 185.199219 536.5 225.898438 536 264.300781 524.300781 C 291.601562 514.398438 317.300781 497.898438 334.5 474 C 334.601562 494.300781 334.5 514.601562 334.5 534.898438 C 342.300781 535 350.199219 535 358 534.898438 C 358.101562 367.601562 358 200.398438 358 33.101562 C 422 147.898438 485.601562 262.800781 549.300781 377.601562 C 578.300781 430 607.5 482.300781 636.398438 534.800781 C 646.199219 535.101562 655.898438 534.898438 665.699219 534.898438 C 665.800781 446.300781 665.601562 357.699219 665.800781 269.101562 C 699.199219 298.101562 732 327.800781 765.101562 357.101562 C 829.898438 414.699219 894.699219 472.199219 959.398438 529.800781 C 961.898438 531.699219 964 535 967.398438 534.699219 C 977.398438 534.699219 987.398438 534.800781 997.300781 534.601562 C 897.699219 445.398438 797.898438 356.5 698.300781 267.300781 C 798 178.101562 897.699219 89.101562 997.300781 0 L 1000 0 L 1000 1400 L 0 1400 L 0 0 M 462.898438 538.800781 C 422.398438 544.300781 385.5 571.101562 367.398438 607.800781 C 355.898438 630.699219 352.101562 657.398438 357.101562 682.601562 C 364.699219 722.101562 392.800781 756.601562 429.398438 773 C 428.699219 773.898438 427.898438 774.5 426.800781 774.800781 C 405.898438 782.101562 386.5 794 370.601562 809.398438 C 342.101562 836.300781 324.800781 874.398438 322.300781 913.5 C 321.300781 925.199219 322.898438 937 324.800781 948.601562 C 311.300781 948.601562 297.800781 948.601562 284.300781 948.601562 C 284.300781 833.101562 284.300781 717.601562 284.300781 602.101562 C 284.101562 583.699219 284.601562 565.199219 284.101562 546.800781 C 274.601562 547 265 547 255.5 546.800781 C 251.601562 551.601562 248.699219 557.101562 245.199219 562.101562 C 164 685.5 82.800781 809 1.699219 932.5 C 0.5 944 1.601562 956 1.199219 967.699219 C 88.5 967.898438 175.898438 967.5 263.199219 967.898438 C 263.199219 1001.699219 262.898438 1035.601562 263.398438 1069.398438 C 270.398438 1069.199219 277.398438 1069.398438 284.398438 1069.300781 C 284.5 1035.5 284.300781 1001.601562 284.5 967.800781 C 299.5 967.800781 314.5 967.800781 329.601562 967.800781 C 339.300781 998.101562 357.898438 1025.601562 383 1045.199219 C 413.800781 1069.699219 454.101562 1081.398438 493.199219 1078.101562 C 533.5 1075.199219 572.300781 1055.898438 598.898438 1025.398438 C 623.5 997.699219 637.699219 961.101562 638.898438 924 C 639.300781 879 619.5 834.199219 585.601562 804.699219 C 569.699219 790.5 550.699219 780.199219 530.699219 773.398438 C 563 759.300781 588.800781 731 599.898438 697.398438 C 607.199219 675.699219 607.699219 651.800781 602 629.699219 C 597.101562 610.601562 587.199219 592.800781 573.898438 578.199219 C 546.101562 547.898438 503.300781 532.898438 462.898438 538.800781 Z M 462.898438 538.800781"/><path style="stroke:none;fill-rule:nonzero;fill:#c995c1;fill-opacity:1" d="M 190.601562 0 L 334.699219 0 C 334.300781 20.699219 334.601562 41.398438 334.5 62 C 317.398438 38.300781 291.898438 21.800781 264.800781 11.800781 C 240.800781 4.300781 215.601562 1.898438 190.601562 0 Z M 190.601562 0"/><path style="stroke:none;fill-rule:nonzero;fill:#c995c1;fill-opacity:1" d="M 365.898438 0 L 641.800781 0 C 641.199219 33.398438 641.699219 66.898438 641.601562 100.300781 C 641.601562 234.199219 641.601562 368 641.601562 501.898438 C 549.601562 334.601562 457.898438 167.199219 365.898438 0 Z M 365.898438 0"/><path style="stroke:none;fill-rule:nonzero;fill:#c995c1;fill-opacity:1" d="M 665.699219 0 L 964.699219 0 C 865.101562 88.601562 765.398438 177.199219 665.699219 265.699219 C 665.699219 177.101562 665.699219 88.601562 665.699219 0 Z M 665.699219 0"/><path style="stroke:none;fill-rule:nonzero;fill:#c995c1;fill-opacity:1" d="M 46.5 18.898438 C 86.398438 18.898438 126.300781 18.898438 166.199219 18.898438 C 195.601562 18.5 225.300781 20.898438 253.5 29.300781 C 277.101562 37.5 299.398438 51.699219 314 72.300781 C 328.699219 92.699219 334.5 118.5 333.300781 143.398438 C 332 169.5 321.101562 195.199219 302.800781 213.898438 C 282.800781 235.300781 255.101562 247.800781 226.800781 253.800781 C 209.898438 257.5 192.601562 257.898438 175.5 258.300781 C 132.5 258.199219 89.5 258.300781 46.5 258.300781 C 46.5 178.601562 46.5 98.800781 46.5 18.898438 Z M 46.5 18.898438"/><path style="stroke:none;fill-rule:nonzero;fill:#c995c1;fill-opacity:1" d="M 308.699219 237.5 C 318.699219 229.5 327.199219 219.800781 334.601562 209.398438 C 334.601562 248.5 334.601562 287.601562 334.601562 326.800781 C 324 311.199219 310.101562 298.101562 294.199219 288.199219 C 280.199219 279.300781 264.800781 273.101562 249.199219 268 C 270.5 261.398438 291.300781 251.800781 308.699219 237.5 Z M 308.699219 237.5"/><path style="stroke:none;fill-rule:nonzero;fill:#c995c1;fill-opacity:1" d="M 46.5 277.398438 C 89.5 277.5 132.5 277.101562 175.5 277.699219 C 196.601562 277.800781 218 279 238.398438 285 C 265.199219 292.398438 290.898438 306.601562 308.601562 328.5 C 323.800781 346.898438 332.601562 370.5 333.398438 394.398438 C 334.300781 418.601562 328.398438 443.601562 314.199219 463.398438 C 299.800781 483.898438 277.800781 498 254.398438 506.398438 C 223.300781 515.898438 190.398438 517.601562 158.101562 517.199219 C 120.898438 517.199219 83.699219 517.199219 46.398438 517.199219 C 46.5 437.199219 46.5 357.300781 46.5 277.398438 Z M 46.5 277.398438"/><path style="stroke:none;fill-rule:nonzero;fill:#c995c1;fill-opacity:1" d="M 466.800781 557.199219 C 487.800781 554.5 509.601562 558.101562 528.398438 567.800781 C 544.5 575.898438 558.300781 588.5 568 603.800781 C 591.101562 639.398438 589.601562 689.398438 563.601562 723.101562 C 550.5 740.601562 531.601562 753.601562 510.699219 759.800781 C 489.5 766.101562 466.398438 765.601562 445.5 758.398438 C 423.300781 750.898438 404 735.398438 391.699219 715.5 C 371 682.5 371.398438 637.699219 392.199219 604.699219 C 408.101562 578.601562 436.5 560.699219 466.800781 557.199219 Z M 466.800781 557.199219"/><path style="stroke:none;fill-rule:nonzero;fill:#c995c1;fill-opacity:1" d="M 239.898438 608.101562 C 247.699219 596.699219 254.800781 584.699219 263 573.5 C 263.199219 698.5 263.101562 823.5 263.101562 948.5 C 180.699219 948.5 98.300781 948.5 15.898438 948.5 C 90.398438 834.898438 165.199219 721.601562 239.898438 608.101562 Z M 239.898438 608.101562"/><path style="stroke:none;fill-rule:nonzero;fill:#c995c1;fill-opacity:1" d="M 469.101562 784.699219 C 494.699219 782.699219 520.898438 787.601562 543.699219 799.5 C 577.398438 816.601562 603.101562 848.800781 612.601562 885.5 C 624 927.601562 614.5 975 586.800781 1008.800781 C 560.199219 1042.300781 517 1061.199219 474.5 1059 C 431.800781 1057.699219 390.398438 1034.898438 366.699219 999.300781 C 339.101562 959.101562 335.898438 903.898438 357.5 860.300781 C 372.5 829.199219 399.898438 804.5 432.199219 792.800781 C 444 788.398438 456.5 785.699219 469.101562 784.699219 Z M 469.101562 784.699219"/><path style="stroke:none;fill-rule:nonzero;fill:#fff;fill-opacity:1" d="M 22.101562 0 L 190.699219 0 C 215.699219 1.898438 240.898438 4.300781 264.898438 11.898438 C 292 21.898438 317.5 38.398438 334.601562 62.101562 C 334.699219 41.398438 334.398438 20.699219 334.800781 0.101562 L 365.898438 0.101562 C 457.898438 167.300781 549.601562 334.699219 641.5 502 C 641.5 368.101562 641.5 234.300781 641.5 100.398438 C 641.699219 67 641.199219 33.5 641.699219 0.101562 L 665.601562 0.101562 C 665.601562 88.699219 665.601562 177.199219 665.601562 265.800781 C 765.398438 177.199219 865.101562 88.601562 964.699219 0 L 997.300781 0 C 897.601562 89.101562 797.898438 178.101562 698.300781 267.199219 C 797.898438 356.398438 897.699219 445.300781 997.300781 534.5 C 987.300781 534.699219 977.300781 534.601562 967.398438 534.601562 C 963.898438 534.898438 961.800781 531.601562 959.398438 529.699219 C 894.601562 472.101562 829.800781 414.601562 765.101562 357 C 732 327.699219 699.199219 298 665.800781 269 C 665.601562 357.601562 665.800781 446.199219 665.699219 534.800781 C 655.898438 534.800781 646.199219 535 636.398438 534.699219 C 607.5 482.199219 578.300781 429.898438 549.300781 377.5 C 485.601562 262.800781 422 147.898438 358.199219 33.101562 C 358.101562 200.398438 358.199219 367.601562 358.199219 534.898438 C 350.398438 534.898438 342.5 535 334.699219 534.898438 C 334.601562 514.601562 334.699219 494.300781 334.699219 474 C 317.5 497.800781 291.800781 514.398438 264.5 524.300781 C 226 535.898438 185.398438 536.5 145.601562 536.101562 C 104.5 536.101562 63.398438 536.101562 22.300781 536.101562 C 22.101562 357.398438 22.101562 178.699219 22.101562 0 M 46.5 18.898438 C 46.398438 98.699219 46.5 178.5 46.5 258.300781 C 89.5 258.398438 132.5 258.300781 175.5 258.300781 C 192.699219 257.898438 210 257.398438 226.800781 253.800781 C 255.101562 247.800781 282.800781 235.300781 302.800781 213.898438 C 321.101562 195.199219 332 169.5 333.300781 143.398438 C 334.601562 118.5 328.699219 92.699219 314 72.300781 C 299.300781 51.699219 277.101562 37.5 253.5 29.300781 C 225.199219 20.898438 195.5 18.5 166.199219 18.898438 C 126.300781 19 86.398438 19 46.5 18.898438 M 308.699219 237.5 C 291.300781 251.800781 270.5 261.398438 249.101562 267.898438 C 264.800781 273 280.199219 279.199219 294.101562 288.101562 C 310.101562 298 324 311.199219 334.5 326.699219 C 334.5 287.601562 334.5 248.5 334.5 209.300781 C 327.300781 219.800781 318.699219 229.5 308.699219 237.5 M 46.5 277.398438 C 46.5 357.300781 46.5 437.199219 46.5 517.101562 C 83.699219 517.101562 120.898438 517.101562 158.199219 517.101562 C 190.5 517.5 223.398438 515.800781 254.5 506.300781 C 277.800781 498 299.800781 483.898438 314.300781 463.300781 C 328.5 443.398438 334.300781 418.5 333.5 394.300781 C 332.699219 370.398438 323.898438 346.800781 308.699219 328.398438 C 291 306.5 265.300781 292.300781 238.5 284.898438 C 218.101562 278.898438 196.699219 277.800781 175.601562 277.601562 C 132.5 277.101562 89.5 277.5 46.5 277.398438 Z M 46.5 277.398438"/><path style="stroke:none;fill-rule:nonzero;fill:#fff;fill-opacity:1" d="M 462.898438 538.800781 C 503.300781 532.898438 546.199219 547.800781 573.699219 578.199219 C 587 592.699219 596.898438 610.5 601.800781 629.699219 C 607.5 651.800781 607 675.699219 599.699219 697.398438 C 588.5 730.898438 562.699219 759.199219 530.5 773.398438 C 550.601562 780.199219 569.601562 790.601562 585.398438 804.699219 C 619.199219 834.199219 639 879 638.699219 924 C 637.5 961.101562 623.300781 997.699219 598.699219 1025.398438 C 572.101562 1055.898438 533.300781 1075.199219 493 1078.101562 C 453.898438 1081.398438 413.699219 1069.601562 382.800781 1045.199219 C 357.800781 1025.601562 339.101562 998.101562 329.398438 967.800781 C 314.398438 967.800781 299.398438 967.800781 284.300781 967.800781 C 284.199219 1001.601562 284.300781 1035.5 284.199219 1069.300781 C 277.199219 1069.398438 270.199219 1069.199219 263.199219 1069.398438 C 262.699219 1035.601562 263 1001.800781 263 967.898438 C 175.699219 967.5 88.300781 967.898438 1 967.699219 C 1.398438 956 0.300781 944 1.5 932.5 C 82.800781 809 164 685.5 245.101562 562.101562 C 248.601562 557.101562 251.601562 551.601562 255.398438 546.800781 C 264.898438 547 274.5 547 284 546.800781 C 284.5 565.199219 284.101562 583.601562 284.199219 602.101562 C 284.199219 717.601562 284.199219 833.101562 284.199219 948.601562 C 297.699219 948.601562 311.199219 948.601562 324.699219 948.601562 C 322.800781 937 321.199219 925.300781 322.199219 913.5 C 324.699219 874.398438 342 836.300781 370.5 809.398438 C 386.5 794 405.800781 782.101562 426.699219 774.800781 C 427.800781 774.5 428.699219 773.898438 429.300781 773 C 392.800781 756.699219 364.601562 722.199219 357 682.601562 C 351.898438 657.398438 355.699219 630.699219 367.300781 607.800781 C 385.5 571.101562 422.398438 544.398438 462.898438 538.800781 M 466.800781 557.199219 C 436.5 560.800781 408.199219 578.601562 392.101562 604.699219 C 371.398438 637.601562 370.898438 682.398438 391.601562 715.5 C 403.898438 735.5 423.300781 750.898438 445.398438 758.398438 C 466.300781 765.601562 489.398438 766.101562 510.601562 759.800781 C 531.5 753.699219 550.398438 740.601562 563.5 723.101562 C 589.398438 689.300781 591 639.398438 567.898438 603.800781 C 558.199219 588.5 544.398438 575.898438 528.300781 567.800781 C 509.601562 558 487.699219 554.5 466.800781 557.199219 M 239.898438 608.101562 C 165.300781 721.601562 90.398438 835 15.898438 948.5 C 98.300781 948.5 180.699219 948.5 263.101562 948.5 C 263.101562 823.5 263.199219 698.5 263 573.5 C 254.800781 584.699219 247.699219 596.601562 239.898438 608.101562 M 469.101562 784.699219 C 456.5 785.699219 444 788.398438 432.101562 792.800781 C 399.800781 804.601562 372.398438 829.300781 357.398438 860.300781 C 335.800781 903.898438 339.101562 959 366.601562 999.300781 C 390.300781 1035 431.699219 1057.699219 474.398438 1059 C 516.898438 1061.199219 560.101562 1042.300781 586.699219 1008.800781 C 614.398438 975 623.898438 927.601562 612.5 885.5 C 603 848.800781 577.300781 816.601562 543.601562 799.5 C 520.898438 787.601562 494.699219 782.699219 469.101562 784.699219 Z M 469.101562 784.699219"/></g></svg>