<svg xmlns="http://www.w3.org/2000/svg" xmlns:xlink="http://www.w3.org/1999/xlink" width="1000pt" height="1400pt" version="1.1" viewBox="0 0 1000 1400"><g id="surface1"><path style="stroke:none;fill-rule:nonzero;fill:#3cc2b1;fill-opacity:1" d="M 0 0 L 126.691406 0 C 109.238281 4.148438 92.425781 11.441406 78.039062 22.238281 C 50.960938 42.332031 33.214844 72.507812 22.027344 103.867188 C 6.867188 146.332031 1.867188 191.625 0 236.453125 L 0 0 M 199.011719 0 L 446.148438 0 C 429.332031 4.148438 413.148438 11.265625 399.28125 21.71875 C 371.921875 42.171875 354.441406 73.027344 343.375 104.828125 C 328.078125 149.480469 323.253906 196.972656 322.054688 243.933594 C 321.28125 291.933594 323.761719 340.359375 334.988281 387.1875 C 342.171875 416.480469 352.988281 445.453125 370.894531 469.972656 C 385.027344 489.441406 404.226562 505.480469 426.652344 514.425781 C 450.90625 524.214844 477.761719 526.238281 503.546875 523.132812 C 525.027344 520.414062 546.011719 512.707031 563.492188 499.800781 C 582.1875 486.160156 596.652344 467.386719 607.238281 446.945312 C 625.707031 410.972656 634.039062 370.773438 638.464844 330.867188 C 639.71875 319.492188 640.507812 308.066406 641.054688 296.640625 C 587.132812 296.625 533.226562 296.625 479.308594 296.652344 C 479.28125 302.960938 479.320312 309.253906 479.28125 315.558594 C 526.519531 315.695312 573.761719 315.546875 621 315.625 C 618.734375 343.28125 614.691406 370.894531 606.867188 397.546875 C 601.535156 415.707031 594.28125 433.425781 584.226562 449.507812 C 573.160156 467.105469 558.105469 482.535156 539.574219 492.214844 C 521.09375 502.105469 499.839844 505.972656 479.011719 505.480469 C 453.375 505.253906 427.386719 497.414062 407.359375 481.078125 C 384.078125 462.425781 369.453125 435.1875 360.105469 407.292969 C 346.347656 365.960938 342.226562 322.132812 340.988281 278.8125 C 340.253906 234.148438 341.945312 189.105469 351.359375 145.308594 C 357.054688 119.332031 365.546875 93.601562 379.746094 70.972656 C 392.160156 51.132812 409.878906 34.1875 431.546875 24.921875 C 455.160156 14.667969 481.878906 13.011719 507.066406 17.292969 C 532.574219 21.695312 556.199219 35.546875 572.625 55.558594 C 588.613281 74.480469 598.851562 97.546875 606.105469 121.054688 C 612.546875 121.054688 619.011719 121.105469 625.464844 120.988281 C 619.574219 100.347656 611.574219 80.171875 600.292969 61.851562 C 590.054688 45.078125 576.640625 30.105469 560.441406 18.878906 C 547.414062 9.851562 532.535156 3.707031 517.160156 0 L 663.375 0 C 664.039062 3.867188 663.652344 7.800781 663.707031 11.707031 C 663.746094 182.507812 663.667969 353.320312 663.746094 524.121094 C 670.238281 524.121094 676.734375 524.132812 683.226562 524.105469 C 683.292969 364.558594 683.160156 205.027344 683.292969 45.480469 C 730.519531 205.171875 777.320312 364.988281 824.585938 524.667969 C 868.574219 375.054688 912.652344 225.464844 956.667969 75.867188 C 959.507812 66.667969 961.878906 57.320312 965.011719 48.199219 C 965.613281 66.734375 965.105469 85.308594 965.28125 103.867188 C 965.28125 243.933594 965.265625 384.011719 965.28125 524.105469 C 971.878906 524.132812 978.480469 524.132812 985.078125 524.105469 C 985.121094 349.398438 985.078125 174.707031 985.09375 -0.0117188 L 1000 -0.0117188 L 1000 1400 L 0 1400 L 0 968.625 C 88.09375 968.640625 176.171875 968.613281 264.265625 968.640625 C 264.292969 1002.761719 264.253906 1036.878906 264.292969 1070.988281 C 271.464844 1071 278.652344 1071 285.828125 1070.988281 C 285.867188 1036.867188 285.8125 1002.746094 285.851562 968.640625 C 303.519531 968.601562 321.199219 968.667969 338.867188 968.613281 C 338.878906 962.199219 338.878906 955.785156 338.867188 949.398438 C 321.199219 949.347656 303.519531 949.398438 285.851562 949.359375 C 285.8125 814.613281 285.894531 679.851562 285.8125 545.121094 C 276.039062 545.078125 266.253906 545.1875 256.480469 545.054688 C 208.679688 617 161.398438 689.308594 113.746094 761.359375 C 75.878906 818.972656 37.8125 876.453125 0 934.121094 L 0 283.988281 C 1.933594 331.359375 7.347656 379.265625 23.894531 423.972656 C 35.375 454.851562 53.121094 484.535156 79.945312 504.398438 C 103.972656 522.546875 134.519531 530.546875 164.347656 529.988281 C 196.535156 530.238281 229.441406 520.414062 254.132812 499.238281 C 282.625 475.265625 299.464844 440.386719 309.613281 405.160156 C 303.027344 405.105469 296.441406 405.09375 289.851562 405.160156 C 280.332031 436 264.839844 466.425781 239.027344 486.695312 C 217.761719 503.667969 190.1875 511.375 163.214844 511.011719 C 136.292969 511.441406 108.878906 503.292969 87.894531 486.09375 C 62.492188 465.625 47.105469 435.453125 37.386719 404.867188 C 23.199219 359.652344 19.625 311.933594 18.960938 264.800781 C 19.027344 224.453125 21.238281 183.839844 30.027344 144.359375 C 35.425781 120.773438 43.039062 97.425781 55.386719 76.492188 C 68.027344 54.800781 86.546875 35.960938 109.707031 25.761719 C 135.105469 14.441406 164.09375 12.695312 191.214844 17.773438 C 218.414062 22.878906 243.171875 38.640625 259.839844 60.667969 C 273.734375 78.535156 283.039062 99.519531 289.761719 121 C 296.359375 121.066406 302.960938 121.039062 309.546875 121.039062 C 298.601562 83.253906 279.773438 45.613281 247.386719 21.867188 C 233.039062 11.214844 216.347656 4.054688 199.011719 0 M 471.894531 541.988281 C 432.800781 554.546875 400.535156 587.039062 389.066406 626.625 C 384.601562 641.640625 383.613281 657.546875 385.253906 673.066406 C 390.359375 716.652344 420.507812 755.867188 460.625 773.160156 C 434.375 781.851562 410.226562 797.199219 391.785156 817.894531 C 365.707031 846.625 351.132812 885.308594 351.078125 924.066406 C 352.105469 957.453125 363.398438 990.558594 383.601562 1017.199219 C 404.945312 1045.734375 436.214844 1066.707031 470.773438 1075.359375 C 513.828125 1086.441406 561.535156 1079.066406 598.652344 1054.359375 C 629.878906 1034.027344 653.28125 1002.199219 663.851562 966.480469 C 669.878906 946.039062 672.507812 924.332031 669.320312 903.160156 C 664.332031 864.585938 644.734375 828.121094 614.972656 803.054688 C 599.375 789.558594 580.867188 779.800781 561.425781 773.09375 C 595.546875 758.226562 622.453125 727.707031 632.773438 691.90625 C 639.425781 669.09375 638.746094 644.347656 631.507812 621.761719 C 624.265625 599.398438 610.414062 579.265625 592.1875 564.492188 C 559.308594 537.265625 512.359375 528.492188 471.894531 541.988281 M 690.945312 0 L 958.132812 0 C 913.507812 154.652344 869.132812 309.359375 824.546875 464.027344 C 780 309.347656 735.546875 154.652344 690.945312 0 M 500.574219 555.027344 C 521.171875 553 542.375 557.066406 560.691406 566.734375 C 582.640625 578.226562 600.066406 598 608.8125 621.1875 C 621.851562 654.945312 616.453125 695.441406 593.867188 723.921875 C 579.492188 742.320312 558.785156 755.613281 536.039062 760.894531 C 513.320312 766.332031 488.867188 764.214844 467.492188 754.734375 C 445.625 745.132812 427.332031 727.71875 416.734375 706.28125 C 399.011719 670.839844 403.519531 625.425781 428.1875 594.359375 C 445.464844 571.90625 472.441406 557.558594 500.574219 555.027344 M 14.839844 949.386719 C 97.851562 823.265625 181.09375 697.320312 264.28125 571.320312 C 264.265625 697.347656 264.28125 823.359375 264.265625 949.375 C 181.132812 949.386719 97.988281 949.347656 14.839844 949.386719 M 494.839844 784.90625 C 520.347656 781.972656 546.652344 786.078125 569.960938 796.921875 C 605.078125 813.027344 632.480469 844.839844 643.332031 881.933594 C 656.105469 924.199219 647.839844 972.492188 620.601562 1007.414062 C 594.972656 1041.238281 552.8125 1061.441406 510.480469 1060.800781 C 468.761719 1061.160156 427.375 1041.265625 401.828125 1008.199219 C 371.933594 970.667969 364.667969 917.265625 381.734375 872.625 C 394.238281 839.105469 420.480469 811 453.105469 796.386719 C 466.28125 790.375 480.453125 786.558594 494.839844 784.90625"/><path style="stroke:none;fill-rule:nonzero;fill:#fff;fill-opacity:1" d="M 126.691406 0 L 199.011719 0 C 216.359375 4.054688 233.039062 11.214844 247.386719 21.867188 C 279.773438 45.625 298.601562 83.253906 309.546875 121.039062 C 302.945312 121.039062 296.347656 121.078125 289.761719 121 C 283.054688 99.507812 273.734375 78.519531 259.839844 60.667969 C 243.171875 38.625 218.414062 22.878906 191.214844 17.773438 C 164.09375 12.695312 135.105469 14.453125 109.707031 25.761719 C 86.535156 35.972656 68.011719 54.8125 55.386719 76.492188 C 43.039062 97.425781 35.425781 120.773438 30.027344 144.359375 C 21.253906 183.851562 19.039062 224.464844 18.960938 264.800781 C 19.625 311.933594 23.199219 359.652344 37.386719 404.867188 C 47.105469 435.453125 62.507812 465.625 87.894531 486.09375 C 108.878906 503.292969 136.292969 511.441406 163.214844 511.011719 C 190.1875 511.375 217.761719 503.667969 239.027344 486.695312 C 264.839844 466.425781 280.332031 435.988281 289.851562 405.160156 C 296.441406 405.09375 303.027344 405.105469 309.613281 405.160156 C 299.480469 440.386719 282.625 475.265625 254.132812 499.238281 C 229.441406 520.398438 196.535156 530.238281 164.347656 529.988281 C 134.507812 530.546875 103.972656 522.546875 79.945312 504.398438 C 53.132812 484.535156 35.375 454.851562 23.894531 423.972656 C 7.347656 379.253906 1.933594 331.347656 0 283.972656 L 0 236.441406 C 1.867188 191.613281 6.867188 146.332031 22.027344 103.851562 C 33.214844 72.507812 50.960938 42.320312 78.039062 22.238281 C 92.425781 11.425781 109.226562 4.148438 126.691406 0 M 446.148438 0 L 517.199219 0 C 532.574219 3.695312 547.441406 9.839844 560.480469 18.878906 C 576.667969 30.105469 590.078125 45.066406 600.332031 61.851562 C 611.613281 80.171875 619.613281 100.347656 625.507812 120.988281 C 619.054688 121.121094 612.585938 121.054688 606.148438 121.054688 C 598.878906 97.546875 588.652344 74.480469 572.667969 55.558594 C 556.238281 35.546875 532.613281 21.695312 507.105469 17.292969 C 481.921875 13.027344 455.199219 14.667969 431.585938 24.921875 C 409.933594 34.199219 392.199219 51.132812 379.785156 70.972656 C 365.574219 93.601562 357.078125 119.332031 351.398438 145.308594 C 341.988281 189.105469 340.292969 234.132812 341.027344 278.8125 C 342.265625 322.148438 346.375 365.960938 360.148438 407.292969 C 369.492188 435.171875 384.121094 462.414062 407.398438 481.078125 C 427.441406 497.425781 453.414062 505.265625 479.054688 505.480469 C 499.878906 505.972656 521.132812 502.105469 539.613281 492.214844 C 558.148438 482.535156 573.1875 467.09375 584.265625 449.507812 C 594.320312 433.414062 601.574219 415.707031 606.90625 397.546875 C 614.734375 370.894531 618.773438 343.28125 621.039062 315.625 C 573.785156 315.546875 526.546875 315.679688 479.320312 315.558594 C 479.359375 309.253906 479.320312 302.960938 479.347656 296.652344 C 533.265625 296.625 587.171875 296.625 641.09375 296.640625 C 640.546875 308.078125 639.746094 319.492188 638.507812 330.867188 C 634.078125 370.773438 625.746094 410.988281 607.28125 446.945312 C 596.679688 467.386719 582.226562 486.160156 563.535156 499.800781 C 546.066406 512.707031 525.066406 520.414062 503.585938 523.132812 C 477.800781 526.253906 450.945312 524.214844 426.691406 514.425781 C 404.265625 505.480469 385.066406 489.441406 370.933594 469.972656 C 353.011719 445.453125 342.214844 416.480469 335.027344 387.1875 C 323.800781 340.359375 321.320312 291.933594 322.09375 243.933594 C 323.292969 196.972656 328.121094 149.492188 343.414062 104.828125 C 354.480469 73.039062 371.972656 42.171875 399.320312 21.71875 C 413.148438 11.265625 429.320312 4.148438 446.148438 0 M 663.398438 0 L 690.945312 0 C 735.546875 154.652344 780 309.347656 824.546875 464.027344 C 869.132812 309.359375 913.507812 154.652344 958.132812 0 L 985.132812 0 C 985.121094 174.707031 985.160156 349.398438 985.121094 524.121094 C 978.507812 524.148438 971.921875 524.148438 965.320312 524.121094 C 965.308594 384.039062 965.320312 243.960938 965.320312 103.894531 C 965.148438 85.332031 965.652344 66.761719 965.054688 48.214844 C 961.921875 57.320312 959.546875 66.667969 956.707031 75.878906 C 912.679688 225.480469 868.601562 375.066406 824.625 524.679688 C 777.359375 365 730.558594 205.1875 683.332031 45.492188 C 683.199219 205.039062 683.332031 364.574219 683.265625 524.121094 C 676.773438 524.148438 670.28125 524.132812 663.785156 524.132812 C 663.691406 353.332031 663.785156 182.519531 663.746094 11.71875 C 663.679688 7.800781 664.066406 3.867188 663.398438 0 M 471.894531 541.988281 C 512.347656 528.507812 559.308594 537.265625 592.1875 564.464844 C 610.414062 579.253906 624.265625 599.386719 631.507812 621.734375 C 638.761719 644.320312 639.425781 669.078125 632.773438 691.878906 C 622.453125 727.679688 595.546875 758.199219 561.425781 773.066406 C 580.867188 779.773438 599.359375 789.535156 614.972656 803.027344 C 644.734375 828.09375 664.332031 864.574219 669.320312 903.132812 C 672.519531 924.308594 669.878906 946.011719 663.851562 966.464844 C 653.28125 1002.1875 629.878906 1034.011719 598.652344 1054.347656 C 561.535156 1079.054688 513.828125 1086.425781 470.773438 1075.347656 C 436.199219 1066.707031 404.933594 1045.71875 383.601562 1017.1875 C 363.398438 990.546875 352.105469 957.441406 351.078125 924.054688 C 351.132812 885.28125 365.707031 846.613281 391.785156 817.878906 C 410.226562 797.199219 434.359375 781.839844 460.625 773.148438 C 420.507812 755.851562 390.359375 716.640625 385.253906 673.054688 C 383.613281 657.519531 384.601562 641.625 389.066406 626.613281 C 400.535156 587.039062 432.8125 554.546875 471.894531 541.988281 M 500.574219 555.027344 C 472.441406 557.558594 445.464844 571.90625 428.199219 594.375 C 403.519531 625.441406 399.027344 670.851562 416.746094 706.292969 C 427.347656 727.71875 445.640625 745.148438 467.507812 754.746094 C 488.867188 764.226562 513.332031 766.347656 536.054688 760.90625 C 558.785156 755.625 579.507812 742.332031 593.878906 723.933594 C 616.480469 695.453125 621.878906 654.960938 608.828125 621.199219 C 600.078125 598.011719 582.652344 578.238281 560.707031 566.746094 C 542.375 557.066406 521.160156 553 500.574219 555.027344 M 494.839844 784.90625 C 480.453125 786.558594 466.28125 790.359375 453.105469 796.398438 C 420.464844 811.011719 394.238281 839.121094 381.734375 872.640625 C 364.667969 917.28125 371.933594 970.679688 401.828125 1008.214844 C 427.375 1041.28125 468.746094 1061.171875 510.480469 1060.8125 C 552.8125 1061.453125 594.972656 1041.253906 620.601562 1007.425781 C 647.851562 972.507812 656.105469 924.226562 643.332031 881.945312 C 632.480469 844.839844 605.078125 813.039062 569.960938 796.933594 C 546.652344 786.09375 520.347656 781.988281 494.839844 784.90625 M 256.480469 545.054688 C 266.253906 545.1875 276.039062 545.09375 285.8125 545.121094 C 285.878906 679.851562 285.8125 814.613281 285.851562 949.359375 C 303.519531 949.398438 321.199219 949.332031 338.867188 949.398438 C 338.878906 955.800781 338.878906 962.199219 338.867188 968.613281 C 321.199219 968.667969 303.519531 968.601562 285.851562 968.640625 C 285.8125 1002.746094 285.867188 1036.878906 285.828125 1070.988281 C 278.652344 1071 271.464844 1071 264.292969 1070.988281 C 264.253906 1036.878906 264.292969 1002.746094 264.265625 968.640625 C 176.171875 968.613281 88.09375 968.640625 0 968.625 L 0 934.121094 C 37.8125 876.464844 75.878906 818.988281 113.746094 761.375 C 161.398438 689.308594 208.679688 617 256.480469 545.054688 M 14.839844 949.386719 C 97.988281 949.347656 181.132812 949.386719 264.265625 949.359375 C 264.28125 823.347656 264.265625 697.332031 264.28125 571.308594 C 181.09375 697.320312 97.839844 823.265625 14.839844 949.386719"/></g></svg>