<svg xmlns="http://www.w3.org/2000/svg" xmlns:xlink="http://www.w3.org/1999/xlink" width="1000pt" height="1400pt" version="1.1" viewBox="0 0 1000 1400"><g id="surface1"><rect width="1000" height="1400" x="0" y="0" style="fill:#fe9016;fill-opacity:1;stroke:none"/><path style="stroke:none;fill-rule:nonzero;fill:#fff;fill-opacity:1" d="M 0 700 L 978.800781 700 L 978.800781 1378.601562 L 0 1378.601562 Z M 0 700"/><path style="stroke:none;fill-rule:nonzero;fill:#fefefe;fill-opacity:1" d="M 101.300781 0 C 233.800781 1.300781 336.101562 79.398438 349.398438 215 C 356.300781 277.699219 351.398438 343.300781 323.101562 400.5 C 287.800781 474.398438 211.800781 515 132.398438 522.601562 C 95 526.601562 57.398438 524.398438 19.800781 524.898438 C 19.601562 349.898438 20.300781 175 19.601562 0 C 46.800781 0 74 0 101.300781 0 Z M 41.601562 504.699219 C 199.5 514.601562 317.601562 461.300781 330.398438 289.199219 C 338.699219 193.398438 306.398438 82.5 210.699219 42.800781 C 157.601562 18.398438 98.699219 19.300781 41.601562 20.300781 C 41.601562 181.800781 41.601562 343.199219 41.601562 504.699219 Z M 41.601562 504.699219"/><path style="stroke:none;fill-rule:nonzero;fill:#fefefe;fill-opacity:1" d="M 631.898438 0 C 631.898438 7 631.898438 14 631.898438 21.5 C 558.699219 21.5 485.601562 21.5 412.300781 21.5 C 412.300781 92.300781 412.300781 162.601562 412.300781 233.398438 C 485.699219 233.398438 558.800781 233.398438 632.300781 233.398438 C 632.300781 240.601562 632.300781 247.5 632.300781 254.800781 C 559 254.800781 485.800781 254.800781 412.398438 254.800781 C 412.398438 335.699219 412.398438 416.199219 412.398438 497.101562 C 498.898438 497.101562 585.5 497.101562 672.398438 497.101562 C 672.398438 503.699219 672.398438 509.800781 672.398438 516.101562 C 578.5 516.101562 484.800781 516.101562 390.601562 516.101562 C 391 344.101562 389.898438 172 391 0 C 471.199219 0 551.5 0 631.898438 0 Z M 631.898438 0"/><path style="stroke:none;fill-rule:nonzero;fill:#fefefe;fill-opacity:1" d="M 737 495.601562 L 737 0 L 717.300781 0 L 717.300781 515.5 L 976.800781 515.5 L 976.800781 495.601562 Z M 737 495.601562"/><path style="stroke:none;fill-rule:nonzero;fill:#fff;fill-opacity:1" d="M 278.800781 700.898438 C 278.800781 648.800781 278.800781 596.699219 278.800781 544.601562 C 269.101562 544.601562 259.5 544.601562 249.800781 544.601562 C 215.398438 596.699219 48.898438 849.5 0 923.699219 L 0 966.5 C 85.898438 966.5 171.699219 966.5 257.601562 966.5 C 257.601562 1000.5 257.601562 1034.5 257.601562 1068.5 C 264.699219 1068.5 271.699219 1068.5 278.800781 1068.5 C 278.800781 1034.5 278.800781 1000.5 278.800781 966.5 C 296.398438 966.5 314.101562 966.5 331.800781 966.5 C 331.800781 960.101562 331.800781 953.699219 331.800781 947.300781 C 314.199219 947.300781 296.5 947.300781 278.800781 947.300781 C 278.800781 865.199219 278.800781 783 278.800781 700.898438 Z M 257.601562 700.898438 C 257.601562 783 257.601562 865.199219 257.601562 947.300781 C 174.601562 947.300781 91.699219 947.300781 8.800781 947.300781 C 63 865.199219 228.800781 613.800781 257.601562 570.300781 C 257.601562 613.800781 257.601562 657.398438 257.601562 700.898438 Z M 257.601562 700.898438"/><path style="stroke:none;fill-rule:nonzero;fill:#fff;fill-opacity:1" d="M 562 771.800781 C 692.800781 712.5 641.800781 523.5 499.5 536.101562 C 371.5 551.699219 344.5 718.5 462.699219 771.800781 C 413.898438 787.101562 374.101562 827.800781 360 877.101562 C 320.398438 1005 462.300781 1121.601562 581 1062.101562 C 708 1003.699219 696.601562 812.199219 562 771.800781 Z M 416.5 700.898438 C 375.898438 607.601562 478.699219 516.800781 566.398438 568.398438 C 642.199219 610.898438 629 733.300781 545 757.601562 C 495.898438 774.300781 436.601562 749.199219 416.5 700.898438 Z M 624.5 1001.398438 C 577 1071.398438 466.199219 1077.699219 410.5 1014.300781 C 333.101562 932.398438 388.398438 788.5 501.898438 782.898438 C 617.5 771.601562 692.5 908.699219 624.5 1001.398438 Z M 624.5 1001.398438"/><path style="stroke:none;fill-rule:nonzero;fill:#fe9016;fill-opacity:1" d="M 257.601562 1068.5 C 264.699219 1068.5 271.699219 1068.5 278.800781 1068.5 C 278.800781 1034.5 278.800781 1000.5 278.800781 966.5 C 296.398438 966.5 314.101562 966.5 331.800781 966.5 C 331.800781 960.101562 331.800781 953.699219 331.800781 947.300781 C 314.199219 947.300781 296.5 947.300781 278.800781 947.300781 C 278.800781 865.199219 278.800781 783 278.800781 700.898438 C 278.800781 700.601562 278.800781 700.300781 278.800781 700 L 257.601562 700 C 257.601562 700.300781 257.601562 700.601562 257.601562 700.898438 C 257.601562 783 257.601562 865.199219 257.601562 947.300781 C 174.601562 947.300781 91.699219 947.300781 8.800781 947.300781 C 41.101562 898.398438 113 789.300781 172 700 L 147.398438 700 C 90.5 786.398438 27.101562 882.5 0 923.699219 L 0 966.5 C 85.898438 966.5 171.699219 966.5 257.601562 966.5 C 257.601562 1000.5 257.601562 1034.5 257.601562 1068.5 Z M 257.601562 1068.5"/><path style="stroke:none;fill-rule:nonzero;fill:#fe9016;fill-opacity:1" d="M 630.601562 700 L 608 700 C 597.101562 726.5 575.898438 748.699219 545 757.601562 C 495.898438 774.300781 436.601562 749.199219 416.5 700.898438 C 416.398438 700.601562 416.300781 700.300781 416.101562 700 L 394.199219 700 C 404.699219 729.398438 427.101562 755.699219 462.699219 771.800781 C 413.898438 787.101562 374.101562 827.800781 360 877.101562 C 320.398438 1005 462.300781 1121.601562 581 1062.101562 C 708 1003.699219 696.601562 812.199219 562 771.800781 C 598.101562 755.398438 620.300781 729.199219 630.601562 700 Z M 624.5 1001.398438 C 577 1071.398438 466.199219 1077.699219 410.5 1014.300781 C 333.101562 932.398438 388.398438 788.5 501.898438 782.898438 C 617.5 771.601562 692.5 908.699219 624.5 1001.398438 Z M 624.5 1001.398438"/></g></svg>