<svg xmlns="http://www.w3.org/2000/svg" xmlns:xlink="http://www.w3.org/1999/xlink" width="1000pt" height="1400pt" version="1.1" viewBox="0 0 1000 1400"><g id="surface1"><path style="stroke:none;fill-rule:nonzero;fill:#0054a5;fill-opacity:1" d="M 0 0 L 20 0 C 19.699219 4.398438 19.800781 8.898438 19.800781 13.300781 C 19.800781 182 19.800781 350.699219 19.800781 519.300781 C 19.800781 520.898438 19.699219 522.398438 19.898438 524 C 20.199219 525.601562 22.199219 525.300781 23.398438 525.398438 C 28.300781 525.300781 33.199219 525.398438 38.101562 525.398438 C 39.300781 525.5 40.601562 524.699219 40.5 523.398438 C 40.601562 367 40.601562 210.5 40.601562 54.101562 C 40.601562 52.800781 40.699219 51.398438 40.898438 50.101562 C 41.300781 50.800781 41.601562 51.5 41.800781 52.199219 C 88.5 203.5 135.199219 354.898438 181.898438 506.199219 C 184 512.5 185.5 519 188 525.101562 C 188.898438 523.300781 189.5 521.398438 190.101562 519.5 C 237.300781 366.199219 284.5 212.898438 331.601562 59.601562 C 332.5 56.800781 333.199219 53.898438 334.398438 51.199219 C 334.898438 54.199219 334.699219 57.199219 334.699219 60.199219 C 334.800781 214.199219 334.800781 368.199219 335 522.199219 C 334.898438 523.398438 335.398438 525.199219 336.800781 525.199219 C 343.101562 525.300781 349.300781 525.398438 355.601562 525.199219 C 355.398438 451.898438 355.601562 378.601562 355.5 305.199219 C 355.398438 203.5 355.601562 101.800781 355.398438 0.101562 L 400 0.101562 C 399.800781 34.601562 400 69.101562 399.898438 103.601562 C 399.898438 244.101562 399.800781 384.699219 399.898438 525.199219 C 406.199219 525.199219 412.398438 525.199219 418.699219 525.101562 C 420.199219 525.101562 420.699219 523.398438 420.699219 522.101562 C 420.699219 377.898438 420.699219 233.699219 420.699219 89.5 C 420.699219 71.300781 420.601562 53.101562 420.800781 34.898438 C 421.5 35.699219 422.300781 36.5 422.800781 37.5 C 500.898438 198.601562 578.699219 359.800781 656.800781 520.800781 C 657.5 522.300781 658.398438 523.699219 659.5 524.898438 C 667.699219 525.101562 675.800781 525 684 525 C 684 352 684 179 684 6 C 684 4 684.101562 2 684.199219 0 L 732.898438 0 C 732.601562 18.898438 732.898438 37.800781 732.800781 56.699219 C 732.800781 210 732.800781 363.398438 732.800781 516.800781 C 732.800781 519.199219 732.601562 521.699219 732.898438 524.101562 C 733.101562 525.300781 734.699219 524.898438 735.5 525 C 823.699219 524.898438 911.898438 524.898438 1000.199219 524.800781 L 1000.199219 1400 L 0 1400 L 0 967.601562 C 87.601562 967.601562 175.199219 967.5 262.699219 967.601562 C 262.699219 1000.199219 262.699219 1032.898438 262.699219 1065.5 C 262.601562 1066.800781 263 1068.800781 264.601562 1068.898438 C 271.199219 1069 277.898438 1069 284.5 1069 C 284.5 1035.101562 284.5 1001.300781 284.5 967.398438 C 300.800781 967.300781 317 967.5 333.300781 967.300781 C 334.898438 967.398438 337.398438 966.699219 337.300781 964.601562 C 337.5 958.898438 337.398438 953.199219 337.398438 947.398438 C 319.800781 947.398438 302.101562 947.398438 284.5 947.398438 C 284.5 814 284.5 680.601562 284.5 547.300781 C 284.300781 545.398438 282.101562 545 280.601562 545.101562 C 273.101562 545.398438 265.5 545.300781 257.898438 545.199219 C 255.601562 545.101562 253.699219 546.800781 252.601562 548.601562 C 168.5 676.800781 84.199219 804.699219 0 932.699219 L 0 0 M 448.699219 554.101562 C 431.101562 563.601562 416 577.5 404.300781 593.699219 C 393.398438 608.699219 385.898438 626.398438 383.398438 644.800781 C 380.898438 663 382.699219 681.800781 388.398438 699.300781 C 395.699219 721.800781 410.398438 741.5 428.398438 756.5 C 437.199219 763.898438 447.199219 769.800781 457.601562 774.601562 C 444.300781 779.101562 431.398438 784.898438 419.699219 792.699219 C 410.398438 798.800781 402.199219 806.300781 394.5 814.199219 C 379.101562 830 366.199219 848.601562 358.300781 869.398438 C 349.300781 893 347.300781 919 351.300781 943.898438 C 355.101562 969 364.601562 993.199219 379.5 1013.800781 C 393.898438 1033.800781 413.101562 1050.398438 435.199219 1061.601562 C 462 1075.300781 492.800781 1080.898438 522.699219 1078.101562 C 549.800781 1075.601562 576.300781 1066.398438 598.699219 1050.800781 C 640.101562 1022.300781 666.601562 973 666.699219 922.5 C 666.800781 906.101562 663.5 889.898438 658.601562 874.398438 C 651.398438 852 639.300781 831.101562 622.699219 814.398438 C 604.898438 796.398438 582.800781 783.101562 559.101562 774.5 C 567.898438 769.699219 576.800781 765.101562 584.601562 758.898438 C 613.898438 736.699219 632.800781 701.101562 633.699219 664.199219 C 634.398438 637.601562 625.699219 611 609.800781 589.699219 C 595.699219 570.699219 576 556 553.800781 547.601562 C 519.898438 534.800781 480.601562 537 448.699219 554.101562 Z M 448.699219 554.101562"/><path style="stroke:none;fill-rule:nonzero;fill:#0054a5;fill-opacity:1" d="M 46.601562 0 L 329.300781 0 C 326.300781 8.898438 323.800781 18 321 27 C 284.699219 147.699219 248.398438 268.5 212 389.199219 C 203.898438 415.699219 196.199219 442.300781 187.898438 468.699219 C 177.5 435 167.5 401.101562 157.199219 367.300781 C 131.800781 283 106.300781 198.699219 80.898438 114.398438 C 69.5 76.300781 57.800781 38.199219 46.601562 0 Z M 46.601562 0"/><path style="stroke:none;fill-rule:nonzero;fill:#0054a5;fill-opacity:1" d="M 427.300781 0 L 663.300781 0 C 663.101562 3.101562 663.101562 6.199219 663.101562 9.300781 C 663.199219 91.898438 663.101562 174.398438 663.101562 257 C 663.101562 335.5 663.199219 413.898438 663.101562 492.398438 C 655.699219 477.601562 648.699219 462.5 641.5 447.601562 C 581.199219 321.5 520.699219 195.398438 460.199219 69.199219 C 449.199219 46.101562 438 23.199219 427.300781 0 Z M 427.300781 0"/><path style="stroke:none;fill-rule:nonzero;fill:#0054a5;fill-opacity:1" d="M 752.699219 0 L 1000 0 L 1000 504.699219 C 917.800781 504.699219 835.601562 504.699219 753.300781 504.699219 C 753.101562 336.5 752.898438 168.199219 752.699219 0 Z M 752.699219 0"/><path style="stroke:none;fill-rule:nonzero;fill:#0054a5;fill-opacity:1" d="M 495 559.398438 C 522.199219 556 550.898438 563.199219 572.601562 580.300781 C 590.800781 594.5 603.898438 615.101562 609.101562 637.601562 C 615.101562 663 611.601562 690.699219 598.601562 713.5 C 587.601562 733 570 748.5 549.398438 757.101562 C 524.898438 767.398438 496.5 767.898438 471.5 759 C 450.101562 751.300781 431.300781 736.398438 419.398438 717.101562 C 402.5 690.398438 399.699219 656 410.199219 626.398438 C 417.101562 606.898438 430.101562 589.601562 447 577.800781 C 461 567.601562 477.800781 561.398438 495 559.398438 Z M 495 559.398438"/><path style="stroke:none;fill-rule:nonzero;fill:#0054a5;fill-opacity:1" d="M 15.398438 947.5 C 97.699219 822.5 180.101562 697.601562 262.5 572.601562 C 262.5 695.300781 262.5 818 262.5 940.699219 C 262.5 943 262.601562 945.300781 262.398438 947.601562 C 180 947.398438 97.699219 947.601562 15.398438 947.5 Z M 15.398438 947.5"/><path style="stroke:none;fill-rule:nonzero;fill:#0054a5;fill-opacity:1" d="M 493.699219 786.398438 C 519.5 783.800781 546.101562 788.300781 569.398438 799.800781 C 592.800781 811.199219 612.699219 829.601562 625.898438 852 C 638.199219 872.699219 644.699219 896.699219 644.898438 920.699219 C 645.300781 946.699219 638.398438 972.800781 624.699219 994.898438 C 611.398438 1016.5 591.898438 1034.300781 569.101562 1045.398438 C 543.300781 1058.101562 513.5 1062.199219 485.199219 1057.601562 C 461.101562 1053.699219 438 1043.300781 419.300781 1027.5 C 401.699219 1012.800781 388 993.5 379.800781 972.101562 C 369.699219 945.699219 368.101562 916.300781 374.800781 888.898438 C 380.300781 866.101562 391.898438 844.898438 408 827.898438 C 430.398438 804.300781 461.398438 789.398438 493.699219 786.398438 Z M 493.699219 786.398438"/><path style="stroke:none;fill-rule:nonzero;fill:#fff;fill-opacity:1" d="M 20 0 L 46.601562 0 C 57.699219 38.199219 69.398438 76.300781 80.898438 114.398438 C 106.300781 198.699219 131.800781 283 157.199219 367.300781 C 167.5 401.101562 177.5 435 187.898438 468.699219 C 196.199219 442.300781 203.898438 415.699219 212 389.199219 C 248.398438 268.5 284.699219 147.699219 321.101562 27 C 323.898438 18 326.398438 8.898438 329.398438 0 L 355.398438 0 C 355.601562 101.699219 355.398438 203.398438 355.5 305.101562 C 355.5 378.398438 355.398438 451.699219 355.601562 525.101562 C 349.300781 525.300781 343.101562 525.199219 336.800781 525.101562 C 335.300781 525.101562 334.898438 523.300781 335 522.101562 C 334.800781 368.101562 334.898438 214.101562 334.699219 60.101562 C 334.699219 57.101562 334.898438 54.101562 334.398438 51.101562 C 333.300781 53.800781 332.601562 56.699219 331.601562 59.5 C 284.398438 212.800781 237.199219 366.101562 190 519.398438 C 189.5 521.300781 188.898438 523.199219 187.898438 525 C 185.398438 518.898438 183.898438 512.398438 181.800781 506.101562 C 135.101562 354.800781 88.398438 203.398438 41.699219 52.101562 C 41.398438 51.398438 41.101562 50.699219 40.800781 50 C 40.699219 51.300781 40.5 52.601562 40.5 54 C 40.5 210.398438 40.5 366.898438 40.398438 523.300781 C 40.5 524.601562 39.199219 525.5 38 525.300781 C 33.101562 525.300781 28.199219 525.199219 23.300781 525.300781 C 22.101562 525.199219 20.199219 525.5 19.800781 523.898438 C 19.601562 522.300781 19.699219 520.699219 19.699219 519.199219 C 19.699219 350.5 19.699219 181.800781 19.699219 13.199219 C 19.800781 8.898438 19.699219 4.398438 20 0 Z M 20 0"/><path style="stroke:none;fill-rule:nonzero;fill:#fff;fill-opacity:1" d="M 400 0 L 427.300781 0 C 438 23.199219 449.199219 46.101562 460.199219 69.199219 C 520.699219 195.398438 581.101562 321.5 641.601562 447.699219 C 648.800781 462.601562 655.800781 477.601562 663.199219 492.5 C 663.300781 414 663.199219 335.601562 663.199219 257.101562 C 663.199219 174.5 663.199219 92 663.199219 9.398438 C 663.199219 6.300781 663.199219 3.199219 663.398438 0.101562 L 684 0.101562 C 683.898438 2.101562 683.800781 4.101562 683.800781 6.101562 C 683.800781 179.101562 683.800781 352.101562 683.800781 525.101562 C 675.601562 525.101562 667.5 525.199219 659.300781 525 C 658.199219 523.800781 657.300781 522.398438 656.601562 520.898438 C 578.5 359.800781 500.601562 198.699219 422.601562 37.601562 C 422.101562 36.601562 421.300781 35.800781 420.601562 35 C 420.5 53.199219 420.601562 71.398438 420.5 89.601562 C 420.5 233.800781 420.5 378 420.5 522.199219 C 420.5 523.398438 420 525.199219 418.5 525.199219 C 412.199219 525.300781 406 525.300781 399.699219 525.300781 C 399.699219 384.800781 399.800781 244.199219 399.699219 103.699219 C 399.898438 69 399.800781 34.5 400 0 Z M 400 0"/><path style="stroke:none;fill-rule:nonzero;fill:#fff;fill-opacity:1" d="M 732.601562 0 L 752.601562 0 C 752.800781 168.199219 753 336.5 753.300781 504.699219 C 835.5 504.699219 917.699219 504.699219 1000 504.699219 L 1000 524.699219 C 911.800781 524.800781 823.601562 524.800781 735.300781 524.898438 C 734.398438 524.699219 732.898438 525.101562 732.699219 524 C 732.398438 521.601562 732.601562 519.199219 732.601562 516.699219 C 732.601562 363.300781 732.5 210 732.601562 56.601562 C 732.601562 37.800781 732.300781 18.898438 732.601562 0 Z M 732.601562 0"/><path style="stroke:none;fill-rule:nonzero;fill:#fff;fill-opacity:1" d="M 448.699219 554.101562 C 480.601562 537 520 534.800781 553.699219 547.699219 C 575.800781 556.101562 595.5 570.800781 609.699219 589.800781 C 625.601562 611.101562 634.300781 637.699219 633.601562 664.300781 C 632.800781 701.199219 613.800781 736.800781 584.5 759 C 576.699219 765.199219 567.699219 769.898438 559 774.601562 C 582.699219 783.199219 604.898438 796.5 622.601562 814.5 C 639.199219 831.199219 651.300781 852.101562 658.5 874.5 C 663.398438 890 666.699219 906.300781 666.601562 922.601562 C 666.5 973 640 1022.300781 598.601562 1050.898438 C 576.199219 1066.5 549.699219 1075.699219 522.601562 1078.199219 C 492.699219 1081.101562 461.898438 1075.398438 435.101562 1061.699219 C 413.101562 1050.5 393.898438 1034 379.398438 1013.898438 C 364.601562 993.300781 355 969 351.199219 944 C 347.199219 919.101562 349.199219 893.101562 358.199219 869.5 C 366 848.699219 378.898438 830.101562 394.398438 814.300781 C 402.101562 806.398438 410.398438 798.898438 419.601562 792.800781 C 431.300781 785 444.199219 779.300781 457.5 774.699219 C 447.101562 769.898438 437.101562 764 428.300781 756.601562 C 410.199219 741.5 395.601562 721.898438 388.300781 699.398438 C 382.601562 681.898438 380.898438 663.101562 383.300781 644.898438 C 385.800781 626.398438 393.300781 608.800781 404.199219 593.800781 C 416 577.601562 431 563.601562 448.699219 554.101562 M 495 559.398438 C 477.800781 561.398438 461 567.699219 446.898438 577.699219 C 430 589.601562 417 606.800781 410.101562 626.300781 C 399.601562 655.898438 402.398438 690.300781 419.300781 717 C 431.300781 736.398438 450 751.300781 471.398438 758.898438 C 496.398438 767.800781 524.699219 767.300781 549.300781 757 C 569.898438 748.398438 587.601562 732.898438 598.5 713.398438 C 611.5 690.699219 615 662.898438 609 637.5 C 603.800781 615 590.800781 594.398438 572.5 580.199219 C 550.898438 563.199219 522.300781 556 495 559.398438 M 493.699219 786.398438 C 461.398438 789.398438 430.398438 804.398438 408.101562 828 C 392 845 380.398438 866.199219 374.898438 889 C 368.199219 916.398438 369.800781 945.800781 379.898438 972.199219 C 388.101562 993.601562 401.800781 1012.898438 419.398438 1027.601562 C 438.101562 1043.398438 461.199219 1053.800781 485.300781 1057.699219 C 513.601562 1062.199219 543.398438 1058.101562 569.199219 1045.5 C 592 1034.398438 611.5 1016.699219 624.800781 995 C 638.5 972.898438 645.398438 946.800781 645 920.800781 C 644.699219 896.800781 638.300781 872.699219 626 852.101562 C 612.800781 829.699219 592.898438 811.300781 569.5 799.898438 C 546.101562 788.300781 519.5 783.800781 493.699219 786.398438 Z M 493.699219 786.398438"/><path style="stroke:none;fill-rule:nonzero;fill:#fff;fill-opacity:1" d="M 252.699219 548.800781 C 253.800781 546.898438 255.601562 545.199219 258 545.398438 C 265.5 545.5 273.101562 545.601562 280.699219 545.300781 C 282.199219 545.199219 284.398438 545.601562 284.601562 547.5 C 284.601562 680.898438 284.601562 814.300781 284.601562 947.601562 C 302.199219 947.601562 319.898438 947.601562 337.5 947.601562 C 337.5 953.300781 337.601562 959 337.398438 964.800781 C 337.601562 966.800781 335.101562 967.601562 333.398438 967.5 C 317.101562 967.699219 300.898438 967.5 284.601562 967.601562 C 284.601562 1001.5 284.601562 1035.300781 284.601562 1069.199219 C 278 1069.199219 271.300781 1069.199219 264.699219 1069.101562 C 263.101562 1069 262.699219 1067 262.800781 1065.699219 C 262.800781 1033.101562 262.800781 1000.398438 262.800781 967.800781 C 175.199219 967.699219 87.601562 967.800781 0.101562 967.800781 L 0.101562 932.800781 C 84.199219 804.699219 168.5 676.800781 252.699219 548.800781 M 15.398438 947.5 C 97.699219 947.601562 180.101562 947.398438 262.398438 947.601562 C 262.601562 945.300781 262.5 943 262.5 940.699219 C 262.5 818 262.5 695.300781 262.5 572.601562 C 180.101562 697.601562 97.699219 822.5 15.398438 947.5 Z M 15.398438 947.5"/></g></svg>