<?xml version="1.0" encoding="UTF-8"?>
<svg xmlns="http://www.w3.org/2000/svg" xmlns:xlink="http://www.w3.org/1999/xlink" width="1000pt" height="1400pt" viewBox="0 0 1000 1400" version="1.1">
<g id="surface1">
<rect x="0" y="0" width="1000" height="1400" style="fill:rgb(30.196078%,61.568627%,16.470588%);fill-opacity:1;stroke:none;"/>
<path style=" stroke:none;fill-rule:nonzero;fill:rgb(100%,100%,100%);fill-opacity:1;" d="M 19.800781 0 L 47.101562 0 C 92.101562 151.5 136.699219 303.300781 181.898438 454.699219 C 226.699219 303.199219 271.5 151.601562 316.398438 0 L 343.199219 0 C 343.199219 171.800781 343.199219 343.601562 343.199219 515.300781 C 336.601562 515.300781 330.101562 515.300781 323.5 515.300781 C 323.398438 359.5 323.699219 203.601562 323.398438 47.800781 C 275.699219 203.5 229.101562 359.601562 181.800781 515.398438 C 134.398438 358.800781 87.199219 202.199219 39.601562 45.699219 C 39.5 202.300781 39.601562 358.800781 39.601562 515.398438 C 33.101562 515.398438 26.5 515.398438 20 515.398438 C 19.800781 343.601562 20.101562 171.800781 19.800781 0 Z M 19.800781 0 "/>
<path style=" stroke:none;fill-rule:nonzero;fill:rgb(100%,100%,100%);fill-opacity:1;" d="M 381.300781 0 L 400.199219 0 C 400.199219 118.101562 400.199219 236.199219 400.199219 354.300781 C 400.601562 380.199219 403.199219 406.800781 413.199219 431 C 423.800781 455 441.898438 476.601562 466.5 486.800781 C 495.5 498.800781 528.898438 499.199219 558.5 489.101562 C 591.601562 477.699219 614.898438 446.800781 623.601562 413.699219 C 631.101562 386.199219 631 357.5 630.800781 329.199219 C 630.898438 219.5 630.601562 109.699219 630.898438 0 L 649.800781 0 C 649.800781 115.800781 649.800781 231.5 649.800781 347.300781 C 649.800781 376.101562 647.199219 405.300781 637.800781 432.699219 C 627.898438 456.101562 613.199219 478.300781 592.199219 493 C 548.601562 522.300781 487.300781 522.898438 442.601562 495.699219 C 419.699219 481.199219 403.800781 458.101562 393.300781 433.5 C 379.300781 394.300781 381 352.101562 381 311.101562 C 381.199219 207.398438 380.898438 103.699219 381.300781 0 Z M 381.300781 0 "/>
<path style=" stroke:none;fill-rule:nonzero;fill:rgb(100%,100%,100%);fill-opacity:1;" d="M 687.699219 0 L 835.800781 0 C 865.101562 4.601562 893.800781 17.601562 914.398438 39.300781 C 934 60.398438 943.601562 89.300781 945.199219 117.800781 C 946.800781 145.300781 942.300781 174.300781 926.5 197.398438 C 913.101562 217.5 892.398438 231.101562 871.101562 241.699219 C 898.898438 249.300781 925.601562 263.699219 944.199219 286 C 975.699219 324 986 378.199219 970.300781 425 C 957.199219 467.601562 919.5 501.101562 875.898438 509.699219 C 850.5 515.5 824.300781 516.199219 798.300781 515.800781 C 761.5 515.800781 724.601562 515.800781 687.800781 515.800781 C 687.699219 343.898438 687.800781 172 687.699219 0 M 707.5 15.699219 C 707.5 89.101562 707.5 162.398438 707.5 235.800781 C 754.300781 234.300781 801.800781 239.699219 848.199219 231.398438 C 886.699219 223.5 919 190.300781 924.101562 150.898438 C 931.601562 108.898438 918.699219 60.300781 881.800781 35.898438 C 848.5 13.800781 806.800781 15.699219 768.601562 15.699219 C 748.101562 15.699219 727.800781 15.601562 707.5 15.699219 M 707.5 498.398438 C 741.101562 498.199219 774.800781 498.398438 808.398438 498.300781 C 835 498.601562 862.101562 496.300781 887.398438 487.601562 C 912.199219 477.800781 933.898438 459.199219 945.5 434.898438 C 966.800781 389.601562 961 330.898438 926.300781 293.699219 C 907.199219 272.800781 880.199219 260.300781 852.5 256 C 804.398438 251.199219 755.800781 254.699219 707.5 253.5 C 707.398438 335.101562 707.398438 416.800781 707.5 498.398438 Z M 707.5 498.398438 "/>
<path style=" stroke:none;fill-rule:nonzero;fill:rgb(100%,100%,100%);fill-opacity:1;" d="M 278.800781 700.898438 C 278.800781 648.800781 278.800781 596.699219 278.800781 544.601562 C 269.101562 544.601562 259.5 544.601562 249.800781 544.601562 C 215.398438 596.699219 48.898438 849.5 0 923.699219 L 0 966.5 C 85.898438 966.5 171.699219 966.5 257.601562 966.5 C 257.601562 1000.5 257.601562 1034.5 257.601562 1068.5 C 264.699219 1068.5 271.699219 1068.5 278.800781 1068.5 C 278.800781 1034.5 278.800781 1000.5 278.800781 966.5 C 296.398438 966.5 314.101562 966.5 331.800781 966.5 C 331.800781 960.101562 331.800781 953.699219 331.800781 947.300781 C 314.199219 947.300781 296.5 947.300781 278.800781 947.300781 C 278.800781 865.199219 278.800781 783 278.800781 700.898438 Z M 257.601562 700.898438 C 257.601562 783 257.601562 865.199219 257.601562 947.300781 C 174.601562 947.300781 91.699219 947.300781 8.800781 947.300781 C 63 865.199219 228.800781 613.800781 257.601562 570.300781 C 257.601562 613.800781 257.601562 657.398438 257.601562 700.898438 Z M 257.601562 700.898438 "/>
<path style=" stroke:none;fill-rule:nonzero;fill:rgb(100%,100%,100%);fill-opacity:1;" d="M 562 771.800781 C 692.800781 712.5 641.800781 523.5 499.5 536.101562 C 371.5 551.699219 344.5 718.5 462.699219 771.800781 C 413.898438 787.101562 374.101562 827.800781 360 877.101562 C 320.398438 1005 462.300781 1121.601562 581 1062.101562 C 708 1003.699219 696.601562 812.199219 562 771.800781 Z M 416.5 700.898438 C 375.898438 607.601562 478.699219 516.800781 566.398438 568.398438 C 642.199219 610.898438 629 733.300781 545 757.601562 C 495.898438 774.300781 436.601562 749.199219 416.5 700.898438 Z M 624.5 1001.398438 C 577 1071.398438 466.199219 1077.699219 410.5 1014.300781 C 333.101562 932.398438 388.398438 788.5 501.898438 782.898438 C 617.5 771.601562 692.5 908.699219 624.5 1001.398438 Z M 624.5 1001.398438 "/>
<path style=" stroke:none;fill-rule:nonzero;fill:rgb(100%,100%,100%);fill-opacity:1;" d="M 0 700 L 978.800781 700 L 978.800781 1378.601562 L 0 1378.601562 Z M 0 700 "/>
<path style=" stroke:none;fill-rule:nonzero;fill:rgb(30.196078%,61.568627%,16.470588%);fill-opacity:1;" d="M 257.601562 1068.5 C 264.699219 1068.5 271.699219 1068.5 278.800781 1068.5 C 278.800781 1034.5 278.800781 1000.5 278.800781 966.5 C 296.398438 966.5 314.101562 966.5 331.800781 966.5 C 331.800781 960.101562 331.800781 953.699219 331.800781 947.300781 C 314.199219 947.300781 296.5 947.300781 278.800781 947.300781 C 278.800781 865.199219 278.800781 783 278.800781 700.898438 C 278.800781 700.601562 278.800781 700.300781 278.800781 700 L 257.601562 700 C 257.601562 700.300781 257.601562 700.601562 257.601562 700.898438 C 257.601562 783 257.601562 865.199219 257.601562 947.300781 C 174.601562 947.300781 91.699219 947.300781 8.800781 947.300781 C 41.101562 898.398438 113 789.300781 172 700 L 147.398438 700 C 90.5 786.398438 27.101562 882.5 0 923.699219 L 0 966.5 C 85.898438 966.5 171.699219 966.5 257.601562 966.5 C 257.601562 1000.5 257.601562 1034.5 257.601562 1068.5 Z M 257.601562 1068.5 "/>
<path style=" stroke:none;fill-rule:nonzero;fill:rgb(30.196078%,61.568627%,16.470588%);fill-opacity:1;" d="M 630.601562 700 L 608 700 C 597.101562 726.5 575.898438 748.699219 545 757.601562 C 495.898438 774.300781 436.601562 749.199219 416.5 700.898438 C 416.398438 700.601562 416.300781 700.300781 416.101562 700 L 394.199219 700 C 404.699219 729.398438 427.101562 755.699219 462.699219 771.800781 C 413.898438 787.101562 374.101562 827.800781 360 877.101562 C 320.398438 1005 462.300781 1121.601562 581 1062.101562 C 708 1003.699219 696.601562 812.199219 562 771.800781 C 598.101562 755.398438 620.300781 729.199219 630.601562 700 Z M 624.5 1001.398438 C 577 1071.398438 466.199219 1077.699219 410.5 1014.300781 C 333.101562 932.398438 388.398438 788.5 501.898438 782.898438 C 617.5 771.601562 692.5 908.699219 624.5 1001.398438 Z M 624.5 1001.398438 "/>
</g>
</svg>
