<svg xmlns="http://www.w3.org/2000/svg" xmlns:xlink="http://www.w3.org/1999/xlink" width="1000pt" height="1400pt" version="1.1" viewBox="0 0 1000 1400"><g id="surface1"><rect width="1000" height="1400" x="0" y="0" style="fill:#77be53;fill-opacity:1;stroke:none"/><path style="stroke:none;fill-rule:nonzero;fill:#fff;fill-opacity:1" d="M 14.398438 0 L 41.398438 0 C 86 150 130.101562 300.300781 174.898438 450.199219 C 219.300781 300.199219 263.601562 150.101562 308.101562 0 L 334.601562 0 C 334.601562 170.101562 334.601562 340.199219 334.601562 510.199219 C 328.101562 510.199219 321.601562 510.199219 315.101562 510.199219 C 315 356 315.300781 201.601562 315 47.300781 C 267.800781 201.5 221.601562 356 174.800781 510.300781 C 127.898438 355.300781 81.101562 200.199219 34 45.300781 C 33.898438 200.398438 34 355.300781 34 510.398438 C 27.601562 510.398438 21 510.398438 14.601562 510.398438 C 14.398438 340.199219 14.699219 170.101562 14.398438 0 Z M 14.398438 0"/><path style="stroke:none;fill-rule:nonzero;fill:#fff;fill-opacity:1" d="M 367.199219 0 L 385.898438 0 C 385.898438 116.898438 385.898438 233.699219 385.898438 350.601562 C 386.300781 376.199219 388.898438 402.601562 398.800781 426.5 C 409.300781 450.199219 427.199219 471.601562 451.5 481.699219 C 480.199219 493.601562 513.199219 494 542.5 484 C 575.300781 472.699219 598.300781 442.101562 606.898438 409.398438 C 614.300781 382.199219 614.199219 353.800781 614 325.800781 C 614.101562 217.199219 613.800781 108.601562 614.101562 0 L 632.800781 0 C 632.800781 114.601562 632.800781 229.101562 632.800781 343.699219 C 632.800781 372.199219 630.199219 401.101562 620.898438 428.199219 C 611.101562 451.398438 596.601562 473.300781 575.800781 487.898438 C 532.699219 516.898438 472 517.5 427.800781 490.601562 C 405.101562 476.300781 389.398438 453.398438 379 429.101562 C 365.101562 390.300781 366.800781 348.601562 366.800781 308 C 367.101562 205.199219 366.800781 102.601562 367.199219 0 Z M 367.199219 0"/><path style="stroke:none;fill-rule:nonzero;fill:#fff;fill-opacity:1" d="M 664.300781 0 L 691.300781 0 C 735.898438 150 780 300.300781 824.800781 450.199219 C 869.199219 300.199219 913.5 150.101562 958 0 L 984.5 0 C 984.5 170.101562 984.5 340.199219 984.5 510.199219 C 978 510.199219 971.5 510.199219 965 510.199219 C 964.898438 355.898438 965.199219 201.601562 964.898438 47.300781 C 917.699219 201.5 871.5 356 824.699219 510.300781 C 777.800781 355.300781 731 200.199219 683.898438 45.300781 C 683.800781 200.398438 683.898438 355.300781 683.898438 510.398438 C 677.5 510.398438 670.898438 510.398438 664.5 510.398438 C 664.300781 340.199219 664.601562 170.101562 664.300781 0 Z M 664.300781 0"/><path style="stroke:none;fill-rule:nonzero;fill:#fff;fill-opacity:1" d="M 278.800781 700.898438 C 278.800781 648.800781 278.800781 596.699219 278.800781 544.601562 C 269.101562 544.601562 259.5 544.601562 249.800781 544.601562 C 215.398438 596.699219 48.898438 849.5 0 923.699219 L 0 966.5 C 85.898438 966.5 171.699219 966.5 257.601562 966.5 C 257.601562 1000.5 257.601562 1034.5 257.601562 1068.5 C 264.699219 1068.5 271.699219 1068.5 278.800781 1068.5 C 278.800781 1034.5 278.800781 1000.5 278.800781 966.5 C 296.398438 966.5 314.101562 966.5 331.800781 966.5 C 331.800781 960.101562 331.800781 953.699219 331.800781 947.300781 C 314.199219 947.300781 296.5 947.300781 278.800781 947.300781 C 278.800781 865.199219 278.800781 783 278.800781 700.898438 Z M 257.601562 700.898438 C 257.601562 783 257.601562 865.199219 257.601562 947.300781 C 174.601562 947.300781 91.699219 947.300781 8.800781 947.300781 C 63 865.199219 228.800781 613.800781 257.601562 570.300781 C 257.601562 613.800781 257.601562 657.398438 257.601562 700.898438 Z M 257.601562 700.898438"/><path style="stroke:none;fill-rule:nonzero;fill:#fff;fill-opacity:1" d="M 562 771.800781 C 692.800781 712.5 641.800781 523.5 499.5 536.101562 C 371.5 551.699219 344.5 718.5 462.699219 771.800781 C 413.898438 787.101562 374.101562 827.800781 360 877.101562 C 320.398438 1005 462.300781 1121.601562 581 1062.101562 C 708 1003.699219 696.601562 812.199219 562 771.800781 Z M 416.5 700.898438 C 375.898438 607.601562 478.699219 516.800781 566.398438 568.398438 C 642.199219 610.898438 629 733.300781 545 757.601562 C 495.898438 774.300781 436.601562 749.199219 416.5 700.898438 Z M 624.5 1001.398438 C 577 1071.398438 466.199219 1077.699219 410.5 1014.300781 C 333.101562 932.398438 388.398438 788.5 501.898438 782.898438 C 617.5 771.601562 692.5 908.699219 624.5 1001.398438 Z M 624.5 1001.398438"/></g></svg>