<svg xmlns="http://www.w3.org/2000/svg" xmlns:xlink="http://www.w3.org/1999/xlink" width="1148" height="1600" version="1.1" viewBox="0 0 861 1200"><g id="surface1"><path style="stroke:none;fill-rule:nonzero;fill:#e83f6a;fill-opacity:1" d="M 0 0 L 109.101562 0 C 105.695312 1.328125 102.257812 2.609375 98.804688 3.8125 C 63.828125 16.359375 36.429688 48.203125 30.179688 84.921875 C 27.023438 109.25 30.179688 135.328125 43.683594 156.328125 C 59.734375 181.84375 88.082031 197.4375 117.136719 203.265625 C 134.84375 206.828125 152.925781 208.71875 170.226562 214.109375 C 188.808594 219.6875 205.6875 230.203125 219.941406 243.234375 C 254.761719 278.765625 260.875 337.40625 236.554688 380.328125 C 220.097656 410.5625 189.183594 432.21875 155.222656 437.765625 C 122.183594 443.75 86.769531 434.5 60.890625 413.140625 C 33.835938 391.296875 18.925781 356.796875 18.628906 322.359375 C 12.894531 322.375 7.140625 322.359375 1.390625 322.375 C 0.125 382.203125 45.027344 439.125 103.554688 452.140625 C 146.207031 462.53125 193.890625 450.8125 225.847656 420.484375 C 254.292969 394.40625 270.8125 355.53125 268.953125 316.921875 C 268.015625 281.953125 252.292969 247.453125 225.738281 224.453125 C 204.546875 205.640625 176.964844 195.015625 149.066406 191.390625 C 132.09375 188.796875 114.871094 186.46875 98.679688 180.46875 C 81.160156 173.53125 66.296875 160.21875 57.355469 143.65625 C 43.324219 117.859375 43.542969 85.109375 57.308594 59.25 C 67.078125 40.578125 83.910156 25.828125 103.695312 18.5625 C 132.71875 7.515625 167.460938 12.953125 191.386719 32.84375 C 212.035156 49.3125 222.863281 75.484375 223.785156 101.484375 C 229.679688 101.5 235.570312 101.609375 241.429688 101.328125 C 241.351562 74.03125 230.179688 46.78125 210.316406 27.875 C 196.890625 14.109375 179.214844 5.25 160.867188 0 L 391.386719 0 C 369.742188 5.9375 349.050781 16.6875 333.96875 33.5625 C 309.414062 60.359375 297.210938 95.859375 290.253906 130.90625 C 282.300781 173.609375 280.441406 217.359375 283.207031 260.65625 C 285.285156 294.8125 290.238281 329.140625 301.992188 361.421875 C 311.183594 386.3125 324.980469 410.375 345.941406 427.21875 C 367.445312 445.015625 395.890625 452.765625 423.472656 452.390625 C 455.308594 452.40625 487.957031 440.859375 509.617188 416.921875 C 541.46875 382.75 553.035156 335.21875 558.707031 290.140625 C 560.066406 278.703125 561.363281 267.1875 561.160156 255.671875 C 514.167969 255.640625 467.140625 255.59375 420.128906 255.6875 C 419.816406 261.21875 419.816406 266.75 420.082031 272.296875 C 461.433594 272.375 502.789062 272.21875 544.15625 272.375 C 541.25 304.171875 536.125 336.234375 523.464844 365.78125 C 515.964844 383.015625 505.664062 399.34375 491.472656 411.84375 C 456.871094 441.6875 402.359375 443.953125 363.992188 420.0625 C 338.5 403.5 323.136719 375.515625 314.152344 347.203125 C 300.351562 302.90625 298.164062 256.03125 298.835938 209.9375 C 299.664062 176.765625 302.601562 143.375 311.480469 111.28125 C 319.417969 82.625 332.78125 53.96875 356.394531 34.921875 C 380.808594 15.1875 414.363281 9.859375 444.695312 15.421875 C 465.96875 19.15625 485.894531 30.15625 500.117188 46.4375 C 515.042969 62.984375 524.199219 83.671875 531.203125 104.578125 C 536.65625 104.75 542.09375 104.734375 547.550781 104.59375 C 538.203125 69.9375 519.855469 35.546875 489.035156 15.515625 C 477.8125 8.125 465.0625 3.515625 452.183594 0 L 688.582031 0 C 667.59375 5.625 647.398438 15.75 632.570312 31.921875 C 610.8125 54.34375 598.625 84.15625 590.964844 113.984375 C 579.039062 161.953125 577.835938 211.828125 580.101562 260.9375 C 582.777344 300.515625 588.746094 340.671875 605.375 377.046875 C 616.957031 402.265625 635.039062 425.53125 660.011719 438.578125 C 686.175781 452.421875 717.230469 455.21875 746.078125 449.859375 C 776.664062 444.5625 803.90625 425.375 820.566406 399.421875 C 845.460938 361.375 853.746094 315.390625 857.652344 270.875 C 860.902344 233.59375 860.152344 195.9375 855.667969 158.78125 C 849.746094 113.421875 838.039062 65.46875 805.421875 31.46875 C 790.558594 15.484375 770.429688 5.390625 749.472656 0 L 859.949219 0 L 859.949219 1199.65625 L 0 1199.65625 L 0 829.390625 C 75.941406 829.546875 151.910156 829.09375 227.851562 829.625 C 227.882812 858.765625 227.789062 887.90625 227.898438 917.046875 C 233.867188 917.15625 239.851562 917.125 245.839844 917.078125 C 246.386719 887.90625 245.839844 858.71875 246.105469 829.53125 C 261.34375 829.15625 276.578125 829.59375 291.800781 829.3125 C 291.816406 823.953125 291.816406 818.625 291.785156 813.28125 C 276.75 812.96875 261.6875 813.15625 246.636719 813.1875 C 245.714844 808.40625 246.089844 803.578125 246.058594 798.765625 C 245.980469 688.265625 246.199219 577.734375 245.964844 467.234375 C 237.585938 467.15625 229.226562 467.125 220.847656 467.25 C 151.832031 571.6875 82.847656 676.15625 13.800781 780.578125 C 9.285156 787.375 4.953125 794.328125 0 800.828125 L 0 0 M 331.953125 550.875 C 325.042969 596.78125 353.847656 644.3125 396.390625 661.953125 C 349.660156 677.1875 312.699219 718.734375 304.601562 767.359375 C 293.613281 825.484375 327.371094 887.8125 381.058594 912.140625 C 416.863281 929.03125 459.980469 929.265625 496.050781 912.984375 C 548.785156 890.046875 582.871094 830.84375 575.445312 773.8125 C 570.210938 732.796875 545.40625 694.59375 509.320312 674.078125 C 500.882812 669.03125 491.691406 665.46875 482.519531 662 C 522.980469 645.09375 551.253906 601.4375 547.660156 557.421875 C 545.75 524.421875 526.449219 493.40625 498.507812 475.96875 C 479.878906 464.140625 457.527344 458.234375 435.476562 459.21875 C 385.042969 460.078125 338.625 500.828125 331.953125 550.875 Z M 331.953125 550.875"/><path style="stroke:none;fill-rule:nonzero;fill:#e83f6a;fill-opacity:1" d="M 706.398438 14.03125 C 731.734375 11.578125 758.660156 16.1875 779.820312 30.984375 C 796.105469 42.15625 808.171875 58.484375 816.878906 76 C 843.132812 131.96875 843.539062 195.390625 842.226562 255.953125 C 839.710938 296.5625 834.398438 338.203125 816.035156 375.078125 C 808.53125 390 798.417969 403.84375 785.355469 414.390625 C 743.9375 446.953125 676.703125 443.28125 641.304688 403.296875 C 626.816406 386.859375 617.160156 366.75 610.6875 345.953125 C 595.699219 297.46875 595.011719 246.203125 596.152344 195.921875 C 597.625 167.1875 600.828125 138.359375 608.59375 110.578125 C 615.597656 85.859375 626.363281 61.421875 644.601562 42.875 C 660.667969 26 683.300781 16.109375 706.398438 14.03125 Z M 706.398438 14.03125"/><path style="stroke:none;fill-rule:nonzero;fill:#e83f6a;fill-opacity:1" d="M 426.097656 475.875 C 448.746094 472.96875 472.609375 477.78125 491.425781 491.03125 C 515.167969 507.4375 530 535.96875 529.402344 564.84375 C 530.015625 595.84375 512.664062 626.453125 485.691406 641.859375 C 450.855469 662.671875 402.171875 656.734375 374.304688 626.921875 C 343.484375 596.5 341.359375 543.1875 368.117188 509.53125 C 382.011719 491.21875 403.453125 479.28125 426.097656 475.875 Z M 426.097656 475.875"/><path style="stroke:none;fill-rule:nonzero;fill:#e83f6a;fill-opacity:1" d="M 217.378906 505 C 220.878906 499.953125 223.894531 494.5625 227.789062 489.78125 C 227.835938 597.546875 227.976562 705.328125 227.710938 813.09375 C 156.410156 813.203125 85.097656 813.078125 13.800781 813.15625 C 81.207031 710.15625 149.597656 607.765625 217.378906 505 Z M 217.378906 505"/><path style="stroke:none;fill-rule:nonzero;fill:#e83f6a;fill-opacity:1" d="M 427.175781 672.046875 C 465.953125 667.703125 506.632812 683.78125 531.21875 714.203125 C 552.816406 740.140625 562.144531 775.5625 556.660156 808.78125 C 552.207031 838.671875 535.609375 866.421875 511.445312 884.59375 C 489.878906 900.96875 462.5 909.25 435.476562 908.375 C 401.390625 907.46875 367.898438 891.203125 346.691406 864.4375 C 317.699219 829.03125 312.699219 776.609375 333.53125 736.03125 C 351.019531 700.5 387.714844 675.53125 427.175781 672.046875 Z M 427.175781 672.046875"/><path style="stroke:none;fill-rule:nonzero;fill:#fff;fill-opacity:1" d="M 109.101562 0 L 160.867188 0 C 179.214844 5.25 196.890625 14.109375 210.316406 27.875 C 230.179688 46.78125 241.351562 74.03125 241.429688 101.328125 C 235.570312 101.609375 229.679688 101.5 223.785156 101.484375 C 222.863281 75.484375 212.035156 49.3125 191.386719 32.84375 C 167.460938 12.953125 132.71875 7.515625 103.695312 18.5625 C 83.910156 25.828125 67.078125 40.578125 57.308594 59.25 C 43.542969 85.109375 43.324219 117.859375 57.355469 143.65625 C 66.296875 160.21875 81.160156 173.53125 98.679688 180.46875 C 114.871094 186.46875 132.09375 188.796875 149.066406 191.390625 C 176.964844 195.015625 204.546875 205.640625 225.738281 224.453125 C 252.292969 247.453125 268.015625 281.953125 268.953125 316.921875 C 270.8125 355.53125 254.292969 394.40625 225.847656 420.484375 C 193.890625 450.8125 146.207031 462.53125 103.554688 452.140625 C 45.027344 439.125 0.125 382.203125 1.390625 322.375 C 7.140625 322.359375 12.894531 322.375 18.628906 322.359375 C 18.925781 356.796875 33.835938 391.296875 60.890625 413.140625 C 86.769531 434.5 122.183594 443.75 155.222656 437.765625 C 189.183594 432.21875 220.097656 410.5625 236.554688 380.328125 C 260.875 337.40625 254.761719 278.765625 219.941406 243.234375 C 205.6875 230.203125 188.808594 219.6875 170.226562 214.109375 C 152.925781 208.71875 134.84375 206.828125 117.136719 203.265625 C 88.082031 197.4375 59.734375 181.84375 43.683594 156.328125 C 30.179688 135.328125 27.023438 109.25 30.179688 84.921875 C 36.429688 48.203125 63.828125 16.359375 98.804688 3.8125 C 102.257812 2.609375 105.695312 1.328125 109.101562 0 Z M 109.101562 0"/><path style="stroke:none;fill-rule:nonzero;fill:#fff;fill-opacity:1" d="M 391.386719 0 L 452.183594 0 C 465.0625 3.515625 477.8125 8.125 489.035156 15.515625 C 519.855469 35.546875 538.203125 69.9375 547.550781 104.59375 C 542.09375 104.734375 536.65625 104.75 531.203125 104.578125 C 524.199219 83.671875 515.042969 62.984375 500.117188 46.4375 C 485.894531 30.15625 465.96875 19.15625 444.695312 15.421875 C 414.363281 9.859375 380.808594 15.1875 356.394531 34.921875 C 332.78125 53.96875 319.417969 82.625 311.480469 111.28125 C 302.601562 143.375 299.664062 176.765625 298.835938 209.9375 C 298.164062 256.03125 300.351562 302.90625 314.152344 347.203125 C 323.136719 375.515625 338.5 403.5 363.992188 420.0625 C 402.359375 443.953125 456.871094 441.6875 491.472656 411.84375 C 505.664062 399.34375 515.964844 383.015625 523.464844 365.78125 C 536.125 336.234375 541.25 304.171875 544.15625 272.375 C 502.789062 272.21875 461.433594 272.375 420.082031 272.296875 C 419.816406 266.75 419.816406 261.21875 420.128906 255.6875 C 467.140625 255.59375 514.167969 255.640625 561.160156 255.671875 C 561.363281 267.1875 560.066406 278.703125 558.707031 290.140625 C 553.035156 335.21875 541.46875 382.75 509.617188 416.921875 C 487.957031 440.859375 455.308594 452.40625 423.472656 452.390625 C 395.890625 452.765625 367.445312 445.015625 345.941406 427.21875 C 324.980469 410.375 311.183594 386.3125 301.992188 361.421875 C 290.238281 329.140625 285.285156 294.8125 283.207031 260.65625 C 280.441406 217.359375 282.300781 173.609375 290.253906 130.90625 C 297.210938 95.859375 309.414062 60.359375 333.96875 33.5625 C 349.050781 16.6875 369.742188 5.9375 391.386719 0 Z M 391.386719 0"/><path style="stroke:none;fill-rule:nonzero;fill:#fff;fill-opacity:1" d="M 688.582031 0 L 749.472656 0 C 770.429688 5.390625 790.558594 15.484375 805.421875 31.46875 C 838.039062 65.46875 849.746094 113.421875 855.667969 158.78125 C 860.152344 195.9375 860.902344 233.59375 857.652344 270.875 C 853.746094 315.390625 845.460938 361.375 820.566406 399.421875 C 803.90625 425.375 776.664062 444.5625 746.078125 449.859375 C 717.230469 455.21875 686.175781 452.421875 660.011719 438.578125 C 635.039062 425.53125 616.957031 402.265625 605.375 377.046875 C 588.746094 340.671875 582.777344 300.515625 580.101562 260.9375 C 577.835938 211.828125 579.039062 161.953125 590.964844 113.984375 C 598.625 84.15625 610.8125 54.34375 632.570312 31.921875 C 647.398438 15.75 667.59375 5.625 688.582031 0 M 706.398438 14.03125 C 683.300781 16.109375 660.667969 26 644.601562 42.875 C 626.363281 61.421875 615.597656 85.859375 608.59375 110.578125 C 600.828125 138.359375 597.625 167.1875 596.152344 195.921875 C 595.011719 246.203125 595.699219 297.46875 610.6875 345.953125 C 617.160156 366.75 626.816406 386.859375 641.304688 403.296875 C 676.703125 443.28125 743.9375 446.953125 785.355469 414.390625 C 798.417969 403.84375 808.53125 390 816.035156 375.078125 C 834.398438 338.203125 839.710938 296.5625 842.226562 255.953125 C 843.539062 195.390625 843.132812 131.96875 816.878906 76 C 808.171875 58.484375 796.105469 42.15625 779.820312 30.984375 C 758.660156 16.1875 731.734375 11.578125 706.398438 14.03125 Z M 706.398438 14.03125"/><path style="stroke:none;fill-rule:nonzero;fill:#fff;fill-opacity:1" d="M 331.953125 550.875 C 338.625 500.828125 385.042969 460.078125 435.476562 459.21875 C 457.527344 458.234375 479.878906 464.140625 498.507812 475.96875 C 526.449219 493.40625 545.75 524.421875 547.660156 557.421875 C 551.253906 601.4375 522.980469 645.09375 482.519531 662 C 491.691406 665.46875 500.882812 669.03125 509.320312 674.078125 C 545.40625 694.59375 570.210938 732.796875 575.445312 773.8125 C 582.871094 830.84375 548.785156 890.046875 496.050781 912.984375 C 459.980469 929.265625 416.863281 929.03125 381.058594 912.140625 C 327.371094 887.8125 293.613281 825.484375 304.601562 767.359375 C 312.699219 718.734375 349.660156 677.1875 396.390625 661.953125 C 353.847656 644.3125 325.042969 596.78125 331.953125 550.875 M 426.097656 475.875 C 403.453125 479.28125 382.011719 491.21875 368.117188 509.53125 C 341.359375 543.1875 343.484375 596.5 374.304688 626.921875 C 402.171875 656.734375 450.855469 662.671875 485.691406 641.859375 C 512.664062 626.453125 530.015625 595.84375 529.402344 564.84375 C 530 535.96875 515.167969 507.4375 491.425781 491.03125 C 472.609375 477.78125 448.746094 472.96875 426.097656 475.875 M 427.175781 672.046875 C 387.714844 675.53125 351.019531 700.5 333.53125 736.03125 C 312.699219 776.609375 317.699219 829.03125 346.691406 864.4375 C 367.898438 891.203125 401.390625 907.46875 435.476562 908.375 C 462.5 909.25 489.878906 900.96875 511.445312 884.59375 C 535.609375 866.421875 552.207031 838.671875 556.660156 808.78125 C 562.144531 775.5625 552.816406 740.140625 531.21875 714.203125 C 506.632812 683.78125 465.953125 667.703125 427.175781 672.046875 Z M 427.175781 672.046875"/><path style="stroke:none;fill-rule:nonzero;fill:#fff;fill-opacity:1" d="M 220.847656 467.25 C 229.226562 467.125 237.585938 467.15625 245.964844 467.234375 C 246.199219 577.734375 245.980469 688.265625 246.058594 798.765625 C 246.089844 803.578125 245.714844 808.40625 246.636719 813.1875 C 261.6875 813.15625 276.75 812.96875 291.785156 813.28125 C 291.816406 818.625 291.816406 823.953125 291.800781 829.3125 C 276.578125 829.59375 261.34375 829.15625 246.105469 829.53125 C 245.839844 858.71875 246.386719 887.90625 245.839844 917.078125 C 239.851562 917.125 233.867188 917.15625 227.898438 917.046875 C 227.789062 887.90625 227.882812 858.765625 227.851562 829.625 C 151.910156 829.09375 75.941406 829.546875 0 829.390625 L 0 800.828125 C 4.953125 794.328125 9.285156 787.375 13.800781 780.578125 C 82.847656 676.15625 151.832031 571.6875 220.847656 467.25 M 217.378906 505 C 149.597656 607.765625 81.207031 710.15625 13.800781 813.15625 C 85.097656 813.078125 156.410156 813.203125 227.710938 813.09375 C 227.976562 705.328125 227.835938 597.546875 227.789062 489.78125 C 223.894531 494.5625 220.878906 499.953125 217.378906 505 Z M 217.378906 505"/></g></svg>