<svg xmlns="http://www.w3.org/2000/svg" xmlns:xlink="http://www.w3.org/1999/xlink" width="1000pt" height="1400pt" version="1.1" viewBox="0 0 1000 1400"><defs><linearGradient id="linear0" x1="500" x2="500" y1="0" y2="1400" gradientUnits="userSpaceOnUse"><stop offset="0" style="stop-color:#e76836;stop-opacity:1"/><stop offset="1" style="stop-color:#ffdb1e;stop-opacity:1"/></linearGradient></defs><g id="surface1"><rect width="1000" height="1400" x="0" y="0" style="fill:url(#linear0);stroke:none"/><path style="stroke:none;fill-rule:nonzero;fill:#fff;fill-opacity:1" d="M 357.898438 0 L 23.300781 0 L 23.300781 19.898438 L 180.398438 19.898438 L 180.398438 523.898438 L 200.800781 523.898438 L 200.800781 19.898438 L 357.898438 19.898438 Z M 357.898438 0"/><path style="stroke:none;fill-rule:nonzero;fill:#fff;fill-opacity:1" d="M 563.699219 0 L 398.199219 0 L 398.199219 523.898438 L 421.5 523.898438 L 421.5 312.101562 C 462.898438 312.101562 545.101562 312.101562 562 312.101562 C 742.898438 294.199219 743.300781 18.699219 563.699219 0 Z M 543.5 291.5 C 542.300781 291.898438 427.398438 290.800781 421.5 290.898438 L 421.5 41.898438 C 421.5 28.5 421.5 20.5 421.5 20.5 C 426.699219 20.5 542.898438 19.699219 543.5 19.898438 C 617.699219 15.699219 675.898438 81.699219 677 153.699219 C 678.199219 227.101562 619.101562 295.800781 543.5 291.5 Z M 543.5 291.5"/><path style="stroke:none;fill-rule:nonzero;fill:#fefbf7;fill-opacity:1" d="M 754.5 503.5 L 754.5 259 L 967.800781 259 L 967.800781 238.699219 L 754.5 238.699219 L 754.5 19.898438 L 968 19.898438 L 968 0 L 732.601562 0 L 732.601562 523.601562 L 1000 523.601562 L 1000 503.5 Z M 754.5 503.5"/><path style="stroke:none;fill-rule:nonzero;fill:#fff;fill-opacity:1" d="M 558.101562 771.199219 C 602.898438 752.101562 634.898438 706.601562 634.898438 657.699219 C 634.898438 588.898438 578 534.300781 508.300781 534.300781 C 438.601562 534.300781 381.699219 591.800781 381.699219 657.101562 L 381.699219 657.699219 C 381.699219 706.699219 413.699219 752.101562 458.5 771.199219 C 393.398438 792 349 852.101562 348.199219 920.199219 C 350.300781 1008.199219 420.101562 1077.699219 508.199219 1077.699219 C 596.300781 1077.699219 666.199219 1008.300781 668.300781 920.199219 C 667.699219 852.101562 623.300781 792 558.101562 771.199219 Z M 403 658.5 L 403 657.800781 C 403.199219 600.398438 450.101562 554 507.601562 554.199219 C 565.199219 554.398438 611.601562 601.199219 611.398438 658.5 C 611.199219 715.898438 564.300781 762.300781 506.800781 762.101562 C 449.601562 761.800781 403.199219 715.601562 403 658.5 Z M 508.300781 1058.5 C 432.398438 1059.199219 370.300781 998.398438 369.601562 922.800781 C 369.601562 922.199219 369.601562 921.601562 369.601562 920.898438 L 369.601562 920.199219 C 369.601562 843.800781 431.699219 781.898438 508.300781 782 C 585 782 647 843.898438 647 920.300781 C 647 996.601562 584.800781 1058.5 508.300781 1058.5 Z M 508.300781 1058.5"/><path style="stroke:none;fill-rule:nonzero;fill:#fff;fill-opacity:1" d="M 266 1068.5 L 287.398438 1068.5 L 287.398438 966.300781 L 340.699219 966.300781 L 340.699219 947.199219 L 287.398438 947.199219 L 287.398438 543.5 L 258.300781 543.5 L 1 932.199219 L 1 966.199219 L 266 966.199219 Z M 15.5 947.199219 L 265.898438 569.101562 L 265.898438 947.199219 Z M 15.5 947.199219"/></g></svg>