<?xml version="1.0" encoding="UTF-8" standalone="no"?>
<svg
   width="1000.0037pt"
   height="1400pt"
   viewBox="0 0 1000.0037 1400"
   version="1.1"
   id="svg52"
   xmlns="http://www.w3.org/2000/svg"
   xmlns:svg="http://www.w3.org/2000/svg">
  <defs
     id="defs56" />
  <g
     id="g1353"
     transform="translate(613.00195,141.8738)">
    <rect
       x="-613.00195"
       y="-141.87379"
       width="1000"
       height="1400"
       style="fill:#f390b0;fill-opacity:1;stroke:none"
       id="rect39" />
    <g
       id="g1313"
       transform="translate(-613.00191,-141.8738)">
      <path
         style="fill:#ffffff;fill-opacity:1;fill-rule:nonzero;stroke:none"
         d="m 556.5,792.30078 c 44.30078,-19 75.89844,-64.10156 75.89844,-112.80078 0,-68.30078 -56.29688,-122.5 -125.29688,-122.5 -69,0 -125.30078,57.19922 -125.30078,121.89844 V 679.5 c 0,48.69922 31.59766,93.89844 75.89844,112.80078 -63.30078,20.5 -107.80078,78.19922 -109,148.09766 2.10156,87.30076 71.10156,156.49996 158.40234,156.49996 87.29688,0 156.5,-69 158.39844,-156.49996 -1.30078,-70.5 -46.39844,-128.29688 -109,-148.09766 z m -153.60156,-112 v -0.60156 c 0,-58.39844 45.80078,-104.19922 104.20312,-104.19922 58.39844,0 104.19922,45.80078 104.19922,104.19922 0,57.80078 -45.80078,103.60156 -104.19922,103.60156 -58.40234,0 -104.20312,-45.80078 -104.20312,-103 z m 104.20312,397.59762 c -76.80078,0 -137.30078,-60.6992 -137.30078,-136.69918 v -0.59766 c 0,-76.80078 60.5,-137.5 137.30078,-137.5 76.79688,0 137.29688,60.69922 137.29688,137.5 0,76.79684 -60.5,137.29684 -137.29688,137.29684 z m 0,0"
         id="path41" />
      <path
         style="fill:#ffffff;fill-opacity:1;fill-rule:nonzero;stroke:none"
         d="M 262.39844,1087.8008 H 283.5 V 986.30078 h 52.69922 v -19 H 283.5 V 566 H 254.60156 L 0.101562,952.39844 v 33.70312 H 262.5 V 1087.8008 Z M 14.601562,967.19922 262.39844,591.60156 v 375.59766 z m 0,0"
         id="path43" />
      <path
         style="fill:#ffffff;fill-opacity:1;fill-rule:nonzero;stroke:none"
         d="M 381.80078,520.10156 V 261.30078 L 646,520.10156 h 28.10156 l -264.70312,-260.90234 239,-258.800782 h -25.59766 l -241,259.703122 V 0.398438 H 360.69922 V 520.10156 Z m 0,0"
         id="path45" />
      <path
         style="fill:#ffffff;fill-opacity:1;fill-rule:nonzero;stroke:none"
         d="M 261.5,23.398438 V 399.69922 h -109 V 418.5 h 109 v 99.89844 h 21.10156 V 0 H 252.5 L 0,389.60156 V 426 L 261.30078,23 Z m 0,0"
         id="path47" />
      <path
         style="fill:#ffffff;fill-opacity:1;fill-rule:nonzero;stroke:none"
         d="M 997.80078,356.39844 C 990,319.69922 969.69922,265.5 893.60156,243.80078 c 31,-15.60156 74,-42.40234 74,-114.30078 0,-38.800781 -13.30078,-86.699219 -61.40234,-112 C 892.30078,9.300781 867.60156,0.601562 851.60156,0.601562 H 704.5 V 520.10156 h 130.30078 c 33.09766,0 60.5,-4.20312 83.09766,-12 43.40234,-18.80078 71.70312,-51.90234 80.10156,-100.80078 2.8008,-16.90234 2.6016,-38.60156 -0.19922,-50.90234 z M 725.5,17.5 H 815 c 45.10156,0.601562 64.10156,7 78.89844,15.398438 26.80078,12 52.70312,46.601562 52.70312,93.902342 0,36.69922 -9.30078,72.59766 -52.70312,97.19922 -18.29688,9.89844 -43,13.30078 -73.79688,13.30078 h -94.5 V 17.5 Z M 910.10156,489.69922 C 889,497.5 862.89844,501.10156 835.39844,501.10156 H 725.5 V 256.5 h 94.30078 c 42.19922,0 60.5,0.60156 88.80078,12.69922 43,19 70.39844,59.90234 70.39844,112 -0.80078,57.90234 -29.69922,91.69922 -68.89844,108.5 z m 0,0"
         id="path49" />
    </g>
  </g>
</svg>
