<?xml version="1.0" encoding="UTF-8"?>
<svg xmlns="http://www.w3.org/2000/svg" xmlns:xlink="http://www.w3.org/1999/xlink" width="1000pt" height="1400pt" viewBox="0 0 1000 1400" version="1.1">
<g id="surface1">
<rect x="0" y="0" width="1000" height="1400" style="fill:rgb(90.196078%,0%,7.058824%);fill-opacity:1;stroke:none;"/>
<path style=" stroke:none;fill-rule:nonzero;fill:rgb(100%,100%,100%);fill-opacity:1;" d="M 0 0 L 978.898438 0 L 978.898438 1378.199219 L 0 1378.199219 Z M 0 0 "/>
<path style=" stroke:none;fill-rule:evenodd;fill:rgb(90.196078%,0%,7.058824%);fill-opacity:1;" d="M 550.398438 759.898438 C 594.898438 740.699219 624.101562 697.101562 625.199219 648.398438 C 624.398438 580.699219 569.300781 526.5 502 527.300781 C 502 527.300781 502 527.300781 501.898438 527.300781 C 434.101562 527.300781 378.699219 583.699219 378.699219 647.800781 L 378.699219 648.398438 C 379.699219 697.101562 408.898438 740.699219 453.398438 759.898438 C 371.601562 786.800781 327 875.398438 353.800781 957.699219 C 380.601562 1040 468.601562 1084.898438 550.398438 1057.898438 C 632.199219 1031 676.800781 942.398438 650 860.101562 C 634.601562 812.699219 597.601562 775.5 550.398438 759.898438 Z M 399.398438 649.199219 L 399.398438 648.5 C 399.601562 592.101562 445.199219 546.601562 501.199219 546.800781 C 557.199219 547 602.5 592.898438 602.300781 649.199219 C 602.101562 705.601562 556.5 751.101562 500.5 750.898438 C 444.800781 750.699219 399.601562 705.300781 399.398438 649.199219 Z M 501.898438 1042 C 428 1042.699219 367.601562 983.101562 366.898438 908.800781 C 366.898438 908.199219 366.898438 907.5 366.898438 906.898438 L 366.898438 906.199219 C 366.898438 831.199219 427.398438 770.398438 501.898438 770.5 C 576.5 770.5 636.898438 831.300781 636.800781 906.300781 C 636.898438 981.300781 576.398438 1042 501.898438 1042 Z M 501.898438 1042 "/>
<path style=" stroke:none;fill-rule:evenodd;fill:rgb(90.196078%,0%,7.058824%);fill-opacity:1;" d="M 252.398438 1051.800781 L 273.101562 1051.800781 L 273.101562 951.5 L 325.101562 951.5 L 325.101562 932.699219 L 273.101562 932.699219 L 273.101562 536.398438 L 244.800781 536.398438 L -5.601562 917.898438 L -5.601562 951.398438 L 252.398438 951.398438 Z M 8.699219 932.699219 L 252.300781 561.5 L 252.300781 932.699219 Z M 8.699219 932.699219 "/>
<path style=" stroke:none;fill-rule:evenodd;fill:rgb(90.196078%,0%,7.058824%);fill-opacity:1;" d="M 269.800781 490.5 L 269.800781 -0.300781 L 290.800781 -0.300781 L 290.800781 518.601562 L 260.800781 518.601562 L 40.699219 20.699219 L 40.699219 518.601562 L 19.800781 518.601562 L 19.800781 -0.300781 L 54.5 -0.300781 Z M 269.800781 490.5 "/>
<path style=" stroke:none;fill-rule:evenodd;fill:rgb(90.196078%,0%,7.058824%);fill-opacity:1;" d="M 631.300781 114.101562 C 620.398438 90.101562 605.398438 68.199219 587 49.300781 C 564.699219 26 534 12.800781 501.800781 12.800781 C 416.398438 12.800781 349.300781 115.601562 349.300781 255.800781 C 349.300781 396 416.5 497.398438 501.800781 497.398438 C 542.699219 497.398438 578.800781 475.199219 605.800781 440.898438 C 632.800781 406.601562 649.699219 359.699219 655.398438 312.5 L 501.898438 312.5 L 501.898438 294 L 677.199219 294 C 675.300781 319.398438 670.5 344.398438 662.601562 368.601562 C 636.101562 454.800781 572.601562 517.101562 501.898438 517.101562 C 409.5 517.101562 328.300781 407.101562 328.300781 255.199219 C 328.300781 103.300781 409.5 -7 501.898438 -7 C 561.101562 -7 624.300781 38.800781 653.5 114.101562 Z M 631.300781 114.101562 "/>
<path style=" stroke:none;fill-rule:evenodd;fill:rgb(90.196078%,0%,7.058824%);fill-opacity:1;" d="M 798.101562 18.601562 L 657.898438 18.601562 L 657.898438 -0.300781 L 959.101562 -0.300781 L 959.101562 18.601562 L 819 18.601562 L 819 518.601562 L 798.101562 518.601562 Z M 798.101562 18.601562 "/>
</g>
</svg>
