<?xml version="1.0" encoding="UTF-8"?>
<svg xmlns="http://www.w3.org/2000/svg" xmlns:xlink="http://www.w3.org/1999/xlink" width="1000pt" height="1400pt" viewBox="0 0 1000 1400" version="1.1">
<g id="surface1">
<path style=" stroke:none;fill-rule:nonzero;fill:rgb(49.803922%,31.372549%,10.588235%);fill-opacity:1;" d="M 0 0 L 1000.25 0 L 1000.25 1399.75 L 0 1399.75 Z M 0 0 "/>
<path style=" stroke:none;fill-rule:nonzero;fill:rgb(100%,100%,100%);fill-opacity:1;" d="M 10.457031 944.433594 L 258.332031 568.359375 L 258.332031 944.433594 Z M 258.332031 1065.09375 L 279.449219 1065.09375 L 279.449219 963.488281 L 332.25 963.488281 L 332.25 944.433594 L 279.449219 944.433594 L 279.449219 542.910156 L 250.574219 542.910156 L 0.324219 923.207031 L 0 923.707031 L 0 963.488281 L 258.332031 963.488281 Z M 258.332031 1065.09375 "/>
<path style=" stroke:none;fill-rule:nonzero;fill:rgb(100%,100%,100%);fill-opacity:1;" d="M 32.664062 525.183594 L 32.664062 29.746094 L 271.316406 525.222656 L 278.171875 525.183594 L 296 525.183594 L 296 0 L 276.003906 0 L 276.003906 496.476562 L 39.589844 0.648438 L 39.28125 0 L 12.65625 0 L 12.65625 525.183594 Z M 32.664062 525.183594 "/>
<path style=" stroke:none;fill-rule:nonzero;fill:rgb(100%,100%,100%);fill-opacity:1;" d="M 514.027344 1058.414062 C 437.0625 1058.414062 376.3125 997.476562 376.3125 921.082031 L 376.3125 920.417969 C 376.3125 843.25 437.0625 782.394531 514.027344 782.394531 C 591.003906 782.394531 651.6875 843.25 651.6875 920.417969 C 651.6875 997.476562 591.003906 1058.414062 514.027344 1058.414062 M 409.523438 659.253906 L 409.523438 658.496094 C 409.523438 599.8125 455.414062 553.851562 514.027344 553.851562 C 572.664062 553.851562 618.503906 599.8125 618.503906 658.496094 C 618.503906 716.582031 572.664062 762.585938 514.027344 762.585938 C 455.414062 762.585938 409.523438 716.582031 409.523438 659.253906 M 563.449219 771.769531 C 607.925781 752.664062 639.644531 707.347656 639.644531 658.496094 C 639.644531 589.890625 583.214844 535.445312 514.027344 535.445312 C 444.839844 535.445312 388.355469 592.75 388.355469 657.859375 L 388.355469 658.496094 C 388.355469 707.347656 420.113281 752.664062 464.523438 771.769531 C 401.007812 792.320312 356.542969 850.300781 355.128906 920.417969 C 357.230469 1008.171875 426.472656 1077.507812 514.027344 1077.507812 C 601.566406 1077.507812 670.769531 1008.171875 672.898438 920.417969 C 671.535156 849.636719 626.277344 791.578125 563.449219 771.769531 "/>
<path style=" stroke:none;fill-rule:nonzero;fill:rgb(100%,100%,100%);fill-opacity:1;" d="M 946.570312 127.734375 C 946.570312 164.746094 937.3125 201.054688 893.457031 225.953125 C 875.039062 235.945312 850.273438 239.425781 819.109375 239.425781 L 724.238281 239.425781 L 724.238281 17.390625 L 814.148438 17.390625 C 859.503906 18.054688 878.609375 24.480469 893.457031 33.039062 C 920.378906 45.152344 946.570312 80.058594 946.570312 127.734375 M 908.34375 271.5625 C 951.527344 290.738281 979.109375 332.054688 979.109375 384.703125 C 978.394531 443.128906 949.414062 477.289062 909.785156 494.34375 C 888.472656 502.1875 862.277344 505.765625 834.722656 505.765625 L 724.238281 505.765625 L 724.238281 258.761719 L 819.109375 258.761719 C 861.617188 258.761719 880.007812 259.453125 908.34375 271.5625 M 833.996094 524.980469 C 867.289062 524.980469 894.832031 520.699219 917.5625 512.910156 C 961.191406 493.949219 989.511719 460.398438 998.136719 411.097656 C 998.242188 410.53125 998.296875 409.9375 998.40625 409.382812 C 1001.003906 393.207031 1000.722656 373.320312 998.40625 361.085938 C 998.324219 360.613281 998.242188 360.074219 998.136719 359.628906 C 990.265625 322.480469 970 267.878906 893.457031 245.949219 C 924.621094 230.230469 967.792969 203.1875 967.792969 130.554688 C 967.792969 91.414062 954.386719 43.03125 906.214844 17.390625 C 894.007812 10.152344 873.824219 2.578125 858.167969 0.648438 C 855.703125 0.351562 853.34375 0.160156 851.164062 0.160156 L 702.976562 0.160156 L 702.976562 524.980469 Z M 833.996094 524.980469 "/>
<path style=" stroke:none;fill-rule:nonzero;fill:rgb(100%,100%,100%);fill-opacity:1;" d="M 352.945312 525.183594 L 352.945312 45.976562 L 500.660156 525.183594 L 500.660156 525.195312 L 647.902344 47.488281 L 647.902344 525.183594 L 667.910156 525.183594 L 667.910156 0 L 647.902344 0 L 647.902344 0.0273438 L 642.417969 0.0273438 L 642.253906 0.648438 L 500.660156 470.511719 L 359.074219 0.648438 L 358.886719 0 L 332.949219 0 L 332.949219 525.183594 Z M 352.945312 525.183594 "/>
</g>
</svg>
