<svg xmlns="http://www.w3.org/2000/svg" xmlns:xlink="http://www.w3.org/1999/xlink" width="1000pt" height="1400pt" viewBox="0 0 1000 1400"><defs><filter id="b" color-interpolation-filters="sRGB"><feFlood flood-color="#000" flood-opacity=".5"/><feComposite in2="SourceGraphic" operator="in"/><feGaussianBlur stdDeviation="4"/><feOffset dx="-12" dy="12"/><feComposite in="SourceGraphic"/></filter></defs><linearGradient id="a" x1="71.89" x2="928.11" y1="-41.51" y2="1441.51" gradientUnits="userSpaceOnUse"><stop offset="0" stop-color="#97a8b8"/><stop offset=".3" stop-color="#e7ecf0"/><stop offset=".75" stop-color="#435d73"/><stop offset=".75" stop-color="#425b71"/><stop offset=".8" stop-color="#364a59"/><stop offset=".84" stop-color="#2e3d48"/><stop offset=".89" stop-color="#29353e"/><stop offset=".95" stop-color="#27333b"/></linearGradient><path fill="url(#a)" d="M0 0h1000v1400H0z"/><g filter="url(#b)"><path d="M158.6 213.5c-56 0-101.5-45.5-101.5-101.5 0-56.1 45.4-101.5 101.5-101.5S260.1 55.9 260.1 112c0 1.1 0 2.3-.1 3.4h24.5c0-.7.1-1.4.1-2 0-69.6-56.4-125.9-125.9-125.9-69.6 0-125.9 56.4-125.9 125.9s56.4 125.9 125.9 125.9h.7c74.1 0 134.2 60.1 134.2 134.2s-60.1 134.2-134.2 134.2S25.2 447.6 25.2 373.5c0-.7 0-1.5.1-2.2H-1.3c0 .7-.1 1.5-.1 2.2 0 88.4 71.6 160 160 160s160-71.6 160-160-71.6-160-160-160zM490.8 7.7c-49.4-9.2-150-4.7-150-4.7v514s61.1 2.7 139.2-6.3c240.4-38.4 249.7-447.1 10.8-503zM567.4 448c-52.2 55.3-199.3 48.2-199.3 48.2L368 23.3s86.9-5.9 127.5 6.5C663.7 83.2 689.4 335 567.4 448z"/><path d="M969.7-.2l-.2 527.2C879.6 383.4 802.6 231.3 716.2 85.4l-.1 434.3h-26.6V-3.9l252.6 441.2.3-437.4M280.4 939.8l-.4-398.3h-29.4L-6.7 925.7v38l263 .1v98.3h24.1v-98.3l52.2-.1v-23.9h-52.2zm-24.1 0c-81.1-.1-162.2.3-243.3-.2l243.2-369.1.1 369.3z"/><path d="M405.6 575.6c65.2-78.2 202.8-43.7 220.5 57.4 12.3 53.6-17.7 112-66.6 136.1 203.5 90.2 71.7 379.6-129.7 289.5-122.8-58.4-113.3-242.3 14-289.1-71-35.7-92.5-134.4-38.2-193.9zm-7 74.2c-4.5 143.1 208 145.3 206.1 2.3-8.7-126-193.5-129-206.1-2.3zm88.6 130.5c-137.8 14.8-166.6 207.1-40.3 263.1 57.2 27.3 130.9 5.7 166-46.6 67.9-91.9-11.2-231.9-125.7-216.5z"/></g></svg>