<svg xmlns="http://www.w3.org/2000/svg" xmlns:xlink="http://www.w3.org/1999/xlink" width="1000pt" height="1400pt" version="1.1" viewBox="0 0 1000 1400"><g id="surface1"><path style="stroke:none;fill-rule:nonzero;fill:#f7b400;fill-opacity:1" d="M 0 0 L 999.300781 0 L 999.300781 1400 L 0 1400 Z M 0 0"/><path style="stroke:none;fill-rule:nonzero;fill:#fff;fill-opacity:1" d="M 564.398438 777.800781 C 608.699219 758.898438 640.300781 714 640.300781 665.601562 C 640.300781 597.601562 584.101562 543.699219 515.199219 543.699219 C 446.300781 543.699219 390.101562 600.5 390.101562 665 L 390.101562 665.601562 C 390.101562 714 421.699219 758.898438 466 777.800781 C 401.699219 798.398438 357.800781 857.699219 357 925 C 359.101562 1012 428 1080.601562 515.101562 1080.601562 C 602.199219 1080.601562 671.199219 1012 673.300781 925 C 672.699219 857.699219 628.800781 798.300781 564.398438 777.800781 Z M 411.101562 666.398438 L 411.101562 665.699219 C 411.300781 609 457.601562 563.101562 514.5 563.300781 C 571.398438 563.5 617.300781 609.699219 617.101562 666.398438 C 616.898438 723.101562 570.601562 769 513.699219 768.800781 C 457.199219 768.5 411.300781 722.800781 411.101562 666.398438 Z M 515.199219 1061.699219 C 440.199219 1062.398438 378.800781 1002.300781 378.101562 927.601562 C 378.101562 927 378.101562 926.398438 378.101562 925.699219 L 378.101562 925 C 378.101562 849.5 439.5 788.300781 515.199219 788.398438 C 590.898438 788.5 652.199219 849.601562 652.199219 925.101562 C 652.199219 1000.5 590.800781 1061.699219 515.199219 1061.699219 Z M 515.199219 1061.699219"/><path style="stroke:none;fill-rule:nonzero;fill:#fff;fill-opacity:1" d="M 261.898438 1071.601562 L 283 1071.601562 L 283 970.601562 L 335.699219 970.601562 L 335.699219 951.699219 L 283 951.699219 L 283 552.800781 L 254.199219 552.800781 L 0 936.898438 L 0 970.5 L 261.898438 970.5 Z M 14.398438 951.699219 L 261.800781 578.101562 L 261.800781 951.699219 Z M 14.398438 951.699219"/><path style="stroke:none;fill-rule:nonzero;fill:#fff;fill-opacity:1" d="M 401.101562 533.699219 L 401.101562 273.101562 L 668.101562 533.699219 L 696.601562 533.699219 L 428.800781 270.898438 L 670.5 10.300781 L 644.800781 10.300781 L 401.101562 271.699219 L 401.101562 10.300781 L 379.699219 10.300781 L 379.699219 533.699219 Z M 401.101562 533.699219"/><path style="stroke:none;fill-rule:nonzero;fill:#fff;fill-opacity:1" d="M 959.300781 29.398438 L 959.300781 10.300781 L 737.5 10.300781 L 737.5 533.699219 L 1000 533.699219 L 1000 514.601562 L 758.898438 514.601562 L 758.898438 270.199219 L 959.601562 270.199219 L 959.601562 248.898438 L 758.898438 248.898438 L 758.898438 29.398438 Z M 959.300781 29.398438"/><path style="stroke:none;fill-rule:nonzero;fill:#fff;fill-opacity:1" d="M 254.101562 256.300781 C 236.398438 245.398438 217 237.5 196.699219 233 C 178.699219 229.300781 141 226.398438 116.398438 215.5 C 82.199219 199.300781 60 165.300781 60 124.300781 L 60 123.601562 C 60 64.699219 105.800781 18.601562 164.300781 18.601562 C 222.800781 18.601562 268.601562 64.699219 268.601562 123.601562 L 289.898438 123.601562 C 289.601562 55 233.699219 -0.300781 165 0 C 164.800781 0 164.5 0 164.300781 0 C 95.199219 0 38.800781 57.5 38.800781 122.898438 L 38.800781 123.601562 C 38.800781 162.800781 53.300781 198.199219 89.699219 222.601562 C 112.5 237.800781 132.601562 243.199219 161.699219 247.800781 C 210.699219 255.601562 230.199219 263.601562 259.898438 287.699219 C 263.699219 291 267 294.300781 269.300781 296.800781 C 290.398438 321.898438 301.898438 353.699219 301.699219 386.5 C 301.699219 463.800781 241.101562 525 164.199219 525 C 88.601562 525.300781 27 464.398438 26.800781 389 C 26.800781 388.300781 26.800781 387.699219 26.800781 387 L 26.800781 386.300781 C 26.800781 386.300781 26.800781 386 26.800781 385.898438 L 5 385.898438 C 5 385.898438 5.199219 388.101562 5.199219 388.300781 C 7.300781 476.300781 76.898438 544 164.300781 544 C 251.699219 544 320.898438 474.398438 322.898438 386.398438 C 321.898438 329.5 296.898438 285.199219 254.101562 256.300781 Z M 254.101562 256.300781"/></g></svg>