<svg xmlns="http://www.w3.org/2000/svg" xmlns:xlink="http://www.w3.org/1999/xlink" width="1000pt" height="1400pt" version="1.1" viewBox="0 0 1000 1400"><g id="surface1"><path style="stroke:none;fill-rule:nonzero;fill:#fff;fill-opacity:1" d="M 1.046875 0 L 998.953125 0 L 998.953125 1400 L 1.046875 1400 Z M 1.046875 0"/><path style="stroke:none;fill-rule:nonzero;fill:#c7e8fa;fill-opacity:1" d="M 1.046875 0 L 998.953125 0 L 998.953125 90.628906 L 1.046875 90.628906 Z M 1.046875 0"/><path style="stroke:none;fill-rule:nonzero;fill:#c7e8fa;fill-opacity:1" d="M 1.046875 187.300781 L 998.953125 187.300781 L 998.953125 277.929688 L 1.046875 277.929688 Z M 1.046875 187.300781"/><path style="stroke:none;fill-rule:nonzero;fill:#c7e8fa;fill-opacity:1" d="M 1.046875 373.734375 L 998.953125 373.734375 L 998.953125 464.363281 L 1.046875 464.363281 Z M 1.046875 373.734375"/><path style="stroke:none;fill-rule:nonzero;fill:#c7e8fa;fill-opacity:1" d="M 1.046875 561.035156 L 998.953125 561.035156 L 998.953125 651.664062 L 1.046875 651.664062 Z M 1.046875 561.035156"/><path style="stroke:none;fill-rule:nonzero;fill:#c7e8fa;fill-opacity:1" d="M 1.046875 748.335938 L 998.953125 748.335938 L 998.953125 838.964844 L 1.046875 838.964844 Z M 1.046875 748.335938"/><path style="stroke:none;fill-rule:nonzero;fill:#c7e8fa;fill-opacity:1" d="M 1.046875 934.773438 L 998.953125 934.773438 L 998.953125 1025.402344 L 1.046875 1025.402344 Z M 1.046875 934.773438"/><path style="stroke:none;fill-rule:nonzero;fill:#c7e8fa;fill-opacity:1" d="M 1.046875 1122.070312 L 998.953125 1122.070312 L 998.953125 1212.699219 L 1.046875 1212.699219 Z M 1.046875 1122.070312"/><path style="stroke:none;fill-rule:nonzero;fill:#c7e8fa;fill-opacity:1" d="M 1.046875 1309.371094 L 998.953125 1309.371094 L 998.953125 1400 L 1.046875 1400 Z M 1.046875 1309.371094"/><path style="stroke:none;fill-rule:nonzero;fill:#004ea2;fill-opacity:1" d="M 562.421875 771.640625 C 606.335938 752.652344 638.191406 707.769531 638.191406 658.570312 C 638.191406 590.382812 581.363281 535.140625 512.484375 535.140625 C 443.605469 535.140625 386.777344 592.109375 386.777344 657.707031 L 386.777344 658.570312 C 386.777344 707.769531 418.636719 752.652344 462.546875 771.640625 C 398.832031 792.355469 354.921875 850.183594 353.199219 920.097656 C 354.921875 1008.136719 424.660156 1077.1875 511.625 1077.1875 C 599.445312 1077.1875 668.328125 1008.136719 670.046875 920.097656 C 670.046875 850.183594 624.414062 791.492188 562.421875 771.640625 Z M 408.304688 659.433594 C 408.304688 599.875 453.9375 554.128906 512.484375 554.128906 C 571.03125 554.128906 616.667969 599.875 616.667969 658.570312 C 616.667969 716.398438 571.03125 763.007812 512.484375 763.007812 C 453.9375 763.007812 408.304688 716.398438 408.304688 659.433594 Z M 512.484375 1058.199219 C 435.855469 1058.199219 374.722656 996.917969 374.722656 920.960938 L 374.722656 920.097656 C 374.722656 843.28125 434.992188 781.996094 512.484375 781.996094 C 589.113281 781.996094 650.246094 843.28125 650.246094 920.097656 C 650.246094 996.917969 589.976562 1058.199219 512.484375 1058.199219 Z M 512.484375 1058.199219"/><path style="stroke:none;fill-rule:nonzero;fill:#004ea2;fill-opacity:1" d="M 258.488281 1068.558594 L 280.011719 1068.558594 L 280.011719 966.707031 L 333.394531 966.707031 L 333.394531 947.71875 L 280.011719 947.71875 L 280.011719 544.636719 L 250.738281 544.636719 L 1.046875 923.550781 L 1.046875 965.84375 L 258.488281 965.84375 Z M 9.65625 947.71875 L 258.488281 570.53125 L 258.488281 947.71875 Z M 9.65625 947.71875"/><path style="stroke:none;fill-rule:nonzero;fill:#004ea2;fill-opacity:1" d="M 250.738281 245.992188 C 232.65625 234.773438 211.132812 226.140625 193.050781 222.6875 C 174.96875 219.234375 137.085938 215.78125 112.117188 205.425781 C 77.675781 189.027344 55.289062 154.5 55.289062 113.070312 L 55.289062 112.207031 C 55.289062 51.789062 101.785156 5.179688 160.332031 5.179688 C 218.882812 5.179688 265.375 51.789062 265.375 111.34375 L 286.902344 111.34375 C 286.039062 62.144531 257.625 20.714844 216.296875 0 L 105.230469 0 C 63.039062 20.714844 34.625 63.871094 34.625 110.480469 L 34.625 111.34375 C 34.625 151.046875 49.261719 186.4375 85.425781 211.46875 C 108.671875 227.003906 128.476562 232.183594 157.75 236.5 C 206.828125 244.265625 226.628906 252.898438 256.765625 276.203125 C 260.210938 279.65625 263.652344 283.105469 266.238281 285.695312 C 286.902344 309.863281 298.957031 341.800781 298.957031 376.324219 C 298.957031 454.007812 237.824219 516.152344 161.195312 516.152344 C 83.703125 516.152344 23.433594 454.007812 23.433594 377.1875 L 23.433594 376.324219 C 23.433594 376.324219 23.433594 376.324219 23.433594 375.460938 L 1.046875 375.460938 L 1.046875 384.09375 C 6.214844 469.542969 74.234375 535.140625 160.332031 535.140625 C 248.15625 535.140625 317.898438 465.226562 319.621094 376.324219 C 318.757812 319.359375 293.789062 274.476562 250.738281 245.992188 Z M 250.738281 245.992188"/><path style="stroke:none;fill-rule:nonzero;fill:#004ea2;fill-opacity:1" d="M 955.902344 0 L 955.902344 376.324219 C 955.902344 454.007812 900.796875 516.152344 825.03125 516.152344 C 749.261719 516.152344 695.019531 454.871094 695.019531 376.324219 L 695.019531 0 L 325.644531 0 L 325.644531 18.988281 L 500.429688 18.988281 L 500.429688 520.46875 L 521.957031 520.46875 L 521.957031 18.988281 L 674.355469 18.988281 L 674.355469 376.324219 C 676.9375 465.226562 733.761719 535.140625 825.890625 535.140625 C 918.019531 535.140625 975.707031 465.226562 977.429688 376.324219 L 977.429688 0 Z M 955.902344 0"/></g></svg>