<svg xmlns="http://www.w3.org/2000/svg" xmlns:xlink="http://www.w3.org/1999/xlink" width="1000pt" height="1400pt" version="1.1" viewBox="0 0 1000 1400"><g id="surface1"><rect width="1000" height="1400" x="0" y="0" style="fill:#fe2373;fill-opacity:1;stroke:none"/><path style="stroke:none;fill-rule:nonzero;fill:#fbfcfe;fill-opacity:1" d="M 260.199219 263 C 358.800781 195.398438 317.699219 18.800781 192.398438 19.398438 C 165.5 19.398438 41.601562 19.398438 17.398438 19.398438 L 17.398438 538.601562 C 39.699219 538.601562 187.398438 538.601562 213.199219 538.601562 L 213.199219 538.5 C 364.800781 538.800781 391.398438 316.5 260.199219 263 Z M 53.300781 54.199219 C 98.800781 57.800781 213 41.199219 249.800781 77.101562 C 306.699219 126.800781 278.800781 234.800781 204.699219 248.300781 C 201.601562 249.699219 59.800781 248.199219 53.398438 248.699219 L 53.398438 54.199219 Z M 252.300781 495.601562 C 217.199219 508.101562 91.398438 502.101562 53.398438 503.300781 L 53.398438 286.601562 C 73.398438 287.199219 216.398438 284.601562 232.601562 289.398438 C 322.398438 309.5 339.398438 461.101562 252.300781 495.601562 Z M 252.300781 495.601562"/><path style="stroke:none;fill-rule:nonzero;fill:#fbfcfe;fill-opacity:1" d="M 426.101562 499.601562 L 426.101562 279.5 L 644.800781 279.5 L 644.800781 241.199219 L 426.101562 241.199219 L 426.101562 55.398438 L 644.800781 55.398438 L 644.800781 18.101562 L 388.398438 18.101562 L 388.398438 538.101562 L 677.800781 538.101562 L 677.800781 499.601562 Z M 426.101562 499.601562"/><path style="stroke:none;fill-rule:nonzero;fill:#fbfcfe;fill-opacity:1" d="M 979.601562 17.101562 C 979.601562 17.101562 944.800781 17.101562 944.800781 17.101562 C 944.898438 17.101562 944.699219 375.601562 944.898438 375.398438 C 944.800781 401.398438 940.898438 427.699219 928.601562 450.800781 C 895.300781 517.199219 793.699219 521.898438 746.898438 469.300781 C 724.5 443.800781 725.898438 407.601562 725.398438 375.5 C 715.699219 375.398438 705.898438 375.398438 696.199219 375.5 L 690.398438 375.5 C 690.398438 375.5 690.398438 398.5 690.398438 398.398438 C 680 574.898438 951.898438 590.398438 976.300781 420.601562 C 981.800781 417.199219 979.101562 36.800781 979.601562 17.101562 Z M 979.601562 17.101562"/><path style="stroke:none;fill-rule:nonzero;fill:#fefefd;fill-opacity:1" d="M 361.300781 956.5 C 361.300781 956.5 309.101562 956.5 309.101562 956.5 C 309.101562 956.5 309.101562 566.300781 309.101562 566.300781 L 269 566.300781 C 184.199219 694.398438 123.800781 786.800781 17.800781 947.398438 C 17.800781 947.398438 17.800781 990.398438 17.800781 990.398438 C 17.800781 990.398438 273.300781 990.398438 273.300781 990.398438 L 273.300781 1089.898438 C 273.300781 1089.898438 309.101562 1089.898438 309.101562 1089.898438 C 309.101562 1089.898438 309.101562 990.398438 309.101562 990.398438 L 361.300781 990.398438 C 361.300781 990.398438 361.5 956.300781 361.300781 956.5 Z M 53.800781 956.5 C 66 938.101562 261.601562 641.398438 273.398438 623.601562 C 273.398438 623.601562 273.398438 956.398438 273.398438 956.398438 C 273.300781 956.5 53.601562 956.199219 53.800781 956.5 Z M 53.800781 956.5"/><path style="stroke:none;fill-rule:nonzero;fill:#fefefd;fill-opacity:1" d="M 506.5 570.199219 C 645.398438 540.5 721 713.398438 603.300781 795.199219 C 749.101562 863.300781 704.199219 1081.699219 544.699219 1089.398438 C 375.699219 1098.5 315 866.699219 470.101562 794.800781 C 376.699219 735.800781 399.300781 596.5 506.5 570.199219 M 529.800781 599.398438 C 452.300781 602.800781 417.199219 703.300781 473.898438 755.199219 C 502.898438 782.898438 550.601562 786.800781 584.398438 765.898438 C 663.300781 717.101562 622.898438 591.898438 529.800781 599.398438 M 522 814.199219 C 432.300781 821.300781 384.5 931.398438 435.5 1003.800781 C 474.199219 1064.601562 568.800781 1074 619.898438 1023.699219 C 703.800781 945.800781 637.300781 798.101562 522 814.199219 Z M 522 814.199219"/></g></svg>