<?xml version="1.0" encoding="UTF-8" standalone="no"?>
<svg
   xmlns:dc="http://purl.org/dc/elements/1.1/"
   xmlns:cc="http://creativecommons.org/ns#"
   xmlns:rdf="http://www.w3.org/1999/02/22-rdf-syntax-ns#"
   xmlns:svg="http://www.w3.org/2000/svg"
   xmlns="http://www.w3.org/2000/svg"
   width="1000pt"
   height="1400pt"
   viewBox="0 0 1000 1400"
   version="1.1"
   id="svg15">
  <metadata
     id="metadata21">
    <rdf:RDF>
      <cc:Work
         rdf:about="">
        <dc:format>image/svg+xml</dc:format>
        <dc:type
           rdf:resource="http://purl.org/dc/dcmitype/StillImage" />
        <dc:title></dc:title>
      </cc:Work>
    </rdf:RDF>
  </metadata>
  <defs
     id="defs19" />
  <g
     id="layer1"
     transform="matrix(6.4820883,0,0,6.5095554,-344.23552,-23.374336)">
    <rect
       style="fill:#e8e244;fill-opacity:1;stroke:none;stroke-width:5.38215;stroke-linecap:square;stroke-miterlimit:4;stroke-dasharray:none;stroke-opacity:1;paint-order:markers fill stroke"
       id="rect953"
       width="154.27127"
       height="215.06845"
       x="53.105652"
       y="3.5907731" />
    <path
       style="fill:none;stroke:#ffffff;stroke-width:4.20718;stroke-linecap:butt;stroke-linejoin:miter;stroke-miterlimit:4;stroke-dasharray:none;stroke-opacity:1"
       d="m 97.475188,6.8640918 c -3.251937,0 -6.504139,0 -9.956893,0.4313317 -3.452753,0.4313317 -7.105838,1.2940059 -10.491788,2.7469825 -3.38595,1.452977 -6.504437,3.496151 -9.444862,6.470252 -2.940425,2.974101 -5.702459,6.878759 -7.573629,11.033454 -1.87117,4.154695 -2.851246,8.558785 -3.207627,12.622639 -0.35638,4.063854 -0.08908,7.786972 1.046942,12.041304 1.136022,4.254333 3.140529,9.039483 5.991808,13.106447 2.851279,4.066963 6.548835,7.415315 10.090764,9.790775 3.541928,2.37546 6.927751,3.777856 10.870635,4.432985 3.942884,0.655129 8.442504,0.563047 12.941957,0.470968"
       id="path1035" />
    <path
       style="fill:none;stroke:#ffffff;stroke-width:5.02715;stroke-linecap:butt;stroke-linejoin:miter;stroke-miterlimit:4;stroke-dasharray:none;stroke-opacity:1"
       d="M 103.17197,82.648463 103.01074,4.748716"
       id="path871-5" />
    <path
       style="fill:none;stroke:#ffffff;stroke-width:5.027;stroke-linecap:butt;stroke-linejoin:miter;stroke-miterlimit:4;stroke-dasharray:none;stroke-opacity:1"
       d="m 102.77752,43.431584 h 43.15594"
       id="path907" />
    <path
       style="fill:none;stroke:#ffffff;stroke-width:5.027;stroke-linecap:butt;stroke-linejoin:miter;stroke-miterlimit:4;stroke-dasharray:none;stroke-opacity:1"
       d="M 96.856947,162.72574 V 86.25914 H 95.329708 L 58.676057,142.527 v 2.3609 h 48.617053"
       id="path929" />
    <ellipse
       style="fill:none;stroke:#ffffff;stroke-width:5.027;stroke-linecap:square;stroke-miterlimit:4;stroke-dasharray:none;stroke-opacity:1;paint-order:markers fill stroke"
       id="path931"
       cx="132.6855"
       cy="101.93285"
       rx="15.472096"
       ry="15.945031" />
    <ellipse
       style="fill:none;stroke:#ffffff;stroke-width:5.027;stroke-linecap:square;stroke-miterlimit:4;stroke-dasharray:none;stroke-opacity:1;paint-order:markers fill stroke"
       id="path931-6"
       cx="132.94003"
       cy="139.11697"
       rx="19.701653"
       ry="20.369448" />
    <path
       style="fill:none;stroke:#ffffff;stroke-width:5.02715;stroke-linecap:butt;stroke-linejoin:miter;stroke-miterlimit:4;stroke-dasharray:none;stroke-opacity:1"
       d="M 148.15142,82.648463 147.99019,4.748716"
       id="path871-5-7" />
    <path
       style="fill:none;stroke:#ffffff;stroke-width:5.027;stroke-linecap:butt;stroke-linejoin:miter;stroke-miterlimit:4;stroke-dasharray:none;stroke-opacity:1"
       d="m 155.68146,34.81693 c 0.0111,5.434647 0.0334,16.305682 0.41134,22.762208 0.37793,6.456527 1.11156,8.503114 2.33684,10.652824 1.22529,2.14971 2.94115,4.40108 4.93541,6.351271 1.99425,1.950191 4.26582,3.598194 7.01653,4.644933 2.7507,1.046739 5.98007,1.492169 8.94234,1.525542 2.96227,0.03337 5.65718,-0.34525 8.34095,-1.514575 2.68376,-1.169325 5.3564,-3.129262 7.44998,-5.367614 2.09358,-2.238352 3.60804,-4.75503 4.58805,-7.049086 0.98002,-2.294056 1.42546,-4.365347 1.65472,-10.103925 0.22926,-5.738577 0.2423,-15.144065 0.23116,-20.901506 -0.0112,-5.75744 -0.0465,-7.866348 -0.33937,-9.834661 -0.29291,-1.968312 -0.84334,-3.795019 -2.41357,-6.300822 -1.57022,-2.505804 -4.16008,-5.690038 -7.23665,-7.972609 -3.07658,-2.2825704 -6.64025,-3.6634932 -10.68361,-4.0712376 -4.04337,-0.4077443 -8.56609,0.1578079 -12.23256,1.7850915 -3.66647,1.6272831 -6.47605,4.3160851 -8.46871,7.2518041 -1.99267,2.935719 -3.16812,6.117848 -3.78927,8.277025 -0.62115,2.159177 -0.68797,3.295035 -0.72137,3.862862 -0.0334,0.567827 -0.0333,0.567827 -0.0222,6.002475 z"
       id="path1093" />
    <path
       style="fill:none;stroke:#ffffff;stroke-width:5.027;stroke-linecap:butt;stroke-linejoin:miter;stroke-miterlimit:4;stroke-dasharray:none;stroke-opacity:1"
       d="m 185.27043,65.597303 17.77343,16.169806"
       id="path1097" />
  </g>
</svg>
