<?xml version="1.0" encoding="UTF-8"?>
<svg xmlns="http://www.w3.org/2000/svg" xmlns:xlink="http://www.w3.org/1999/xlink" width="1000pt" height="1400pt" viewBox="0 0 1000 1400" version="1.1">
<g id="surface1">
<rect x="0" y="0" width="1000" height="1400" style="fill:rgb(64.313725%,38.431373%,0.392157%);fill-opacity:1;stroke:none;"/>
<path style=" stroke:none;fill-rule:nonzero;fill:rgb(100%,100%,100%);fill-opacity:1;" d="M 103.5 458.398438 C 33.101562 355.601562 35.800781 207.398438 98.199219 101.398438 C 149.398438 17 290 46.398438 309.398438 141.199219 L 345.601562 141.199219 C 329.800781 55 235 -4.601562 150.199219 21.601562 C -17.398438 73.300781 -21.800781 412.601562 104.898438 509.601562 C 190.398438 577.699219 328.5 518.5 346 413 L 309.800781 413 C 290.300781 504.398438 158.199219 537.101562 103.5 458.398438 Z M 103.5 458.398438 "/>
<path style=" stroke:none;fill-rule:nonzero;fill:rgb(100%,100%,100%);fill-opacity:1;" d="M 653.601562 16.699219 C 648.398438 22 477.398438 196.800781 419.199219 256 L 419.199219 16.699219 C 407 16.699219 393.898438 16.699219 381.800781 16.699219 L 381.800781 538.300781 L 382 538.300781 C 382 538.300781 419.300781 538.300781 419.300781 538.300781 L 419.300781 298.898438 C 486.601562 368 642.898438 527.5 653.5 538.398438 L 700.300781 538.398438 C 700.199219 538.300781 529.5 364.5 444.699219 277.300781 C 526.300781 195.300781 684.699219 32.898438 700.5 16.800781 L 653.601562 16.800781 Z M 653.601562 16.699219 "/>
<path style=" stroke:none;fill-rule:nonzero;fill:rgb(100%,100%,100%);fill-opacity:1;" d="M 822.300781 300.898438 L 822.300781 332.398438 C 865.101562 332.398438 907.898438 332.601562 950.601562 332.398438 C 953.398438 496.601562 777 580.699219 700.898438 413.398438 C 663.199219 311.199219 664.601562 184.601562 728.800781 93.199219 C 784.5 17.601562 914.699219 51.300781 933.5 141.300781 L 970 141.300781 C 952.101562 32.601562 806.601562 -24.800781 722.300781 49.300781 C 635.699219 133.601562 629.398438 270.601562 653.398438 382.101562 C 724.101562 646.601562 1003.800781 549.398438 990.601562 300.898438 C 934.398438 300.699219 878.300781 300.699219 822.300781 300.898438 Z M 822.300781 300.898438 "/>
<path style=" stroke:none;fill-rule:nonzero;fill:rgb(99.607843%,99.607843%,99.215686%);fill-opacity:1;" d="M 361.101562 957.101562 C 361.101562 957.101562 308.898438 957.101562 308.898438 957.101562 C 308.898438 957.101562 308.898438 566.898438 308.898438 566.898438 L 268.800781 566.898438 C 184 695 123.699219 787.398438 17.699219 948 C 17.699219 948 17.699219 991 17.699219 991 C 17.699219 991 273.199219 991 273.199219 991 L 273.199219 1090.5 C 273.199219 1090.5 309 1090.5 309 1090.5 C 309 1090.5 309 991 309 991 L 361.199219 991 C 361.101562 991 361.398438 956.898438 361.101562 957.101562 Z M 53.601562 957.101562 C 65.800781 938.699219 261.398438 642 273.199219 624.199219 C 273.199219 624.199219 273.199219 957 273.199219 957 C 273.199219 957.101562 53.398438 956.800781 53.601562 957.101562 Z M 53.601562 957.101562 "/>
<path style=" stroke:none;fill-rule:nonzero;fill:rgb(99.607843%,99.607843%,99.215686%);fill-opacity:1;" d="M 506.5 570.199219 C 645.398438 540.5 721 713.398438 603.300781 795.199219 C 749.101562 863.300781 704.199219 1081.699219 544.699219 1089.398438 C 375.699219 1098.5 315 866.699219 470.101562 794.800781 C 376.699219 735.800781 399.300781 596.5 506.5 570.199219 M 529.800781 599.398438 C 452.300781 602.800781 417.199219 703.300781 473.898438 755.199219 C 502.898438 782.898438 550.601562 786.800781 584.398438 765.898438 C 663.300781 717.101562 622.898438 591.898438 529.800781 599.398438 M 522 814.199219 C 432.300781 821.300781 384.5 931.398438 435.5 1003.800781 C 474.199219 1064.601562 568.800781 1074 619.898438 1023.699219 C 703.800781 945.800781 637.300781 798.101562 522 814.199219 Z M 522 814.199219 "/>
</g>
</svg>
