<svg xmlns="http://www.w3.org/2000/svg" xmlns:xlink="http://www.w3.org/1999/xlink" width="1000pt" height="1400pt" version="1.1" viewBox="0 0 1000 1400"><g id="surface1"><rect width="1000" height="1400" x="0" y="0" style="fill:#aaca13;fill-opacity:1;stroke:none"/><path style="stroke:none;fill-rule:nonzero;fill:#fefefd;fill-opacity:1" d="M 94.898438 51.699219 C 182.5 -26.101562 324.300781 28.101562 344.5 141.800781 C 332.699219 141.898438 320.898438 141.898438 309 141.699219 C 288.398438 70 217.601562 32.300781 147.300781 59.5 C 13.601562 120.199219 18.300781 475.800781 178.5 501.5 C 269.398438 512.898438 327.601562 422.199219 332.199219 341.101562 C 285.898438 339.199219 239.398438 341.800781 193.101562 340.101562 C 193.300781 328.699219 193.101562 317.199219 193.199219 305.800781 C 251.800781 305.601562 310.398438 305.800781 369 305.699219 C 372.699219 383 344.101562 466.898438 277.898438 511.800781 C 234.101562 541 173.601562 547.199219 126.898438 521.101562 C -13.398438 444.300781 -14.5 154.398438 94.898438 51.699219 Z M 94.898438 51.699219"/><path style="stroke:none;fill-rule:nonzero;fill:#fefefd;fill-opacity:1" d="M 639.601562 15.800781 C 651.398438 15.699219 663.199219 15.800781 675 15.699219 C 676 189.101562 676.800781 362.699219 674.601562 536.101562 C 594.199219 404.601562 514.398438 273 433.101562 142.199219 C 432.699219 274 433.199219 405.898438 432.800781 537.699219 C 421 537.601562 409.199219 537.5 397.398438 537.800781 C 396.398438 364.398438 395.800781 190.699219 397.699219 17.300781 C 478.5 148 558.398438 279 639.199219 409.601562 C 640 278.398438 639.101562 147.101562 639.601562 15.800781 Z M 639.601562 15.800781"/><path style="stroke:none;fill-rule:nonzero;fill:#fefefd;fill-opacity:1" d="M 966.601562 15.800781 L 697.898438 15.800781 L 697.898438 50.101562 L 927.199219 50.199219 C 850.5 212.398438 773.5 374.5 696 536.300781 C 696.398438 536.300781 979.699219 536.300781 980.101562 536.300781 L 980.101562 502.699219 L 753.300781 502.699219 C 828.601562 339.5 908.699219 179.398438 983 15.800781 C 977.5 15.800781 966.601562 15.800781 966.601562 15.800781 Z M 966.601562 15.800781"/><path style="stroke:none;fill-rule:nonzero;fill:#fefefd;fill-opacity:1" d="M 360.101562 956.601562 C 360.101562 956.601562 307.898438 956.601562 307.898438 956.601562 C 307.898438 956.601562 307.898438 566.398438 307.898438 566.398438 L 267.800781 566.398438 C 183 694.5 122.699219 786.898438 16.699219 947.5 C 16.699219 947.5 16.699219 990.5 16.699219 990.5 C 16.699219 990.5 272.199219 990.5 272.199219 990.5 L 272.199219 1090 C 272.199219 1090 308 1090 308 1090 C 308 1090 308 990.5 308 990.5 L 360.199219 990.5 C 360.101562 990.5 360.398438 956.398438 360.101562 956.601562 Z M 52.601562 956.601562 C 64.800781 938.199219 260.398438 641.5 272.199219 623.699219 C 272.199219 623.699219 272.199219 956.5 272.199219 956.5 C 272.199219 956.601562 52.398438 956.300781 52.601562 956.601562 Z M 52.601562 956.601562"/><path style="stroke:none;fill-rule:nonzero;fill:#fefefd;fill-opacity:1" d="M 506.5 570.199219 C 645.398438 540.5 721 713.398438 603.300781 795.199219 C 749.101562 863.300781 704.199219 1081.699219 544.699219 1089.398438 C 375.699219 1098.5 315 866.699219 470.101562 794.800781 C 376.699219 735.800781 399.300781 596.5 506.5 570.199219 M 529.800781 599.398438 C 452.300781 602.800781 417.199219 703.300781 473.898438 755.199219 C 502.898438 782.898438 550.601562 786.800781 584.398438 765.898438 C 663.300781 717.101562 622.898438 591.898438 529.800781 599.398438 M 522 814.199219 C 432.300781 821.300781 384.5 931.398438 435.5 1003.800781 C 474.199219 1064.601562 568.800781 1074 619.898438 1023.699219 C 703.800781 945.800781 637.300781 798.101562 522 814.199219 Z M 522 814.199219"/></g></svg>