<svg xmlns="http://www.w3.org/2000/svg" xmlns:svg="http://www.w3.org/2000/svg" id="svg15" width="1000pt" height="1400pt" version="1.1" viewBox="0 0 1000 1400"><metadata id="metadata21"/><g id="layer1" transform="matrix(6.4820883,0,0,6.5095554,-344.23552,-23.374336)"><rect style="fill:#436bb4;fill-opacity:1;stroke:none;stroke-width:5.38215;stroke-linecap:square;stroke-miterlimit:4;stroke-dasharray:none;stroke-opacity:1;paint-order:markers fill stroke" id="rect953" width="154.271" height="215.068" x="53.106" y="3.591"/><path style="fill:none;stroke:#fff;stroke-width:6.165;stroke-linecap:butt;stroke-linejoin:miter;stroke-miterlimit:4;stroke-dasharray:none;stroke-opacity:1" id="path969" d="m 60.745762,75.171758 c 1.040952,1.533282 2.081698,3.066261 3.51281,4.601678 1.431113,1.535417 3.252478,3.073306 5.698458,4.240411 2.44598,1.167105 5.516352,1.963494 8.446803,2.056344 2.930451,0.09285 5.720977,-0.517721 7.992493,-1.565886 2.271517,-1.048166 4.023983,-2.533837 5.538507,-4.31022 1.514524,-1.776383 2.79099,-3.843354 3.429283,-6.992732 0.638294,-3.149377 0.638294,-7.380977 0.638294,-18.740159 0,-11.359182 0,-29.844954 0,-48.3313604"/><path style="fill:none;stroke:#fff;stroke-width:6.165;stroke-linecap:butt;stroke-linejoin:miter;stroke-miterlimit:4;stroke-dasharray:none;stroke-opacity:1" id="path973" d="M 108.43044,87.64704 107.6173,9.0757731 h 2.6727 l 38.49814,75.6259279 h 1.33635 1.33635 V 5.9537731"/><path style="fill:none;stroke:#fff;stroke-width:6.165;stroke-linecap:butt;stroke-linejoin:miter;stroke-miterlimit:4;stroke-dasharray:none;stroke-opacity:1" id="path975" d="m 160.548,87.775302 c 0,0 0,-78.7294635 0,-78.7294635 0,0 17.10525,0 17.10525,0 0.62363,0 1.26168,0 2.52416,0.02177 1.26249,0.02177 3.26692,0.067325 5.60559,0.5591705 2.33867,0.491845 5.0558,1.430832 7.39442,3.12766 2.33862,1.696828 4.29852,4.151103 5.4566,7.160146 1.15809,3.009043 1.51444,6.572566 1.06894,10.136129 -0.44551,3.563562 -1.69271,7.12701 -3.29632,9.710579 -1.60361,2.583568 -3.56351,4.187122 -5.813,5.3453 -2.24949,1.158179 -4.78849,1.870882 -6.92662,2.227267 -2.13813,0.356385 -3.87535,0.356385 -7.66172,0.356385 -3.78638,0 -9.62165,0 -15.4573,0"/><path style="fill:none;stroke:#fff;stroke-width:6.165;stroke-linecap:butt;stroke-linejoin:miter;stroke-miterlimit:4;stroke-dasharray:none;stroke-opacity:1" id="path979" d="m 180.59322,48.224783 21.64882,42.62949"/><rect style="fill:#436bb4;fill-opacity:1;stroke:none;stroke-width:6.165;stroke-linecap:butt;stroke-linejoin:miter;stroke-miterlimit:4;stroke-dasharray:none;stroke-opacity:1;paint-order:markers fill stroke" id="rect981" width="17.907" height="5.078" x="188.411" y="87.914"/><path style="fill:none;stroke:#fff;stroke-width:5.465;stroke-linecap:butt;stroke-linejoin:miter;stroke-miterlimit:4;stroke-dasharray:none;stroke-opacity:1" id="path929" d="M 93.829151,173.12942 V 94.691179 h -1.60362 L 57.972054,146.19966 v 0.81793 h 50.519316"/><path style="fill:none;stroke:#fff;stroke-width:6.10522;stroke-linecap:butt;stroke-linejoin:miter;stroke-miterlimit:4;stroke-dasharray:none;stroke-opacity:1" id="path1017" d="m 131.28199,130.48589 c -3.42993,2.62109 -6.85981,5.24215 -9.7776,8.40944 -2.91779,3.16729 -5.32313,6.88039 -6.25855,10.63752 -0.93542,3.75712 -0.4009,7.55759 0.89103,10.6593 1.29193,3.10171 3.34091,5.5043 5.88006,7.38274 2.53915,1.87844 5.56814,3.23265 8.90902,3.93155 3.34088,0.69889 6.99341,0.74258 10.31204,0.32753 3.31862,-0.41505 6.30307,-1.28874 8.84206,-2.94877 2.53898,-1.66003 4.63255,-4.10636 5.90476,-6.85477 1.27221,-2.74842 1.71228,-5.72632 1.60097,-8.63138 -0.11132,-2.90505 -0.77946,-5.70079 -2.87302,-8.69333 -2.09355,-2.99253 -5.61253,-6.1815 -9.7166,-8.57117 -4.10406,-2.38967 -8.94746,-4.03217 -12.35522,-5.56113 -3.40776,-1.52896 -5.45675,-2.97052 -7.55044,-5.11109 -2.09369,-2.14058 -4.23176,-4.98002 -5.18961,-8.60599 -0.95786,-3.62596 -0.73514,-8.03801 0.69033,-11.57671 1.42547,-3.5387 4.05357,-6.203454 6.92685,-7.907207 2.87328,-1.703754 5.99136,-2.446387 9.15414,-2.511856 3.16278,-0.06547 6.36988,0.546099 9.04261,1.900472 2.67273,1.354372 4.81084,3.451221 6.41439,5.963181 1.60355,2.51196 2.67261,5.43882 2.96207,8.4094 0.28946,2.97057 -0.20051,5.98473 -1.55916,9.08636 -1.35864,3.10163 -3.58585,6.2906 -5.52356,8.88988 -1.93772,2.59929 -3.58585,4.60877 -5.23398,6.61825"/></g></svg>