<?xml version="1.0" encoding="UTF-8"?>
<svg xmlns="http://www.w3.org/2000/svg" xmlns:xlink="http://www.w3.org/1999/xlink" width="1000pt" height="1400pt" viewBox="0 0 1000 1400" version="1.1">
<g id="surface1">
<rect x="0" y="0" width="1000" height="1400" style="fill:rgb(89.019608%,0%,80.784314%);fill-opacity:1;stroke:none;"/>
<path style=" stroke:none;fill-rule:nonzero;fill:rgb(99.607843%,99.607843%,99.215686%);fill-opacity:1;" d="M 259.300781 246.199219 C 222 226.101562 178 231.398438 139.5 215.5 C 101.5 200 82.5 152 95.800781 113.101562 C 129.800781 13.800781 281.699219 43.101562 273.300781 149.398438 C 275.699219 150.398438 313.898438 149.398438 313.800781 149.800781 C 323.800781 52.5 208.101562 -13.800781 126.898438 27.699219 C 56.398438 54.398438 25.898438 154.101562 75.699219 213.898438 C 113.800781 263.800781 180.300781 258.898438 233.5 277.601562 C 293.800781 298.199219 323.300781 375.800781 294.199219 433 C 234 552.199219 52.699219 506.101562 57.898438 371.5 C 54.601562 371.699219 22.601562 371.398438 18.601562 371.5 C 13.300781 547.300781 256.5 602.5 331.398438 446.101562 C 368.300781 374 332.300781 277.300781 259.300781 246.199219 Z M 259.300781 246.199219 "/>
<path style=" stroke:none;fill-rule:nonzero;fill:rgb(99.607843%,99.607843%,99.215686%);fill-opacity:1;" d="M 648.300781 14.398438 L 648.300781 256.5 L 425.800781 256.5 L 425.800781 14.398438 L 386.800781 14.398438 L 386.800781 538.800781 L 425.800781 538.800781 L 425.800781 294.898438 L 648.300781 294.898438 L 648.300781 538.800781 L 687.699219 538.800781 L 687.699219 14.398438 Z M 648.300781 14.398438 "/>
<path style=" stroke:none;fill-rule:nonzero;fill:rgb(99.607843%,99.607843%,99.215686%);fill-opacity:1;" d="M 845 207.300781 C 811.398438 144.398438 779.699219 80.300781 747.699219 16.398438 C 732.898438 16.199219 718 16.199219 703.300781 16.398438 L 824.300781 245.5 L 824.300781 539.199219 L 864 539.199219 L 864 245.5 C 864 245.5 982.398438 21.601562 985.199219 16.199219 C 984.699219 16.199219 941.5 16.199219 941.101562 16.199219 C 940.898438 16.898438 876.800781 143 845 207.300781 Z M 845 207.300781 "/>
<path style=" stroke:none;fill-rule:nonzero;fill:rgb(99.607843%,99.607843%,99.215686%);fill-opacity:1;" d="M 359.699219 957.300781 L 307.5 957.300781 L 307.5 567.101562 L 267.398438 567.101562 C 182.601562 695.199219 122.300781 787.601562 16.300781 948.199219 L 16.300781 991.199219 L 271.800781 991.199219 L 271.800781 1090.699219 L 307.601562 1090.699219 L 307.601562 991.199219 L 359.800781 991.199219 C 359.699219 991.199219 360 957.101562 359.699219 957.300781 Z M 52.199219 957.300781 C 64.398438 938.898438 260 642.199219 271.800781 624.398438 L 271.800781 957.199219 C 271.800781 957.300781 52 957 52.199219 957.300781 Z M 52.199219 957.300781 "/>
<path style=" stroke:none;fill-rule:nonzero;fill:rgb(99.607843%,99.607843%,99.215686%);fill-opacity:1;" d="M 506.101562 570.898438 C 645 541.199219 720.601562 714.101562 602.898438 795.898438 C 748.699219 864 703.800781 1082.398438 544.300781 1090.101562 C 375.300781 1099.199219 314.601562 867.398438 469.699219 795.5 C 376.300781 736.5 398.898438 597.199219 506.101562 570.898438 M 529.398438 600.101562 C 451.898438 603.5 416.800781 704 473.5 755.898438 C 502.5 783.601562 550.199219 787.5 584 766.601562 C 662.898438 717.800781 622.5 592.601562 529.398438 600.101562 M 521.601562 814.898438 C 431.898438 822 384.101562 932.101562 435.101562 1004.5 C 473.800781 1065.300781 568.398438 1074.699219 619.5 1024.398438 C 703.398438 946.5 636.898438 798.800781 521.601562 814.898438 Z M 521.601562 814.898438 "/>
</g>
</svg>
