<?xml version="1.0" encoding="UTF-8"?>
<svg xmlns="http://www.w3.org/2000/svg" xmlns:xlink="http://www.w3.org/1999/xlink" width="1000pt" height="1400pt" viewBox="0 0 1000 1400" version="1.1">
<g id="surface1">
<rect x="0" y="0" width="1000" height="1400" style="fill:rgb(56.078431%,82.745098%,96.470588%);fill-opacity:1;stroke:none;"/>
<path style=" stroke:none;fill-rule:nonzero;fill:rgb(100%,100%,100%);fill-opacity:1;" d="M 556.5 792.300781 C 600.800781 773.300781 632.398438 728.199219 632.398438 679.5 C 632.398438 611.199219 576.101562 557 507.101562 557 C 438.101562 557 381.800781 614.199219 381.800781 678.898438 L 381.800781 679.5 C 381.800781 728.199219 413.398438 773.398438 457.699219 792.300781 C 394.398438 812.800781 349.898438 870.5 348.699219 940.398438 C 350.800781 1027.699219 419.800781 1096.898438 507.101562 1096.898438 C 594.398438 1096.898438 663.601562 1027.898438 665.5 940.398438 C 664.199219 869.898438 619.101562 812.101562 556.5 792.300781 Z M 402.898438 680.300781 L 402.898438 679.699219 C 402.898438 621.300781 448.699219 575.5 507.101562 575.5 C 565.5 575.5 611.300781 621.300781 611.300781 679.699219 C 611.300781 737.5 565.5 783.300781 507.101562 783.300781 C 448.699219 783.300781 402.898438 737.5 402.898438 680.300781 Z M 507.101562 1077.898438 C 430.300781 1077.898438 369.800781 1017.199219 369.800781 941.199219 L 369.800781 940.601562 C 369.800781 863.800781 430.300781 803.101562 507.101562 803.101562 C 583.898438 803.101562 644.398438 863.800781 644.398438 940.601562 C 644.398438 1017.398438 583.898438 1077.898438 507.101562 1077.898438 Z M 507.101562 1077.898438 "/>
<path style=" stroke:none;fill-rule:nonzero;fill:rgb(100%,100%,100%);fill-opacity:1;" d="M 262.398438 1087.800781 L 283.5 1087.800781 L 283.5 986.300781 L 336.199219 986.300781 L 336.199219 967.300781 L 283.5 967.300781 L 283.5 566 L 254.601562 566 L 0.101562 952.398438 L 0.101562 986.101562 L 262.5 986.101562 L 262.5 1087.800781 Z M 14.601562 967.199219 L 262.398438 591.601562 L 262.398438 967.199219 Z M 14.601562 967.199219 "/>
<path style=" stroke:none;fill-rule:nonzero;fill:rgb(99.215686%,99.607843%,99.607843%);fill-opacity:1;" d="M 104.5 0 L 210 0 C 251.699219 24 284.300781 65.398438 283.300781 115.300781 C 276.199219 115.199219 269.101562 115.101562 262.101562 115 C 262.300781 46.601562 192.101562 -7.601562 126.300781 15 C 41.101562 37 26.898438 168.601562 107.800781 205.601562 C 161.101562 227 227 219 269 265.300781 C 335.800781 325.898438 329 441.199219 260.300781 497.800781 C 160.5 587.199219 -2.898438 508.300781 0 377.101562 C 6.699219 377.398438 13.398438 377.699219 20.101562 378 C 17.300781 470.800781 117.300781 542 204 508.199219 C 317.800781 471.800781 325.898438 294.601562 211.398438 253.601562 C 178.800781 239.601562 142 241.398438 109.101562 228.300781 C 5 191.800781 11.699219 46.300781 104.5 0 Z M 104.5 0 "/>
<path style=" stroke:none;fill-rule:nonzero;fill:rgb(99.215686%,99.607843%,99.607843%);fill-opacity:1;" d="M 361.398438 0 C 447.101562 145.199219 530.601562 297 616.699219 443.699219 C 620.601562 296 617.101562 147.898438 618 0 L 639.300781 0 C 637.800781 175.699219 640.398438 351.398438 638.300781 527 C 550.898438 381.300781 472.300781 230.101562 384.300781 84.898438 C 381.601562 233.800781 384.601562 383 383.101562 532 C 376.101562 532.101562 369 532.101562 362 532.199219 C 360.5 354.898438 362 177.398438 361.398438 0 Z M 361.398438 0 "/>
<path style=" stroke:none;fill-rule:nonzero;fill:rgb(99.215686%,99.607843%,99.607843%);fill-opacity:1;" d="M 697.601562 0 L 719.601562 0 C 719.101562 84.199219 718.898438 168.5 719.699219 252.601562 C 797.699219 253 875.800781 253 953.800781 252.601562 C 954.5 168.398438 954.300781 84.199219 953.800781 -0.101562 L 976 -0.101562 C 974 177.199219 977.398438 354.601562 974.800781 531.898438 C 968.101562 532 961.300781 532.101562 954.601562 532.300781 C 952.601562 446.5 955.601562 360.601562 953.398438 274.800781 C 875.601562 274.699219 797.800781 274.898438 719.898438 274.699219 C 718.101562 360.300781 719.800781 446 719.199219 531.699219 C 711.898438 531.800781 704.699219 531.898438 697.398438 532.101562 C 697.199219 354.800781 696.5 177.398438 697.601562 0 Z M 697.601562 0 "/>
</g>
</svg>
