<svg xmlns="http://www.w3.org/2000/svg" xmlns:svg="http://www.w3.org/2000/svg" id="svg15" width="1000pt" height="1400pt" version="1.1" viewBox="0 0 1000 1400"><metadata id="metadata21"/><g id="layer1" transform="matrix(6.4820883,0,0,6.5095554,-344.23552,-23.374336)"><rect style="fill:#91ceed;fill-opacity:1;stroke:none;stroke-width:5.38215;stroke-linecap:square;stroke-miterlimit:4;stroke-dasharray:none;stroke-opacity:1;paint-order:markers fill stroke" id="rect953" width="154.271" height="215.068" x="53.106" y="3.591"/><path style="fill:none;stroke:#fff;stroke-width:6.165;stroke-linecap:butt;stroke-linejoin:miter;stroke-miterlimit:4;stroke-dasharray:none;stroke-opacity:1" id="path867" d="m 98.355186,26.326048 c 0.05267,-2.200843 0.102174,-4.269121 -0.65497,-6.706554 -0.757144,-2.437432 -2.437825,-5.15782 -4.091082,-6.701986 C 91.955877,11.373342 88.823518,9.6581544 85.70242,8.9941038 82.581321,8.3300533 78.9784,8.4412545 75.748776,9.3432867 c -3.229623,0.9020323 -6.08044,2.5947053 -8.040493,4.9557153 -1.960054,2.361011 -3.029111,5.390005 -3.443021,8.332303 -0.41391,2.942298 -0.172744,5.797535 1.000187,8.448011 1.172931,2.650475 3.277265,5.095871 6.028333,6.834647 2.751068,1.738776 6.148468,2.770911 9.662166,3.441301 3.513697,0.670389 7.14331,0.979025 10.522727,2.571324 3.379417,1.5923 6.508247,4.467844 8.414384,7.606111 1.906141,3.138266 2.589581,6.538899 2.775361,9.776043 0.18577,3.237145 -0.12604,6.310682 -1.37332,9.38422 -1.24729,3.073538 -3.429947,6.147077 -6.080312,8.285193 -2.650365,2.138115 -5.768444,3.340803 -8.819748,4.031271 -3.051305,0.690469 -6.035755,0.868646 -9.332079,0.245073 -3.296325,-0.623573 -6.904392,-2.048982 -9.710789,-4.075718 -2.806397,-2.026736 -4.810878,-4.654834 -6.058223,-7.193913 -1.247345,-2.539079 -1.73733,-4.989002 -1.960064,-6.882941 -0.222734,-1.893938 -0.178239,-3.228778 -0.133685,-4.56538"/><path style="fill:none;stroke:#fff;stroke-width:6.165;stroke-linecap:butt;stroke-linejoin:miter;stroke-miterlimit:4;stroke-dasharray:none;stroke-opacity:1" id="path871" d="m 114.25772,86.194423 v -70.69279 l 37.685,60.670183 V 6.0135642"/><path style="fill:none;stroke:#fff;stroke-width:6.165;stroke-linecap:butt;stroke-linejoin:miter;stroke-miterlimit:4;stroke-dasharray:none;stroke-opacity:1" id="path871-5" d="M 163.16804,86.060788 163.05522,6.0135642"/><path style="fill:none;stroke:#fff;stroke-width:6.165;stroke-linecap:butt;stroke-linejoin:miter;stroke-miterlimit:4;stroke-dasharray:none;stroke-opacity:1" id="path907" d="m 163.43531,45.836723 h 39.42226"/><path style="fill:none;stroke:#fff;stroke-width:6.165;stroke-linecap:butt;stroke-linejoin:miter;stroke-miterlimit:4;stroke-dasharray:none;stroke-opacity:1" id="path871-5-6" d="M 202.32662,86.060788 202.2138,6.0135644"/><path style="fill:none;stroke:#fff;stroke-width:6.165;stroke-linecap:butt;stroke-linejoin:miter;stroke-miterlimit:4;stroke-dasharray:none;stroke-opacity:1" id="path929" d="M 97.954281,171.0525 V 93.143429 h -1.603618 l -38.48681,57.329311 v 2.40543 h 51.048477"/><ellipse style="fill:none;stroke:#fff;stroke-width:6.165;stroke-linecap:square;stroke-miterlimit:4;stroke-dasharray:none;stroke-opacity:1;paint-order:markers fill stroke" id="path931" cx="135.572" cy="109.113" rx="16.246" ry="16.246"/><ellipse style="fill:none;stroke:#fff;stroke-width:6.165;stroke-linecap:square;stroke-miterlimit:4;stroke-dasharray:none;stroke-opacity:1;paint-order:markers fill stroke" id="path931-6" cx="135.84" cy="146.998" rx="20.687" ry="20.754"/></g></svg>