<svg xmlns="http://www.w3.org/2000/svg" xmlns:svg="http://www.w3.org/2000/svg" id="svg863" width="91mm" height="304.392" version="1.1" viewBox="0 0 91 80.537"><metadata id="metadata860"/><g id="layer1" transform="translate(0,-216.463)"><path id="path814" d="M 84.550414,290.54997 45.499941,222.91262 6.4496006,290.54992 Z" style="opacity:1;fill:none;fill-opacity:1;stroke:#dc0a14;stroke-width:11.9000721;stroke-linecap:butt;stroke-linejoin:round;stroke-miterlimit:4;stroke-dasharray:none;stroke-dashoffset:0;stroke-opacity:1"/><path id="path818" d="M 81.173022,288.59999 45.499989,226.81248 9.8269506,288.59995 Z" style="opacity:1;fill:#fff;fill-opacity:1;stroke:none;stroke-width:11.93114281;stroke-linecap:butt;stroke-linejoin:round;stroke-miterlimit:4;stroke-dasharray:none;stroke-dashoffset:0;stroke-opacity:1"/><path style="fill:#000;fill-opacity:1;fill-rule:nonzero;stroke:none;stroke-width:.12659319" id="path829" d="m 45.49997,272.89971 c -1.315,0 -2.433942,-1.18996 -2.519742,-2.39985 l -2.140438,-25.03 c 0,0 -0.03979,-0.53796 -0.03979,-0.84026 0,-2.61319 2.113061,-4.72994 4.699971,-4.72994 2.586911,0 4.699972,2.11675 4.699972,4.72994 0,0.3023 -0.03979,0.84026 -0.03979,0.84026 l -2.140438,25.03 c -0.0858,1.20989 -1.204742,2.39985 -2.519743,2.39985 z"/><circle style="opacity:1;fill:#000;fill-opacity:1;fill-rule:nonzero;stroke:none;stroke-width:.69215065;stroke-linecap:square;stroke-linejoin:round;stroke-miterlimit:22.9260006;stroke-dasharray:none;stroke-opacity:1;paint-order:stroke fill markers" id="path831" cx="45.5" cy="280.8" r="4.7"/></g></svg>